<svg xmlns="http://www.w3.org/2000/svg" width="8788" height="9128" class="img-fluid" viewBox="0 0 8788 9128" fill="none">
  <path fill="#FCFBFB" d="M3776 6277.394c-7-19-58-158-111-309-54-151-136-380-182-508-148-415-293-859-293-902v-40h45c39 0 47 4 72 38 58 77 158 168 218 197 51 25 72 30 140 30 64 0 89-5 123-23 61-32 127-96 175-167 50-76 62-85 110-85 52 0 70 12 103 67 44 75 123 153 184 181 43 21 71 26 130 27 66 0 84-4 143-33 78-39 148-103 200-184l37-58h110v46c0 52-62 239-288 869-269 750-312 869-312 873 0 11-102-8-155-28-88-34-187-33-285 4-41 15-92 30-113 33-35 5-38 3-51-28z"/>
  <path fill="#010101" d="M42 9121.394c-7-3-19-18-27-33-13-26-15-578-15-4534v-4505l22-21c13-11 32-23 43-26s1006-3 2210-1c1989 3 2204 5 2345 20 330 37 582 85 864 166 982 281 1889 935 2484 1791 442 636 704 1317 798 2070 21 176 30 631 15 816-40 487-139 916-316 1364-327 832-941 1597-1675 2090-346 232-611 371-940 494-505 189-931 279-1450 306-198 10-4333 13-4358 3zm1816-4555-3-4253-777-3-778-2v190h220c281 0 263-12 258 177-3 120-5 136-22 149-16 11-66 14-238 14H299l3 88 3 87 462 5c427 5 464 6 483 23 20 17 21 26 18 142-2 104-6 126-22 144-19 21-24 21-483 21H300v180l203 1c111 1 213 4 227 8 38 11 53 67 47 181-3 52-8 103-12 112-12 31-64 38-267 38H299l3 88 3 87 355 1c196 0 368 4 382 7 39 10 51 58 46 184-3 102-5 106-33 130-29 25-30 25-163 18-74-4-238-4-363 0l-229 8v177h218c172 0 222 3 238 14 17 13 19 29 22 148 3 122 2 136-16 158l-20 25H523l-218 1v169l464 3c322 1 468 6 478 13 10 9 13 46 13 149 0 121-2 139-19 154s-65 17-480 23l-462 6 3 86 3 86 225 5 224 5 13 25c8 16 13 69 13 145 0 177 18 165-250 165-127 0-221 4-225 9-3 6-3 46 1 89l7 79 210 6 211 5 23 27c21 24 23 36 23 131 0 68-5 117-14 139l-15 35-223 2-223 3-3 93-3 92h370c456 0 417-16 414 165-1 117-3 129-24 151l-22 24H299l3 88 3 87 223 5c203 5 225 7 237 24 19 26 29 116 21 205-5 66-9 79-33 100-27 23-28 23-237 20l-211-4-3 88-3 87h922l24 25c24 23 25 31 25 132 0 59-3 118-6 131-14 51-28 52-514 52H299l3 88 3 87 214 3c182 2 218 5 233 19 16 14 18 34 18 148 0 98-4 136-14 151-14 18-26 19-235 16l-221-3v178l61 7c34 3 205 6 380 6h319l17 27c25 38 24 250-1 288l-16 25H300v180h218c173 0 222 3 238 14 17 13 19 27 19 151 0 186 17 175-261 175H300v180h939l15 22c13 18 16 51 16 155 0 125-1 133-22 147-20 14-83 16-485 16H300v180h220c258 0 253-2 265 100 10 88-2 204-24 224-14 13-54 16-237 18l-219 3-3 88-3 87h1561l-2-4252zm2392 4242c146-5 328-16 405-25 705-82 1301-298 1880-680 188-124 289-201 485-370 232-199 395-376 609-658 332-438 603-1001 720-1497 86-365 120-615 128-942 12-523-61-979-234-1457-266-736-755-1413-1397-1931-555-448-1245-756-1961-874-351-58-491-66-1141-66h-554v348l658 5c701 5 766 9 1067 62 328 58 546 124 865 262 710 308 1347 855 1749 1503 176 283 301 544 402 840 92 268 154 563 180 860 14 161 14 569-1 736-57 647-269 1253-623 1784-277 414-666 802-1092 1087-477 319-956 513-1516 613-304 54-282 53-1524 59l-1160 6-3 173-2 172h897c494-1 1017-5 1163-10zm230-696c554-54 1046-213 1510-487 527-311 983-757 1285-1257 136-225 283-551 349-777 157-534 195-960 130-1473-55-433-201-872-417-1249-198-347-425-637-700-895-165-155-270-237-472-371-270-177-372-232-635-338-250-100-435-154-695-201-301-55-347-58-1017-63l-628-5v360l688 5c740 4 759 5 1042 63 618 127 1240 488 1668 968 223 251 357 447 503 737 164 328 257 620 311 982 31 209 31 686 0 899-84 580-304 1101-649 1533-324 407-761 746-1223 949-272 119-419 167-660 216-312 63-288 62-1537 67l-1143 5v96c0 53 3 133 6 177l7 80 1061-3c862-2 1090-5 1216-18zm-588-801c-141-407-489-1388-772-2183-56-157-127-361-158-453l-55-168 38-112c59-175 277-795 340-967 31-85 96-267 145-405 228-648 283-804 350-990 40-110 85-237 100-282l29-83H2160v5800h1787l-55-157zm525 147c1171-96 2183-879 2552-1976 204-608 199-1265-15-1887-93-270-276-598-460-826-139-172-395-420-555-538-470-345-995-536-1541-560-94-4-148-3-148 4 0 11 146 425 375 1058 52 143 142 393 200 555 59 162 135 374 170 470s109 298 164 448c56 151 101 285 101 298s-27 100-61 192c-33 92-97 268-140 392-44 124-152 423-239 665-272 752-418 1160-510 1425-49 140-92 263-95 273-9 21 15 22 202 7zm-466-1230c116-32 219-25 337 22 29 11 55 18 58 16 2-3 43-113 90-244s149-414 226-629c173-481 288-817 288-839 0-10-9-16-25-16-20 0-33 13-62 58-52 81-122 145-200 184-64 31-74 33-173 33-92 0-112-4-160-26-61-29-141-107-184-182-52-88-85-86-146 8-49 75-119 144-181 177-38 20-58 23-154 23-101 0-115-2-170-29-60-30-160-121-218-198-26-36-57-50-57-28 0 17 203 619 293 872 46 128 128 357 182 508 134 377 118 344 153 326 16-8 63-24 103-36zm-259-1751c13-5 36-35 52-65 40-76 97-131 174-167 60-28 76-32 162-31 83 0 103 3 155 27 74 35 115 72 171 159 52 80 72 94 118 78 25-8 43-26 71-71 56-92 168-189 217-189 10 0 18-2 18-5 0-10-69-205-136-384-37-97-125-342-196-546-71-203-163-462-205-575s-108-292-148-398l-71-193-103 293c-57 161-150 421-206 578-197 543-237 656-284 795-27 77-71 203-100 281-28 77-51 143-51 147s7 7 15 7c22 0 86 34 122 64 17 14 56 63 87 110 37 54 65 86 79 89 12 2 25 5 29 6 4 0 17-4 30-10zm-842-3644v-525h-660v518c0 285 3 522 7 525 3 4 152 7 330 7h323v-525z"/>
  <g fill="#4B99A7">
    <path d="m272 8731.394 3-118 219-3c181-2 223-5 237-18 37-34 32-222-7-251-15-11-69-13-234-13l-215 2-3-121-3-121h463c403 0 466-2 486-16s22-23 22-117c0-77-4-108-16-125l-15-22H270v-240h214c273 0 261 7 261-145 0-94-2-108-19-121-16-11-65-14-238-14H270v-240h760l15-24c24-36 25-193 2-229l-17-27H711c-175 0-346-3-380-6l-61-7v-239l221 3c266 5 249 14 249-136 0-86-3-105-18-118-15-14-51-17-233-19l-214-3-3-117-3-118h451c486 0 500-1 514-52 3-13 6-58 6-101 0-69-3-81-25-102l-24-25H269l3-117 3-118h216c195 0 219-2 237-18 24-22 37-106 27-177-12-87-3-84-257-90l-223-5-3-117-3-118h738l21-23c19-20 23-36 25-121 3-147 36-136-414-136H269l3-122 3-123 223-3 223-2 15-35c8-19 14-67 14-109 0-63-3-79-23-101l-22-26-205-4c-113-1-210-3-216-4-7-1-10-42-10-118l1-118 220-3c267-3 255 4 255-136 0-53-6-101-13-116l-13-25-224-5-225-5-3-117-3-118h253c425 0 670-10 691-28 14-13 17-33 17-122 0-78-4-111-13-119-10-7-156-12-478-13l-464-3v-230h437l20-25c17-21 19-36 16-128-3-89-6-106-22-118-16-11-66-14-238-14H269l3-122 3-121 369-3c435-3 406 5 414-117 5-89-10-145-41-152-12-3-184-7-382-8l-360-2-3-117-3-118h199c200 0 255-8 266-37 3-8 9-45 12-81 7-85-10-143-46-153-14-4-116-7-227-8l-203-1v-240h463c550 0 500 13 505-135 6-141 52-129-501-135l-462-5-3-120-3-120 218 3c178 2 222 0 238-12 17-12 20-28 23-119 5-154 18-147-258-147H270v-250l808 2 807 3 3 4283 2 4282H269l3-117zm1890-85 3-203 1160-6c1004-5 1177-8 1285-22 685-92 1214-288 1755-650 364-244 693-553 954-897 398-523 636-1091 735-1750 48-321 50-794 5-1095-82-548-256-1016-560-1505-402-648-1039-1195-1749-1503-319-138-537-204-865-262-314-55-484-65-1192-65h-533v-410h584c320 0 641 4 712 10 674 52 1267 224 1816 526 665 365 1249 933 1655 1609 292 486 479 1017 553 1575 24 188 32 371 27 637-7 358-38 592-128 973-117 496-388 1059-720 1497-214 282-377 459-609 658-196 169-297 246-485 370-579 382-1175 598-1880 680-224 26-607 34-1598 35h-927l2-202z"/>
    <path d="M2169 8163.394s-3-93-6-207l-5-206 1143-5c1251-5 1227-4 1539-67 241-49 388-97 660-216 377-166 699-392 1005-705 480-492 767-1079 867-1777 31-211 30-632 0-839-121-818-553-1569-1192-2074-177-140-346-247-562-355-317-159-594-245-968-300-97-14-225-18-802-21l-688-5v-420l658 5c703 5 743 7 1047 63 311 56 597 148 903 290 168 77 517 297 687 433 193 155 431 397 604 615 125 159 323 476 410 659 209 440 307 828 341 1342 32 472-61 1043-241 1493-239 595-606 1085-1120 1492-375 298-760 501-1219 643-163 51-255 73-420 101-307 53-371 55-1547 58-601 2-1093 3-1094 3zm-2-6782c-4-3-7-253-7-555v-548h720v448c0 246 2 490 4 542s1 101-1 108c-4 9-85 12-357 12-194 0-356-3-359-7z"/>
  </g>
  <path fill="#E78F4A" d="M3603 4511.394c-14-3-42-35-79-89-73-108-122-149-216-178-27-8-23-29 33-181 28-77 75-210 104-295 56-163 134-382 265-740 43-118 140-390 215-605 76-214 141-396 145-404 6-11 9-8 15 10 8 26 133 368 245 669 38 102 127 352 198 555 71 204 166 469 211 590s95 258 112 304c32 86 31 100-12 101-21 0-97 50-141 93-20 20-53 63-73 96-39 63-68 81-132 81-51 0-69-14-117-88-56-87-97-125-170-158-157-72-344 2-432 170-16 30-39 60-52 65-23 11-76 12-119 4z"/>
</svg>