<svg xmlns="http://www.w3.org/2000/svg" width="672" height="681" viewBox="0 0 672 681">
  <path fill="none" fill-opacity="0" stroke="#FBFBFC" stroke-width=".3" d="M0 681h672V0H0v681M506 65c10.36-4.51 22.61-5.14 33.67-8.33 11.07-3.19 24.56-5.03 36.33-5.67 6.06-.98 13.06-.57 19 0 13.11 0 27.77 2.46 38.69 9.31 10.93 6.84 17.87 14.73 22.24 26.76 4.36 12.03 3.42 29.69-1.25 41.61-4.67 11.92-8.49 22.26-16.6 32.4-8.1 10.14-10.51 18.58-21.33 27.67-10.81 9.09-3.72 20.46.23 33.27 3.94 12.81 5.77 27.15 8.02 40.98 2.24 13.84 2.35 32.46 2 47-.35 14.54-3.11 30.03-5.33 43.67s-6.36 26.13-10.44 38.56c-4.08 12.43-8.57 23.6-14.15 34.85-5.59 11.24-11.19 20.98-18 31C572.27 468.1 566.12 477.3 558 486c-1.4 1.5-2.83 3.38-4 5 12.27 1.83 23.02 5.35 35.22 7.78 12.2 2.42 22.29 5.42 34.8 8.2 12.52 2.78 19.88 6.96 33.65 9.35 13.77 2.39 10.59 19.41 10.33 32.67-.26 13.26.19 29.47 0 43-6.44-2.42-12.96-4.71-20-5v93c-8.4-2.28-17.77-4.33-26.01-6.99-8.24-2.66-17.29-4.99-25.21-7.79-7.93-2.79-22.51-.44-21.78-11.22-17.74 7.74-36.88-2.14-56.07-4.93-19.2-2.79-39.32-6.24-59.93-8.07s-43.76-4.65-65-5c-6.14-.47-3.79-.55-6-5-.48-.64.38-2.28 0-3-10.87 12.49-29.25 4.97-44 7-8.02 0-16.74-.3-24-1h-8c-2.75.27-6.58 1-10 1-94.35 0-184.65 18.16-272 45-7.89-8.24-17.9-14.62-27-21-.99-16.33 1.32-32.67 0-49s2.53-32.67 0-49 4.75-23.65 14.25-34.75c9.49-11.1 16.43-15.95 30.43-18.57 13.99-2.62 25.63-6.94 39.33-9.67 13.69-2.74 26.28-6.6 39.99-9.01-6.13-14.09-18.17-17.41-32-17-13.83.41-26.64-5.57-38.23-11.77-11.59-6.2-16.87-15.66-21.1-27.9-4.23-12.25-2.19-30.76 1.65-43.01C41.16 377.07 50.43 367.55 52 356c-1.77-12-3.81-23.66-5-36-2.04-7.54-.62-16.69-1-25-.38-8.31.33-18.03 1-26 .67-7.97 2.94-15.42 3.98-23.02 1.03-7.61 3.37-14.83 5-22 1.62-7.18 4.25-13.89 6.34-20.66 2.1-6.77 5.25-12.74 7.99-19.01 2.73-6.28 4.75-12.11 8-18 3.24-5.9 6.17-11.78 9.61-17.39 3.45-5.6 7.07-10.89 10.83-16.17 3.76-5.27 7.32-10.57 11.5-15.5s7.7-10.24 12-15c4.31-4.75 9.01-8.96 13.5-13.5 4.5-4.54 8.25-8.92 13.33-12.67s10.47-7.49 15.62-11.38c5.14-3.89 10.53-7.37 16-11 5.46-3.64 10.88-7.21 16.99-10.01 6.12-2.79 11.7-6.42 18-9 6.31-2.57 11.84-6.51 18.54-8.46 6.69-1.95 12.54-4.52 19.46-6.54 6.93-2.01 14.19-3.8 21.53-5.47 7.34-1.66 15.09-2.98 22.8-4.2C305.73 8.81 315 8.68 323 8c8-.68 17.59-1.73 25.67-.67 8.08 1.06 16.56 1.58 24.35 2.65 7.8 1.06 15.27 1.85 22.65 3.35 7.38 1.5 14.3 3.87 21.34 5.66 7.04 1.79 13.37 4.83 20.07 6.93 6.69 2.1 12.69 5.69 19.14 7.86 6.46 2.16 11.43 7.05 17.48 9.52 6.04 2.48 11.21 7.72 17 10 5.78 2.29 10.05 10.08 15.3 11.7Z"/>
  <path fill="none" fill-opacity="0" stroke="#598DB2" stroke-width=".3" d="M47 320c1.94 7.17 3.64 14.57 4 22 1.62-3.45.94-4.03 4-1 2.91-4.58 1.85-10.51 2-16 0-30.17-.31-66.4 7.93-94.07 8.24-27.68 16.78-50.46 30.84-74.16C109.83 133.07 122.5 117.5 142 98c20.33-20.33 42.94-36.61 68-49 42.41-20.97 89.04-32.63 138-31 48.96 1.63 87.81 17.16 130 39 .33.17.86.66 1 1 5.21 3.43 11.23 5.83 16 10 2.67 1.3 5.1-.54 8 1 .45-2.05 2.05-1.52 3-4-5.25-1.62-9.52-9.41-15.3-11.7-5.79-2.28-10.96-7.52-17-10-6.05-2.47-11.02-7.36-17.48-9.52-6.45-2.17-12.45-5.76-19.14-7.86-6.7-2.1-13.03-5.14-20.07-6.93-7.04-1.79-13.96-4.16-21.34-5.66-7.38-1.5-14.85-2.29-22.65-3.35-7.79-1.07-16.27-1.59-24.35-2.65C340.59 6.27 331 7.32 323 8s-17.27.81-24.98 2.02c-7.71 1.22-15.46 2.54-22.8 4.2-7.34 1.67-14.6 3.46-21.53 5.47-6.92 2.02-12.77 4.59-19.46 6.54-6.7 1.95-12.23 5.89-18.54 8.46-6.3 2.58-11.88 6.21-18 9-6.11 2.8-11.53 6.37-16.99 10.01-5.47 3.63-10.86 7.11-16 11-5.15 3.89-10.54 7.63-15.62 11.38-5.08 3.75-8.83 8.13-13.33 12.67-4.49 4.54-9.19 8.75-13.5 13.5-4.3 4.76-7.82 10.07-12 15s-7.74 10.23-11.5 15.5c-3.76 5.28-7.38 10.57-10.83 16.17-3.44 5.61-6.37 11.49-9.61 17.39-3.25 5.89-5.27 11.72-8 18-2.74 6.27-5.89 12.24-7.99 19.01-2.09 6.77-4.72 13.48-6.34 20.66-1.63 7.17-3.97 14.39-5 22-1.04 7.6-3.31 15.05-3.98 23.02-.67 7.97-1.38 17.69-1 26 .38 8.31-1.04 17.46 1 25Z"/>
  <path fill="none" fill-opacity="0" stroke="#34365A" stroke-width=".3" d="M210 49c6.37-1.38 14.56-7.02 22-6 2.5-6.08 11.36-7.53 18-7 9.78-6.22 21.7-9.17 35-11s26.04-4.86 39-6c12.96-1.14 32.32.78 45 2s25.78 6.37 38.02 7.98c12.25 1.6 22.98 8.75 34.66 12.34C453.36 44.91 463.69 50.37 472 58c1.88-.47 4.93 1.06 6-1-42.19-21.84-81.04-37.37-130-39-48.96-1.63-95.59 10.03-138 31Z"/>
  <path fill="none" fill-opacity="0" stroke="#422E4C" stroke-width=".3" d="M210 49c-25.06 12.39-47.67 28.67-68 49-.44 2.71 1.91 3.52 2 6-5.29-3.79-11.92 4.37-15.75 9.25-3.82 4.88-8.99 12.35-10.25 18.75-7.58-1.68-6.73 12.38-14 13 1.59 6.37-6.14 8.35-5 15-13.61 13.21-19.04 31.02-25.97 50.03S61.66 249.82 60 272c-1.66 22.18-1.28 51.44 1 74v1c-.53 7.97 3.05 16.07-3.32 22.68-6.37 6.61-6.34 12.46-10 20-3.66 7.54-4.79 17.8-4.68 26.32.11 8.52 1.38 16.9 6.31 23.7 4.92 6.79 9.86 10.05 16.92 14.07 7.06 4.02 14.21 6.11 22.78 7.22 8.57 1.12 20.17 1.64 28.99.01 5.78 12.82 19.99 21.59 26 34-8.8 1.52-19.59 2.67-28.02 4.98-8.44 2.31-23.15.35-20.98 12.02-12.34-8.71-24.71-.65-38.67 1.33s-22.67 7.11-33.08 17.92C12.84 542.06 10.72 554.03 12 570c1.28 15.97-.4 34.89 0 51s-3.46 30.8 9.75 40.25 22.9 7.08 36.48.98C71.81 656.12 85.56 660.71 95 648c5.59 5.58 17.93-.08 26.07-1.93 8.14-1.84 20.05-1.73 24.93-9.07 10.16 5.59 23.64-1.07 36.01-1.99 12.36-.92 26.56-3.45 39.01-4.99 12.46-1.53 28.2 1.1 37.98-6.02 5.05 2.73 12.56 2.07 19 2 6.44-.07 13.77-.61 20-1s15.97 2.53 18-3c13.5 7.04 30.01.25 45 4 14.99 3.75 23.57-9.06 35-15v16c7.64-.3 9.32.06 17.22.78 7.9.72 6.94.52 16.78 1.22s23.36 1.33 33.02 2.98c9.67 1.64 6.75 2.41 15.99 2.01 9.24-.39 24.33 7.34 27.99-1.99 3.64 10.69 15.34 7.14 24.01 9.99 8.66 2.85 19.2 3.06 28.06 5.94 8.86 2.87 14.98-8.55 23.93-8.93v14c19.39 3.58 37.73 10.82 57 15v-93c6.71 1.45 13.24 3.64 20 5 .78-10.78-1.05-23.4 0-34 1.05-10.6 1.14-23.04-10.22-23.78-11.36-.73-17.22-4.92-26.85-7.15-9.64-2.22-18.99-4.55-27.94-6.06-8.95-1.52-20.5-8.77-24.99-1.01-8.54-10.36-22.25-9.2-34-12 1.14-2.82 3.35-5.46 6-7 5.73-5.73 10.75-11.89 15.92-18.08 5.17-6.2 9.01-13.43 13.85-20.15 4.84-6.72 8.23-14.15 12.53-21.47 4.3-7.31 7.95-14.68 11.02-22.98 3.07-8.3 7.13-16.54 9.6-25.4 2.48-8.85 4.96-17.61 7.01-26.99 2.04-9.38 2.87-19.96 4.07-29.93 1.2-9.97 1.42-22.54 1-33-.42-10.46-.06-23.1-2-33-1.94-9.9-2.64-18.78-5.98-28.02-3.33-9.25-2.58-17.3-8-26-5.41-8.71.3-12.91 6.68-19.28 6.39-6.36 10.01-11.96 15.07-18.93 5.06-6.97 9.56-13.54 14-21 4.44-7.46 7.5-15.27 10.16-23.84 2.65-8.57 3.13-21.48.29-30.15-2.84-8.67-7.68-13.35-14.92-19.08-7.24-5.73-15.01-8.85-24.52-10.48-9.51-1.62-21.85-1.57-31.78-.22s-19.89 1.24-29.67 4.33c-9.78 3.08-17.34 1.95-27.34 6.66S504.09 73.85 495 69c-2.8.35-14.98-8.54-16-11-.14-.34-.67-.83-1-1-1.07 2.06-4.12.53-6 1-8.31-7.63-18.64-13.09-30.32-16.68s-22.41-10.74-34.66-12.34C394.78 27.37 381.68 22.22 369 21c-12.68-1.22-32.04-3.14-45-2-12.96 1.14-25.7 4.17-39 6s-25.22 4.78-35 11c-6.64-.53-15.5.92-18 7-7.44-1.02-15.63 4.62-22 6m137-13c49.99 0 97.89 19.32 138 47-5.78 1.73-11.04 4.95-17 6-10.2 4-19.37 7.38-29.69 12.31-10.33 4.92-19.79 6.1-30 13-10.22 6.89-19.61 5.43-31.31 1.69-.45-.14-1 0-1 0-6.26 4.64-18.72-2.57-27-1-8.28 1.57-19.85-1.77-28 1-8.15 2.76-17.3 2.14-25.02 4.98-7.73 2.84-13.88 7.31-21.2 9.8-7.33 2.48-13.32 6.17-19.48 10.52-6.15 4.35-12 8.32-17 14-5.01 5.67-8.85 8.83-14.05 13.95-5.19 5.12-8.07 12.55-11.44 18-3.37 5.45-11 13.16-9.81 20.75-6.53 1.74-3.99 12.78-8 18-.83-.41-1.87-.97-2-2-.28.66-.74.99-1 2 2.05 19.64-17.73 28.71-30.69 38.31-12.97 9.59-25.41 20.29-38.01 30.99-12.59 10.71-20.95 24.42-34.3 32.7-.99 1.15-2.95 1.99-4 3-2.29 2.9-4.96 5.95-8 8C49.56 189.61 176.18 37.07 327 36c6.29-.61 13.77-.6 20 0m116 251c-3.35 4.69-10.42 7.6-15 11-1.8 2.52-4.64 3.46-7 5-20.85 13.59-38.51 26.37-60.7 39.3-22.18 12.94-42.67 25.54-65.99 37.01-23.33 11.46-44.73 22.78-70 32-25.28 9.21-49.56 20.48-77.38 25.62-27.83 5.13-60.03 15.34-90 4.14C46.95 429.88 63.92 391.72 76 373c1.4-2.18 2.91-5.62 4-8 6.4-14 17.7-23.25 25-36 9.96-4.29 14.92-15.67 24.3-21.7 9.37-6.04 14.22-17.91 25.7-20.3 7.48-8.82 18.21-19.18 30-22-.56 2.52 1.19 6.3-1 8-.05.5 0 1 0 1 0 12.55-1.77 19.36-12.25 25.75-10.48 6.39-11.8 13.21-19.52 20.48-7.72 7.27-11.27 15.09-16.15 23.85-4.89 8.75-8.8 22.44-1.77 31.62 7.02 9.17 19.62 9.48 30.69 9.3 11.07-.18 24.52-2.34 35.02-4.98 10.51-2.63 20.94-5.69 31-9 10.07-3.3 19.57-7.1 29.2-10.8 9.64-3.7 18.81-7.78 28-12 9.2-4.21 17.92-8.71 26.86-13.14 8.93-4.44 17.6-8.95 26.15-13.85 8.55-4.91 16.99-9.56 25.47-14.53 8.47-4.98 17.2-10.33 25.38-15.62 8.18-5.29 16.17-10.46 24.15-15.85 7.98-5.39 15.71-10.94 23.47-16.53 7.76-5.59 14.9-11.8 22.55-17.45 7.64-5.66 14.7-11.81 22-18 7.3-6.19 14.46-11.8 21.5-18.5 7.05-6.7 13.19-13.09 19.55-20.45 6.36-7.35 12.3-14.22 17.01-23 4.7-8.77 10.97-20.12 6.37-30.98-4.6-10.85-16.5-12.86-27.68-12.32-11.18.54-23.64 2.8-34.22 5.78-10.59 2.97-20.18 5.75-30.46 9.54-10.28 3.79-19.5 9.71-29.32 3.68-1.46-.9-2.75-2.18-4-3-2.11-1.38-4.6-2.44-7-3 18.89-11.9 42.26-20.04 64.07-27.93 21.82-7.88 48.38-17.98 71-22 22.62-4.02 60.34-11.52 76.23 8.63s-5.36 48.71-17.07 65.53-29.04 33.52-44.48 48.52c-15.43 15.01-32.85 29.62-49.5 43.5C499.6 261.12 480.56 274.32 463 287m-93-2c-13.77 8.53-26.04 14.25-40.08 22.92-14.05 8.67-27.66 12.36-42.15 21.85-14.49 9.49-25.83-5.91-34.77-18.77 13.88.83 26.91-1.59 40-4 3.85-1.3 6.5-2.39 11-3 1.84-.25 3.21-.59 5-1 2.55-.91 5.09-2.26 8-3 17-4.34 33.62-11.7 49-20 6.2-3.35 12.95-6.48 19-10 .01-.04-1.1-2.04-1-2-6.98 3.45-14.99 5.53-22 9-2.64 1.31-4.91 3.16-8 4-16.27 4.41-31.39 11.13-48.22 13.78-16.83 2.64-40.53 6.05-57.45 1.89C231.4 292.52 233.44 266.3 229 253c21.58 2.12 43.65.64 64-5 36.72-8.96 72.7-27.69 100-55-1.11-.11-1.47-1.84-2-2-31.68 23.56-67.44 36.74-106 43-4.92.8-10.24 1.5-15.67 2.33-5.43.83-11.74.85-17.33 1.67-5.59.82-13.16-1.91-18.02-.98-4.86.94-13.44-3.87-16.98-2.02-5.24 14.19-8 29.42-8 45v13c0 15.75 4.66 30.37 9 45-9.62-15.42-14.44-34.26-15-53-.58-5.98-.57-13.09 0-19 0-12.91 3.72-27.6 7.92-39.08 4.21-11.47 8.39-22.16 14.85-32.15 6.46-9.99 12.52-17.5 20.98-26.02 8.47-8.52 16.2-14.31 26.5-20.5 10.29-6.2 21.34-10.26 33.42-13.58 12.08-3.32 29.02-5.15 42.33-4.67 13.31.48 26.91 4.14 39.07 7.93 12.17 3.78 20.52 9.3 31.18 15.82 10.65 6.53 16.59 12.14 25.52 21.48 8.93 9.35 11.77 16.01 20 27 8.23 10.99-1.45 18.24-11.47 25.07-10.01 6.84-16.94 13.83-26.55 20.45-9.61 6.63-18.22 12.86-27.83 19.17-9.61 6.31-19.21 12.07-28.92 18.08m114-84c-6.68-18.52-22.25-32.54-34-48 11.79-5.56 19.27-6.31 32.02-10.98 12.76-4.66 21.12-4.68 35.99-8.01 14.86-3.33 17.84 12.83 9.07 22.07-8.78 9.23-11.2 16.16-19.83 24.17-8.63 8-13.74 15.12-23.25 20.75m115 87c.58 5.98.57 13.09 0 19 0 72.8-35.61 145.01-93 190 1.22-5.63-.63-9.8-7-8-7.71-.86-15.17-2.45-23-3-7.84-.54-16.11-1.66-24-2-7.89-.34-16.18-1.93-24-2-7.82-.07-17.45-1.58-25-1-7.55.58-20.02-5.22-22 3-8.66-6.14-21.13-5.7-32.01-5.99-10.87-.29-25.02-2.93-32.99 4.99.71-8.35-11.58-4.6-18-5-6.42-.4-15.46.86-22 1-6.54.14-18.57-1.3-16 8-10.12-9-23.15-4.8-36-4-12.85.8-26.98 3.21-40 4-5.17.64-9.98 1.08-8 8-13.81-9.43-26.3-23.18-37-36 4.4-.33 8.41-2.28 13-2 15.56-2.31 32.16-7.8 48.23-12.77 16.07-4.98 32.04-9.25 47.79-16.21 15.76-6.95 27.57 7.91 44.05 11.91 16.49 4 39.28 8.54 56.93 7.07 17.65-1.47 36.75-5.72 52.22-11.78 15.47-6.05 28.06-13.68 41.03-22.97 12.97-9.3 21.67-21.02 30.75-33.25.8-1.07 2.35-2.1 3-3 5.31-7.41 7.92-15.48 12.31-23.69 4.38-8.22 7.32-16.98 9.67-26.33 2.34-9.36 6.41-20.69 6.02-30.98-.39-10.29 1.79-20.46 10.75-25.25 8.96-4.8 12.82-11.19 20.33-16.67 7.52-5.47 12.28-11.17 19.17-16.83 6.89-5.67 13.43-10.93 19.75-17.25 3.16-3.16 6.35-6.32 10-9 9.35 24.78 15.2 50.66 15 78m-175 89c-7.71 4.48-15.57 7.89-24 11-.99 1.12-4.96 3.03-6 1 2.25.14 3.71-2.16 6-2 6.7-2.47 14.13-8.95 21-10 23.05-14.87 42.5-38.84 52-64-11.4 16.47-25.44 34.32-43 45-21.2 17.41-51.84 22.8-79 21 15.93-9.46 32.43-19.37 49-28 29.57-17.56 57.49-39.56 86-59-2.09 45.93-28.63 89.6-68 114 15.77-14.56 32.02-30.32 40-50-12.92 3.95-21.61 15.83-34 21m-236-69c2.6 18.63 11.03 35.85 20 52-17.24 6.21-27.85 8.86-48 9-20.15.14-10.2-21.79-.75-31.75S175.22 314.17 188 308m111 189c2.87 4.1-1.23 12.71 0 18 1.23 5.29-.58 13.24 0 19s-.25 12 0 18-.12 12.9 0 19-.06 11.84 0 18-.05 12.79 0 19c-7.27-.73-13.86 1.14-21 1V497h4c2.67-.94 14.95-2.93 17 0m69 0c3.77 1.39 6.89 5.34 10 8 3.08 2.63 5.56 6.8 4 11-1.56 4.2 2.63 11.46-1 14-4.7 3.29-15.73-2.47-21 0v-15c-7.93.72-15.08-1.61-23-1-2.95 10.93 1.83 19.23 11.08 22.92 9.25 3.69 11.35 9.54 20.17 13.83 8.82 4.3 14.96 10.36 12.75 21.25-2.21 10.89 3.71 21.33-4.25 29.75-7.96 8.43-16.44 7.99-27.75 7.25-4.74 0-10.01-.61-14-1-9.31 0-8.77-2.47-15.75-8.25-6.98-5.77-4.67-9.48-5.25-19.75-.58-10.27 4.88-8.47 15-9 10.12-.53 8.4 8.23 8 17h22v-8c-.19-2 .02-9.95-1-12-4.24-5.88-15.65-6.86-21.08-11.92-5.42-5.07-13.5-8.71-18.92-14.08-5.18-5.13-5.08-28.41-2-35 7.05-15.07 27.5-11 41-11 3.9 0 7.8-.18 11 1m88 5v18c-7.05-.19-14.32.65-21-1v93c-7.04-2.47-22.3 3.22-22-7 .3-10.22-.14-19.08 0-29 .14-9.92-.07-19.2 0-29s-.05-19.23 0-29c-7.18.41-13.72-1.76-21-1v-19c21.47.78 42.78 2.19 64 4M194 615c-2.82-4.2 1.15-12.65 0-18s.43-13.18 0-19 0-13.05 0-19c-1.43-14.76-1.42-32.31 0-47 0-12.03 12.51-10.34 23.01-10.99 10.5-.66 21.32-3.73 31.24-.26 9.91 3.48 12.91 13.28 11.75 23.25-1.16 9.97 2.51 20.88-8 27 15.23 5.98 7.21 24.68 9 38s-10.99 23.63-24.01 22.99c-13.01-.64-30.66 4.32-42.99 3.01m294-110v112c-7.3.55-13.78-2.14-21-2V503c7.2-.12 13.97 1.38 21 2m-314 12c6.78 6.2 2.94 26.83 2 35 .01 4.95-3.13 8.91-8 12 17.78 12.16-.74 39.77 15 54-8.17.2-11.78 1.54-20.07 2.93-8.3 1.38-7.09-10.07-7.93-15.93-.84-5.86 2.35-18.79 0-24-2.35-5.21-12.42.81-18.01.99-5.58.18-4.06 13.95-3.99 20.01.07 6.06-.05 17.45 0 24-6.1 2.18-12.49 3.31-19 4-.22-.01-2.08 1.91-3 1 .5-18.75-.67-38.33 0-57s-2.17-39 2-56c5.63-3.82 15.64-1.12 22.01-3.99 6.36-2.88 15.43-1.58 22-4 6.57-2.43 12.25 2.65 16.99 6.99m353 14c-1.99 1.31-1.83 14.49-1 17 3.55 7.03 12.62 9.52 19.25 14.75 6.62 5.24 11.09 9.98 19 16 7.9 6.03 6.36 16.95 6.75 27.25.39 10.3-.21 21.1-11.23 23.77-11.02 2.67-16.77-3.61-27.77-3.77-11-.16-15.18-4.94-22.75-12.25-7.58-7.3-5.13-19.4-5.25-29.75 7.49.68 15.02 1.32 22 4 .99 5.14-2.99 16.33 4.03 16.97 7.01.65 11.98 2.81 18.97 3.03 3.34-12.96-2.52-22.39-13.25-27.75-10.72-5.37-13.71-10.97-23.5-18.5-9.8-7.53-7.57-22.97-7.25-34.75.32-11.78 12.13-17.57 23.22-14.22 11.09 3.35 22.67 1.38 32.53 9.47S571.78 542.14 570 555c-7.73-2.44-24.04.9-21-12 3.04-12.9-14.2-9.21-22-12m75 110c-5.57-3.63-.67-15.42-2-22s1.01-17.95 0-25c-1.01-7.05 1.35-18.32 0-25s3.51-19.22-2-23c-4.91-2.37-11.65-1.84-17-3v-19c21.08 3.4 41.63 8.96 62 15v18c-7.3-.5-13.92-3.56-21-5v94c-6.84-.94-12.97-4.62-20-5M94 535c3.87 7.66.38 19.89 1 29s.6 21.8 0 31 2.68 22.12-1 30c-5.88 12.56-16.88 15.99-29.02 18.98-12.15 2.98-24.36 11.4-34.98.02-5.76-6.17-1.1-20.02-2-29-.9-8.98-.28-22.57 0-32s-2.1-22.6 1-31c4.55-12.33 17.35-18.88 29.07-20.93C69.8 529.02 86.59 520.35 94 535Z"/>
  <path fill="none" fill-opacity="0" stroke="#9E8EA2" stroke-width=".3" d="M327 36h20c-6.23-.6-13.71-.61-20 0Z"/>
  <path fill="none" fill-opacity="0" stroke="#F4F6F8" stroke-width=".3" d="M85 331c8.54-10.82-.61-32.68 2.78-46.22 3.39-13.54 2.53-31.29 6.55-44.45 4.02-13.16 7.95-26.5 13.44-38.56 5.49-12.06 9.88-23.33 17-34 7.12-10.67 13.64-20.64 21.98-30.02 8.35-9.37 15.56-17.68 25-26 9.45-8.32 18.44-14.96 28.95-22.05 10.5-7.09 21.68-12.86 33.53-18.47 11.85-5.62 24.3-10.03 37.46-13.54C284.86 54.19 301.65 50 316 50c.97-.17 2.45-.93 4-1 5.54-.98 11.86-.4 18-1 6.14-.6 13.01 1.16 17 2 26.16.52 54.24 7.75 77 19 2.09 1.03 5.05 2.15 7 3 4.76 2.08 10.42 6.23 15.25 7.75 4.82 1.53 9.72 8.22 13.75 9.25 5.96-1.05 11.22-4.27 17-6-40.11-27.68-88.01-47-138-47h-20C176.18 37.07 49.56 189.61 77 339c3.04-2.05 5.71-5.1 8-8Z"/>
  <path fill="none" fill-opacity="0" stroke="#D2EEF7" stroke-width=".3" d="M320 49c1.66-.08 3.34 0 5 0 10.18 0 20.1.8 30 1-3.99-.84-10.86-2.6-17-2-6.14.6-12.46.02-18 1Z"/>
  <path fill="none" fill-opacity="0" stroke="#90B7CD" stroke-width=".3" d="M316 50c3.1 0 6.64-.77 9-1-1.66 0-3.34-.08-5 0-1.55.07-3.03.83-4 1Z"/>
  <path fill="none" fill-opacity="0" stroke="#5190B8" stroke-width=".3" d="M316 50c-14.35 0-31.14 4.19-44.31 7.69-13.16 3.51-25.61 7.92-37.46 13.54-11.85 5.61-23.03 11.38-33.53 18.47-10.51 7.09-19.5 13.73-28.95 22.05-9.44 8.32-16.65 16.63-25 26-8.34 9.38-14.86 19.35-21.98 30.02-7.12 10.67-11.51 21.94-17 34-5.49 12.06-9.42 25.4-13.44 38.56-4.02 13.16-3.16 30.91-6.55 44.45-3.39 13.54 5.76 35.4-2.78 46.22 1.05-1.01 3.01-1.85 4-3 .92-1.07 1.93-3.65 3-5 5.15-6.52 11.36-11.36 17-17 22.04-25.8 52.25-43.99 79-63-.3-6.1 3.25-11.14 4-17 .26-1.01.72-1.34 1-2 14.26-33.42 28.94-63.29 61.75-84.25 32.8-20.97 77.26-34.96 118.25-24.75 5.6-1.23 9.05-9.39 12.75-13.25 3.71-3.85 9.62-8.48 13-13 3.37-4.53 10.28-7.99 13.5-12.5 3.22-4.51 20.28-2.4 19.75-7.25-22.76-11.25-50.84-18.48-77-19-9.9-.2-19.82-1-30-1-2.36.23-5.9 1-9 1Z"/>
  <path fill="none" fill-opacity="0" stroke="#BCB1C8" stroke-width=".3" d="M576 51c6.29-.34 12.7 0 19 0-5.94-.57-12.94-.98-19 0Z"/>
  <path fill="none" fill-opacity="0" stroke="#7D6894" stroke-width=".3" d="M506 65c-.95 2.48-2.55 1.95-3 4-2.9-1.54-5.33.3-8-1 .25.22 0 1 0 1 9.09 4.85 13.99 7.7 23.99 2.99 10-4.71 17.56-3.58 27.34-6.66 9.78-3.09 19.74-2.98 29.67-4.33 9.93-1.35 22.27-1.4 31.78.22 9.51 1.63 17.28 4.75 24.52 10.48 7.24 5.73 12.08 10.41 14.92 19.08 2.84 8.67 2.36 21.58-.29 30.15-2.66 8.57-5.72 16.38-10.16 23.84-4.44 7.46-8.94 14.03-14 21-5.06 6.97-8.68 12.57-15.07 18.93-6.38 6.37-12.09 10.57-6.68 19.28 5.42 8.7 4.67 16.75 8 26 3.34 9.24 4.04 18.12 5.98 28.02 1.94 9.9 1.58 22.54 2 33 .42 10.46.2 23.03-1 33-1.2 9.97-2.03 20.55-4.07 29.93-2.05 9.38-4.53 18.14-7.01 26.99-2.47 8.86-6.53 17.1-9.6 25.4-3.07 8.3-6.72 15.67-11.02 22.98-4.3 7.32-7.69 14.75-12.53 21.47-4.84 6.72-8.68 13.95-13.85 20.15-5.17 6.19-10.19 12.35-15.92 18.08-.9.49 7.17-2.74 9-5 1.87 3.54 5.43 2.65 7 2 8.12-8.7 14.27-17.9 21.08-27.92 6.81-10.02 12.41-19.76 18-31 5.58-11.25 10.07-22.42 14.15-34.85s8.22-24.92 10.44-38.56c2.22-13.64 4.98-29.13 5.33-43.67.35-14.54.24-33.16-2-47-2.25-13.83-4.08-28.17-8.02-40.98-3.95-12.81-11.04-24.18-.23-33.27 10.82-9.09 13.23-17.53 21.33-27.67 8.11-10.14 11.93-20.48 16.6-32.4 4.67-11.92 5.61-29.58 1.25-41.61-4.37-12.03-11.31-19.92-22.24-26.76C622.77 53.46 608.11 51 595 51c-6.3 0-12.71-.34-19 0-11.77.64-25.26 2.48-36.33 5.67-11.06 3.19-23.31 3.82-33.67 8.33Z"/>
  <path fill="none" fill-opacity="0" stroke="#394369" stroke-width=".3" d="M495 69s.25-.78 0-1c-4.77-4.17-10.79-6.57-16-10 1.02 2.46 13.2 11.35 16 11Z"/>
  <path fill="none" fill-opacity="0" stroke="#757AA5" stroke-width=".3" d="M373 115c.89.22 1.47 1.18 3 1 0 0 .55-.14 1 0 2.08-6.45 12.68-12.38 16.3-18.7 3.62-6.31 12.52-11.8 17.78-17.22 5.27-5.41 20.62-8.62 27.92-8.08-1.95-.85-4.91-1.97-7-3 .53 4.85-16.53 2.74-19.75 7.25-3.22 4.51-10.13 7.97-13.5 12.5-3.38 4.52-9.29 9.15-13 13-3.7 3.86-7.15 12.02-12.75 13.25Z"/>
  <path fill="none" fill-opacity="0" stroke="#946897" stroke-width=".3" d="M377 116c11.7 3.74 21.09 5.2 31.31-1.69 10.21-6.9 19.67-8.08 30-13C448.63 96.38 457.8 93 468 89c-4.03-1.03-8.93-7.72-13.75-9.25-4.83-1.52-10.49-5.67-15.25-7.75-7.3-.54-22.65 2.67-27.92 8.08-5.26 5.42-14.16 10.91-17.78 17.22-3.62 6.32-14.22 12.25-16.3 18.7Z"/>
  <path fill="none" fill-opacity="0" stroke="#F6F6F8" stroke-width=".3" d="M423 134c7.74.8 14.53-6.57 22.22-7.78 7.7-1.21 15.68-5.69 23.46-7.54 7.77-1.86 16.09-6.06 24.32-6.68 2.48-2.8 8.33-2.84 12-3-3.24 2.57-8.23 2.06-12 4-22.21 6.37-46.34 14.07-66 24 9.82 6.03 19.04.11 29.32-3.68 10.28-3.79 19.87-6.57 30.46-9.54 10.58-2.98 23.04-5.24 34.22-5.78s23.08 1.47 27.68 12.32c4.6 10.86-1.67 22.21-6.37 30.98-4.71 8.78-10.65 15.65-17.01 23-6.36 7.36-12.5 13.75-19.55 20.45-7.04 6.7-14.2 12.31-21.5 18.5-7.3 6.19-14.36 12.34-22 18-7.65 5.65-14.79 11.86-22.55 17.45-7.76 5.59-15.49 11.14-23.47 16.53-7.98 5.39-15.97 10.56-24.15 15.85-8.18 5.29-16.91 10.64-25.38 15.62-8.48 4.97-16.92 9.62-25.47 14.53-8.55 4.9-17.22 9.41-26.15 13.85-8.94 4.43-17.66 8.93-26.86 13.14-9.19 4.22-18.36 8.3-28 12-9.63 3.7-19.13 7.5-29.2 10.8-10.06 3.31-20.49 6.37-31 9-10.5 2.64-23.95 4.8-35.02 4.98-11.07.18-23.67-.13-30.69-9.3-7.03-9.18-3.12-22.87 1.77-31.62 4.88-8.76 8.43-16.58 16.15-23.85 7.72-7.27 9.04-14.09 19.52-20.48C182.23 293.36 184 286.55 184 274c-14.83 7.92-28.1 20.62-40.25 32.75C131.6 318.88 117.92 332.48 110 347c-.58 1.07-1.51 3.01-2 4-8.97 18-17.15 50.5 6.25 61.75 23.4 11.26 50.8 5.3 74.75.25-.19-.02-.65-.96-1-1-21.61 4.48-44.35 5.15-65.68-1.32-21.33-6.48-21.2-32.44-12.4-48.76 8.8-16.31 19-28.78 31.08-42.92 4.88-5.71 10.57-10.93 16-16 4.46-4.16 9.02-9.11 14-12-6.76 7.92-15.1 15.73-23 23-1.19 1.39-2.89 2.73-4 4-12.7 14.57-17.03 23.46-22 43-4.97 19.54 14.69 30 33 30h10c39.02 0 80.79-17.98 116.22-29.78 35.44-11.8 67.35-29.61 100.03-45.97 32.67-16.36 61.26-35.54 91.98-54.02 30.72-18.48 54.18-41.61 82.77-63.23l20-20c1.28-1.5 2.17-3.11 4-4 2.59-2.59 4.74-6.18 8-8-.68 3.4-4.44 5.9-7 8-6.07 6.07-12.35 13.39-18 20-14.47 16.93-31.39 32.35-47.75 47.25-16.36 14.9-33.13 31.32-51.25 43.75-.47.57-.6 1.45-1 2 17.56-12.68 36.6-25.88 53.25-39.75 16.65-13.88 34.07-28.49 49.5-43.5 15.44-15 32.77-31.7 44.48-48.52 11.71-16.82 32.96-45.38 17.07-65.53s-53.61-12.65-76.23-8.63c-22.62 4.02-49.18 14.12-71 22-21.81 7.89-45.18 16.03-64.07 27.93 2.4.56 4.89 1.62 7 3Z"/>
  <path fill="none" fill-opacity="0" stroke="#343658" stroke-width=".3" d="M57 325c.56 5.77 1.19 15.86 4 21-2.28-22.56-2.66-51.82-1-74 1.66-22.18 6.1-42.96 13.03-61.97C79.96 191.02 85.39 173.21 99 160c-1.14-6.65 6.59-8.63 5-15 7.27-.62 6.42-14.68 14-13 1.26-6.4 6.43-13.87 10.25-18.75 3.83-4.88 10.46-13.04 15.75-9.25-.09-2.48-2.44-3.29-2-6-19.5 19.5-32.17 35.07-46.23 58.77-14.06 23.7-22.6 46.48-30.84 74.16C56.69 258.6 57 294.83 57 325Z"/>
  <path fill="none" fill-opacity="0" stroke="#B4B6BD" stroke-width=".3" d="M493 112c-.25.28 0 1 0 1 3.77-1.94 8.76-1.43 12-4-3.67.16-9.52.2-12 3Z"/>
  <path fill="none" fill-opacity="0" stroke="#728595" stroke-width=".3" d="M423 134c1.25.82 2.54 2.1 4 3 19.66-9.93 43.79-17.63 66-24 0 0-.25-.72 0-1-8.23.62-16.55 4.82-24.32 6.68-7.78 1.85-15.76 6.33-23.46 7.54-7.69 1.21-14.48 8.58-22.22 7.78Z"/>
  <path fill="none" fill-opacity="0" stroke="#333559" stroke-width=".3" d="M193 224c.13 1.03 1.17 1.59 2 2 4.01-5.22 1.47-16.26 8-18-1.19-7.59 6.44-15.3 9.81-20.75 3.37-5.45 6.25-12.88 11.44-18 5.2-5.12 9.04-8.28 14.05-13.95 5-5.68 10.85-9.65 17-14 6.16-4.35 12.15-8.04 19.48-10.52 7.32-2.49 13.47-6.96 21.2-9.8 7.72-2.84 16.87-2.22 25.02-4.98 8.15-2.77 19.72.57 28-1 8.28-1.57 20.74 5.64 27 1-1.53.18-2.11-.78-3-1-40.99-10.21-85.45 3.78-118.25 24.75-32.81 20.96-47.49 50.83-61.75 84.25Z"/>
  <path fill="none" fill-opacity="0" stroke="#F9F8F9" stroke-width=".3" d="M203 266v19c.56 18.74 5.38 37.58 15 53-4.34-14.63-9-29.25-9-45-.4-4.09-.39-8.98 0-13 0-15.58 2.76-30.81 8-45 5.53-14.99 12.62-29.13 22-42 1.77-2.42 4.07-5.4 6-8 7.44-10.01 17.24-19.33 28-25-4.57 8.89-5.59 18.9-6 29 27.68 3.95 55.32-4.3 80-15-22.74 15.47-50.74 23.61-79 24 .57 6.09 2.37 15.57 5.32 20.68 2.95 5.1 5.54 14.09 11.68 15.32 38.56-6.26 74.32-19.44 106-43 8.71-6.48 15.77-16.33 23-24-5.27 9.44-12.63 18.61-21 26-27.3 27.31-63.28 46.04-100 55 18.66 16.12 44.53 17.83 66 28 .43.2 2.46.96 3 1 7.01-3.47 15.02-5.55 22-9 7.84-3.88 16.35-8.64 24-13 1.52-.86 3.07-2.49 5-3-.15 2.84-4.27 3.05-6 5-7.29 4.51-14.61 8.7-22 13-6.05 3.52-12.8 6.65-19 10 .09 1.96 4.22 3.08 4 5 9.71-6.01 19.31-11.77 28.92-18.08 9.61-6.31 18.22-12.54 27.83-19.17 9.61-6.62 16.54-13.61 26.55-20.45 10.02-6.83 19.7-14.08 11.47-25.07-8.23-10.99-11.07-17.65-20-27-8.93-9.34-14.87-14.95-25.52-21.48-10.66-6.52-19.01-12.04-31.18-15.82-12.16-3.79-25.76-7.45-39.07-7.93-13.31-.48-30.25 1.35-42.33 4.67-12.08 3.32-23.13 7.38-33.42 13.58-10.3 6.19-18.03 11.98-26.5 20.5-8.46 8.52-14.52 16.03-20.98 26.02-6.46 9.99-10.64 20.68-14.85 32.15-4.2 11.48-7.92 26.17-7.92 39.08Z"/>
  <path fill="none" fill-opacity="0" stroke="#A66994" stroke-width=".3" d="M484 201c9.51-5.63 14.62-12.75 23.25-20.75 8.63-8.01 11.05-14.94 19.83-24.17 8.77-9.24 5.79-25.4-9.07-22.07-14.87 3.33-23.23 3.35-35.99 8.01-12.75 4.67-20.23 5.42-32.02 10.98 11.75 15.46 27.32 29.48 34 48Z"/>
  <path fill="none" fill-opacity="0" stroke="#5B8BAF" stroke-width=".3" d="M245 185c3.61-1.72 17.12 3.3 22 4 .41-10.1 1.43-20.11 6-29-10.76 5.67-20.56 14.99-28 25Z"/>
  <path fill="none" fill-opacity="0" stroke="#B0AFB2" stroke-width=".3" d="M580 174c.4-.2 1 0 1 0 2.56-2.1 6.32-4.6 7-8-3.26 1.82-5.41 5.41-8 8Z"/>
  <path fill="none" fill-opacity="0" stroke="#423B46" stroke-width=".3" d="M391 191c.53.16.89 1.89 2 2 8.37-7.39 15.73-16.56 21-26-7.23 7.67-14.29 17.52-23 24Z"/>
  <path fill="none" fill-opacity="0" stroke="#3F314D" stroke-width=".3" d="M267 189c-4.88-.7-18.39-5.72-22-4-1.93 2.6-4.23 5.58-6 8 3.62-.8 9.6 3.04 14 3 4.4-.05 10.06 2 15 2 28.26-.39 56.26-8.53 79-24-24.68 10.7-52.32 18.95-80 15Z"/>
  <path fill="none" fill-opacity="0" stroke="#686676" stroke-width=".3" d="M576 178c-5.18 6.06-11.19 12.67-17 18 .23-.13 2.8-.89 4-2 5.65-6.61 11.93-13.93 18-20 0 0-.6-.2-1 0-1.83.89-2.72 2.5-4 4Z"/>
  <path fill="none" fill-opacity="0" stroke="#B7B4C5" stroke-width=".3" d="M556 198c.89-.67 2.23-1.29 3-2 5.81-5.33 11.82-11.94 17-18l-20 20Z"/>
  <path fill="none" fill-opacity="0" stroke="#548EB5" stroke-width=".3" d="M217 235c3.54-1.85 12.12 2.96 16.98 2.02 4.86-.93 12.43 1.8 18.02.98 5.59-.82 11.9-.84 17.33-1.67 5.43-.83 10.75-1.53 15.67-2.33-6.14-1.23-8.73-10.22-11.68-15.32-2.95-5.11-4.75-14.59-5.32-20.68-4.94 0-10.6-2.05-15-2-4.4.04-10.38-3.8-14-3-9.38 12.87-16.47 27.01-22 42Z"/>
  <path fill="none" fill-opacity="0" stroke="#656895" stroke-width=".3" d="M559 196c-.77.71-2.11 1.33-3 2-28.59 21.62-52.05 44.75-82.77 63.23-30.72 18.48-59.31 37.66-91.98 54.02-32.68 16.36-64.59 34.17-100.03 45.97C245.79 373.02 204.02 391 165 391c-3.14.3-6.92.3-10 0-18.31 0-37.97-10.46-33-30 4.97-19.54 9.3-28.43 22-43-.88.42-2.1.35-3 1-12.08 14.14-22.28 26.61-31.08 42.92-8.8 16.32-8.93 42.28 12.4 48.76 21.33 6.47 44.07 5.8 65.68 1.32 3.32-.69 9.01-3.27 12-2-3.52 1.52-7.34 1.89-11 3-23.95 5.05-51.35 11.01-74.75-.25C90.85 401.5 99.03 369 108 351c-1.52 1.8-2.6 3.49-4 1-6.41 9.01-19.04 13.12-25 23-1.25-.3-1.71-1.83-3-2-12.08 18.72-29.05 56.88.93 68.07 29.97 11.2 62.17.99 90-4.14 27.82-5.14 52.1-16.41 77.38-25.62 25.27-9.22 46.67-20.54 70-32 23.32-11.47 43.81-24.07 65.99-37.01 22.19-12.93 39.85-25.71 60.7-39.3 2.68-2.5 4.94-4.9 8-7 5.13-3.52 9.9-7.5 15-11 18.12-12.43 34.89-28.85 51.25-43.75 16.36-14.9 33.28-30.32 47.75-47.25-1.2 1.11-3.77 1.87-4 2M392 319c-33.95 17.35-61.42 34.08-97.23 48.77C258.96 382.46 217.6 393.17 178 397c-1.88 1.94-8.09 1.43-10 0 3.61.71 6.49-1.23 10-1 75.69-11.06 146.11-44.43 214-78 3.51-3.92 10.44-5.89 15-8-4.35 3.92-9.84 6.15-15 9Z"/>
  <path fill="none" fill-opacity="0" stroke="#F7F5F8" stroke-width=".3" d="M574 219c10.17 14.41 9.74 33.24 12 51 2.44-2.4 2.14 6.26 2.93 11.07.78 4.82-.87 11.44-.93 16.93-.05 5.49-.77 13.23-1 19-.23 5.77-.05 13.45-1 19-.95 5.55-4.5 10.58-5 16-5.98 18.17-10.63 35.89-19 53-.59 1.21-1.46 2.92-2 4-14.82 29.76-36.42 56.86-61 80 6.37-1.8 8.22 2.37 7 8 57.39-44.99 93-117.2 93-190v-19c.2-27.34-5.65-53.22-15-78-3.65 2.68-6.84 5.84-10 9Z"/>
  <path fill="none" fill-opacity="0" stroke="#A96B96" stroke-width=".3" d="M476 376c4.88-.73 8.84 7.53 14.08 9.92 5.23 2.39 14.03 4.7 20.92 4.08 6.89-.62 13.34-5.5 19.23 2.77 5.89 8.27 23.28 21.03 31.77 12.23 8.37-17.11 13.02-34.83 19-53 9.16-43.48 6.15-91.46-7-133-6.32 6.32-12.86 11.58-19.75 17.25-6.89 5.66-11.65 11.36-19.17 16.83-7.51 5.48-11.37 11.87-20.33 16.67-8.96 4.79-11.14 14.96-10.75 25.25.39 10.29-3.68 21.62-6.02 30.98-2.35 9.35-5.29 18.11-9.67 26.33-4.39 8.21-7 16.28-12.31 23.69Z"/>
  <path fill="none" fill-opacity="0" stroke="#F6E4F3" stroke-width=".3" d="M581 352c.5-5.42 4.05-10.45 5-16 .95-5.55.77-13.23 1-19 .23-5.77.95-13.51 1-19 .06-5.49 1.71-12.11.93-16.93-.79-4.81-.49-13.47-2.93-11.07-2.26-17.76-1.83-36.59-12-51 13.15 41.54 16.16 89.52 7 133Z"/>
  <path fill="none" fill-opacity="0" stroke="#313558" stroke-width=".3" d="M109 306c-5.18 6.06-11.68 11.24-17 17-1.07 1.35-2.08 3.93-3 5 13.35-8.28 21.71-21.99 34.3-32.7 12.6-10.7 25.04-21.4 38.01-30.99 12.96-9.6 32.74-18.67 30.69-38.31-.75 5.86-4.3 10.9-4 17-26.75 19.01-56.96 37.2-79 63Z"/>
  <path fill="none" fill-opacity="0" stroke="#597CA7" stroke-width=".3" d="M354 281c1.14-.44 6.5-5.34 5-5-21.47-10.17-47.34-11.88-66-28-20.35 5.64-42.42 7.12-64 5 4.44 13.3 2.4 39.52 19.33 43.67 16.92 4.16 40.62.75 57.45-1.89 16.83-2.65 31.95-9.37 48.22-13.78Z"/>
  <path fill="none" fill-opacity="0" stroke="#8A898A" stroke-width=".3" d="M408 255c-.37.45-.64 1.67-1 2 1.73-1.95 5.85-2.16 6-5-1.93.51-3.48 2.14-5 3Z"/>
  <path fill="none" fill-opacity="0" stroke="#3C373F" stroke-width=".3" d="M384 268c-.1-.04 1.01 1.96 1 2 7.39-4.3 14.71-8.49 22-13 .36-.33.63-1.55 1-2-7.65 4.36-16.16 9.12-24 13Z"/>
  <path fill="none" fill-opacity="0" stroke="#313457" stroke-width=".3" d="M80 365c1.7-2.34 4.25-4.74 6-7 4.65-6.01 9.05-12.21 14-18 8-9.36 16.54-18.91 26-27 18.95-16.19 36.79-33.41 57-47 1.96 1.45.56 4.8 1 7 2.19-1.7.44-5.48 1-8-11.79 2.82-22.52 13.18-30 22-11.48 2.39-16.33 14.26-25.7 20.3-9.38 6.03-14.34 17.41-24.3 21.7-7.3 12.75-18.6 22-25 36Z"/>
  <path fill="none" fill-opacity="0" stroke="#598EB3" stroke-width=".3" d="M126 313c-8.88 8.88-17.21 18.21-26 27-4.95 5.79-9.35 11.99-14 18-.48 1.31-1.44 2.41-1 4 3.89-1.17 9.66-1.73 10-8 3.96 3.68 10.47-8.23 15-7 7.92-14.52 21.6-28.12 33.75-40.25C155.9 294.62 169.17 281.92 184 274c0 0-.05-.5 0-1-.44-2.2.96-5.55-1-7-20.21 13.59-38.05 30.81-57 47Z"/>
  <path fill="none" fill-opacity="0" stroke="#A497AA" stroke-width=".3" d="M203 285v-19c-.57 5.91-.58 13.02 0 19Z"/>
  <path fill="none" fill-opacity="0" stroke="#5A597F" stroke-width=".3" d="M354 281c3.09-.84 5.36-2.69 8-4-.54-.04-2.57-.8-3-1 1.5-.34-3.86 4.56-5 5Z"/>
  <path fill="none" fill-opacity="0" stroke="#A296A3" stroke-width=".3" d="M209 293v-13c-.39 4.02-.4 8.91 0 13Z"/>
  <path fill="none" fill-opacity="0" stroke="#597CA5" stroke-width=".3" d="M317 300c-2.64 1-4.91 2.29-8 3-1.79.41-3.16.75-5 1-3.44 1.05-7.08 2.28-11 3-13.09 2.41-26.12 4.83-40 4 8.94 12.86 20.28 28.26 34.77 18.77 14.49-9.49 28.1-13.18 42.15-21.85 14.04-8.67 26.31-14.39 40.08-22.92.22-1.92-3.91-3.04-4-5-15.38 8.3-32 15.66-49 20Z"/>
  <path fill="none" fill-opacity="0" stroke="#BBB4D4" stroke-width=".3" d="M449 296c-.5.54-.61 1.45-1 2 4.58-3.4 11.65-6.31 15-11 .4-.55.53-1.43 1-2-5.1 3.5-9.87 7.48-15 11Z"/>
  <path fill="none" fill-opacity="0" stroke="#A094A8" stroke-width=".3" d="M599 307c.57-5.91.58-13.02 0-19v19Z"/>
  <path fill="none" fill-opacity="0" stroke="#B4B2B3" stroke-width=".3" d="M157 303c-1.74 2.47-6.09 7.59-9 11 7.9-7.27 16.24-15.08 23-23-4.98 2.89-9.54 7.84-14 12Z"/>
  <path fill="none" fill-opacity="0" stroke="#F2EFF4" stroke-width=".3" d="M400 351c4.33.52 7.36 6.01 13 5 5.64-1.01 10.92 3.35 17 2 17.56-10.68 31.6-28.53 43-45-9.5 25.16-28.95 49.13-52 64 .27-.04 1.87.36 3 0 12.39-5.17 21.08-17.05 34-21-7.98 19.68-24.23 35.44-40 50 39.37-24.4 65.91-68.07 68-114-28.51 19.44-56.43 41.44-86 59Z"/>
  <path fill="none" fill-opacity="0" stroke="#8980A7" stroke-width=".3" d="M441 303c2.36-1.54 5.2-2.48 7-5 .39-.55.5-1.46 1-2-3.06 2.1-5.32 4.5-8 7Z"/>
  <path fill="none" fill-opacity="0" stroke="#414C70" stroke-width=".3" d="M309 303c3.09-.71 5.36-2 8-3-2.91.74-5.45 2.09-8 3Z"/>
  <path fill="none" fill-opacity="0" stroke="#827F89" stroke-width=".3" d="M141 319c.9-.65 2.12-.58 3-1 1.11-1.27 2.81-2.61 4-4 2.91-3.41 7.26-8.53 9-11-5.43 5.07-11.12 10.29-16 16Z"/>
  <path fill="none" fill-opacity="0" stroke="#374367" stroke-width=".3" d="M293 307c3.92-.72 7.56-1.95 11-3-4.5.61-7.15 1.7-11 3Z"/>
  <path fill="none" fill-opacity="0" stroke="#4A5D7F" stroke-width=".3" d="M92 323c5.32-5.76 11.82-10.94 17-17-5.64 5.64-11.85 10.48-17 17Z"/>
  <path fill="none" fill-opacity="0" stroke="#7C6494" stroke-width=".3" d="M188 308c-12.78 6.17-19.3 19.29-28.75 29.25s-19.4 31.89.75 31.75c20.15-.14 30.76-2.79 48-9-8.97-16.15-17.4-33.37-20-52Z"/>
  <path fill="none" fill-opacity="0" stroke="#9196C3" stroke-width=".3" d="M392 318c-.25.28 0 1 0 1 5.16-2.85 10.65-5.08 15-9-4.56 2.11-11.49 4.08-15 8Z"/>
  <path fill="none" fill-opacity="0" stroke="#475E80" stroke-width=".3" d="M100 340c8.79-8.79 17.12-18.12 26-27-9.46 8.09-18 17.64-26 27Z"/>
  <path fill="none" fill-opacity="0" stroke="#E2E4F2" stroke-width=".3" d="M178 396c-.06.01 0 1 0 1 39.6-3.83 80.96-14.54 116.77-29.23 35.81-14.69 63.28-31.42 97.23-48.77 0 0-.25-.72 0-1-67.89 33.57-138.31 66.94-214 78Z"/>
  <path fill="none" fill-opacity="0" stroke="#6578A2" stroke-width=".3" d="M52 356c1.78-4.88 3.61-.11 4 3-.88-5.35 3.93-7.72 5-12v-1c-2.81-5.14-3.44-15.23-4-21-.15 5.49.91 11.42-2 16-3.06-3.03-2.38-2.45-4 1-.36-7.43-2.06-14.83-4-22 1.19 12.34 3.23 24 5 36Z"/>
  <path fill="none" fill-opacity="0" stroke="#6080A8" stroke-width=".3" d="M86 358c-1.75 2.26-4.3 4.66-6 7-1.09 2.38-2.6 5.82-4 8 1.29.17 1.75 1.7 3 2 5.96-9.88 18.59-13.99 25-23 1.4 2.49 2.48.8 4-1 .49-.99 1.42-2.93 2-4-4.53-1.23-11.04 10.68-15 7-.34 6.27-6.11 6.83-10 8-.44-1.59.52-2.69 1-4Z"/>
  <path fill="none" fill-opacity="0" stroke="#656794" stroke-width=".3" d="M52 356c-1.57 11.55-10.84 21.07-14.68 33.32s-5.88 30.76-1.65 43.01c4.23 12.24 9.51 21.7 21.1 27.9 11.59 6.2 24.4 12.18 38.23 11.77 13.83-.41 25.87 2.91 32 17-13.71 2.41-26.3 6.27-39.99 9.01-13.7 2.73-25.34 7.05-39.33 9.67-14 2.62-20.94 7.47-30.43 18.57C7.75 537.35.47 544.67 3 561c2.53 16.33-1.32 32.67 0 49s-.99 32.67 0 49c9.1 6.38 19.11 12.76 27 21 87.35-26.84 177.65-45 272-45 2.75-.27 6.58-1 10-1h8c8.02 0 16.74.3 24 1 14.75-2.03 33.13 5.49 44-7 .38.72-.48 2.36 0 3 .82 1.11 1.33 2.3 1 4 1.57.39 4.22-.94 5 1 21.24.35 44.39 3.17 65 5s40.73 5.28 59.93 8.07c19.19 2.79 38.33 12.67 56.07 4.93-.73 10.78 13.85 8.43 21.78 11.22 7.92 2.8 16.97 5.13 25.21 7.79 8.24 2.66 17.61 4.71 26.01 6.99v-93c7.04.29 13.56 2.58 20 5 .19-13.53-.26-29.74 0-43 .26-13.26 3.44-30.28-10.33-32.67-13.77-2.39-21.13-6.57-33.65-9.35-12.51-2.78-22.6-5.78-34.8-8.2-12.2-2.43-22.95-5.95-35.22-7.78 1.17-1.62 2.6-3.5 4-5-1.57.65-5.13 1.54-7-2-1.83 2.26-9.9 5.49-9 5-2.65 1.54-4.86 4.18-6 7 11.75 2.8 25.46 1.64 34 12 4.49-7.76 16.04-.51 24.99 1.01 8.95 1.51 18.3 3.84 27.94 6.06 9.63 2.23 15.49 6.42 26.85 7.15 11.36.74 11.27 13.18 10.22 23.78-1.05 10.6.78 23.22 0 34-6.76-1.36-13.29-3.55-20-5v93c-19.27-4.18-37.61-11.42-57-15v-14c-8.95.38-15.07 11.8-23.93 8.93-8.86-2.88-19.4-3.09-28.06-5.94-8.67-2.85-20.37.7-24.01-9.99-3.66 9.33-18.75 1.6-27.99 1.99-9.24.4-6.32-.37-15.99-2.01-9.66-1.65-23.18-2.28-33.02-2.98-9.84-.7-8.88-.5-16.78-1.22s-9.58-1.08-17.22-.78v-16c-11.43 5.94-20.01 18.75-35 15-14.99-3.75-31.5 3.04-45-4-2.03 5.53-11.77 2.61-18 3-6.23.39-13.56.93-20 1-6.44.07-13.95.73-19-2-9.78 7.12-25.52 4.49-37.98 6.02-12.45 1.54-26.65 4.07-39.01 4.99-12.37.92-25.85 7.58-36.01 1.99-4.88 7.34-16.79 7.23-24.93 9.07-8.14 1.85-20.48 7.51-26.07 1.93-9.44 12.71-23.19 8.12-36.77 14.23-13.58 6.1-23.27 8.47-36.48-.98C8.54 651.8 12.4 637.11 12 621c-.4-16.11 1.28-35.03 0-51-1.28-15.97.84-27.94 11.25-38.75 10.41-10.81 19.12-15.94 33.08-17.92C70.29 511.35 82.66 503.29 95 512c-2.17-11.67 12.54-9.71 20.98-12.02 8.43-2.31 19.22-3.46 28.02-4.98-6.01-12.41-20.22-21.18-26-34-8.82 1.63-20.42 1.11-28.99-.01-8.57-1.11-15.72-3.2-22.78-7.22-7.06-4.02-12-7.28-16.92-14.07-4.93-6.8-6.2-15.18-6.31-23.7-.11-8.52 1.02-18.78 4.68-26.32 3.66-7.54 3.63-13.39 10-20 6.37-6.61 2.79-14.71 3.32-22.68-1.07 4.28-5.88 6.65-5 12-.39-3.11-2.22-7.88-4-3Z"/>
  <path fill="none" fill-opacity="0" stroke="#636996" stroke-width=".3" d="M430 358c-6.08 1.35-11.36-3.01-17-2-5.64 1.01-8.67-4.48-13-5-16.57 8.63-33.07 18.54-49 28 27.16 1.8 57.8-3.59 79-21Z"/>
  <path fill="none" fill-opacity="0" stroke="#7C6695" stroke-width=".3" d="M473 379c4.17-2.19 9.72 6.27 13.78 7.57 4.05 1.29 12.91 7.27 19.22 5.43 6.31-1.84 15.66-3.58 22 0 .87 3.62-4.5 1.85-4 5 6.72-3.48 10.07 4.39 16.08 7.92 6.02 3.52 13.78 4.09 19.92 4.08.54-1.08 1.41-2.79 2-4-8.49 8.8-25.88-3.96-31.77-12.23-5.89-8.27-12.34-3.39-19.23-2.77-6.89.62-15.69-1.69-20.92-4.08-5.24-2.39-9.2-10.65-14.08-9.92-.65.9-2.2 1.93-3 3Z"/>
  <path fill="none" fill-opacity="0" stroke="#C9B7D0" stroke-width=".3" d="M400 387c-.22.13 0 1 0 1 8.43-3.11 16.29-6.52 24-11-1.13.36-2.73-.04-3 0-6.87 1.05-14.3 7.53-21 10Z"/>
  <path fill="none" fill-opacity="0" stroke="#656898" stroke-width=".3" d="M473 379c-9.08 12.23-17.78 23.95-30.75 33.25-12.97 9.29-25.56 16.92-41.03 22.97-15.47 6.06-34.57 10.31-52.22 11.78-17.65 1.47-40.44-3.07-56.93-7.07-16.48-4-28.29-18.86-44.05-11.91-15.75 6.96-31.72 11.23-47.79 16.21-16.07 4.97-32.67 10.46-48.23 12.77 6.56 1.11 10.74 11 16.25 14.75S180.42 481.82 184 487c13.02-.79 27.15-3.2 40-4 12.85-.8 25.88-5 36 4-2.57-9.3 9.46-7.86 16-8 6.54-.14 15.58-1.4 22-1 6.42.4 18.71-3.35 18 5 7.97-7.92 22.12-5.28 32.99-4.99 10.88.29 23.35-.15 32.01 5.99 1.98-8.22 14.45-2.42 22-3 7.55-.58 17.18.93 25 1 7.82.07 16.11 1.66 24 2 7.89.34 16.16 1.46 24 2 7.83.55 15.29 2.14 23 3 24.58-23.14 46.18-50.24 61-80-6.14.01-13.9-.56-19.92-4.08-6.01-3.53-9.36-11.4-16.08-7.92-.5-3.15 4.87-1.38 4-5-6.34-3.58-15.69-1.84-22 0-6.31 1.84-15.17-4.14-19.22-5.43-4.06-1.3-9.61-9.76-13.78-7.57Z"/>
  <path fill="none" fill-opacity="0" stroke="#715B78" stroke-width=".3" d="M400 388s-.22-.87 0-1c-2.29-.16-3.75 2.14-6 2 1.04 2.03 5.01.12 6-1Z"/>
  <path fill="none" fill-opacity="0" stroke="#A1A6B7" stroke-width=".3" d="M165 391h-10c3.08.3 6.86.3 10 0Z"/>
  <path fill="none" fill-opacity="0" stroke="#AEB2DA" stroke-width=".3" d="M178 397s-.06-.99 0-1c-3.51-.23-6.39 1.71-10 1 1.91 1.43 8.12 1.94 10 0Z"/>
  <path fill="none" fill-opacity="0" stroke="#878BB9" stroke-width=".3" d="M188 412c.35.04.81.98 1 1 3.66-1.11 7.48-1.48 11-3-2.99-1.27-8.68 1.31-12 2Z"/>
  <path fill="none" fill-opacity="0" stroke="#F5F4F7" stroke-width=".3" d="M184 487c-3.58-5.18-10.24-11.5-15.75-15.25S158.56 458.11 152 457c-4.59-.28-8.6 1.67-13 2 10.7 12.82 23.19 26.57 37 36-1.98-6.92 2.83-7.36 8-8Z"/>
  <path fill="none" fill-opacity="0" stroke="#A09AA3" stroke-width=".3" d="M282 497c5.43-1.13 11.51.84 17 0-2.05-2.93-14.33-.94-17 0Z"/>
  <path fill="none" fill-opacity="0" stroke="#F4F2F6" stroke-width=".3" d="M316 507c-1.55 5.16.42 12.62 0 18-.42 5.38-1.21 12.73 2 17 5.42 5.37 13.5 9.01 18.92 14.08 5.43 5.06 16.84 6.04 21.08 11.92 1.98 2.74 1 8.42 1 12v8h-22c.4-8.77 2.12-17.53-8-17-10.12.53-15.58-1.27-15 9 .58 10.27-1.73 13.98 5.25 19.75 6.98 5.78 6.44 8.25 15.75 8.25 4.74 0 10.01.61 14 1 11.31.74 19.79 1.18 27.75-7.25 7.96-8.42 2.04-18.86 4.25-29.75s-3.93-16.95-12.75-21.25c-8.82-4.29-10.92-10.14-20.17-13.83-9.25-3.69-14.03-11.99-11.08-22.92 7.92-.61 15.07 1.72 23 1v15c5.27-2.47 16.3 3.29 21 0-1.29-8.19 3-18.51-3-25-3.11-2.66-6.23-6.61-10-8-3.05-.68-8.45-.75-11-1-13.5 0-33.95-4.07-41 11m60 55c1.7 3.18 1 8.09 1 12v22c-7.11 7.74-15.68 10.57-26.07 8.07-10.4-2.5-22.28 4.16-28.93-7.07-3.47-2.96-7.76-17.67-3-21 3.13-2.19 10.48 1.64 14 0v16h15c3.2 0 10.18 1.37 13 0 4.17-2.95 4.38-24.94-1.7-28.3-6.07-3.36-16.2-7.61-21.3-12.7 14.34-1.38 28.59-.21 38 11Z"/>
  <path fill="none" fill-opacity="0" stroke="#817B86" stroke-width=".3" d="M368 497c-3.2-1.18-7.1-1-11-1 2.55.25 7.95.32 11 1Z"/>
  <path fill="none" fill-opacity="0" stroke="#F7F5F9" stroke-width=".3" d="M299 497c-5.49.84-11.57-1.13-17 0h-4v112c7.14.14 13.73-1.73 21-1-.05-6.21.06-12.84 0-19s.12-11.9 0-18 .25-13 0-19 .58-12.24 0-18 1.23-13.71 0-19c-1.23-5.29 2.87-13.9 0-18m-4 53v54h-13v-54h13Z"/>
  <path fill="none" fill-opacity="0" stroke="#F5F3F7" stroke-width=".3" d="M456 502c-21.22-1.81-42.53-3.22-64-4v19c7.28-.76 13.82 1.41 21 1-.05 9.77.07 19.2 0 29s.14 19.08 0 29c-.14 9.92.3 18.78 0 29-.3 10.22 14.96 4.53 22 7v-93c6.68 1.65 13.95.81 21 1v-18m-25 52v53c-7.76 1.29-15.27.56-14-8 1.27-8.56-.64-13.94 0-22s-.48-15.04 0-23h14Z"/>
  <path fill="none" fill-opacity="0" stroke="#F6F4F8" stroke-width=".3" d="M194 512v13c2.67 27.56.2 57.17 1 85 4.09-6.19 1.37-17.24 2-26 .63-8.76-.47-19.1 0-28 1.05 1.37 3.44.23 4 2 15.4.47 22.97-2.1 39.22-3.78 16.25-1.67 17.23 12.4 16.78 25.78-.45 13.38-1.15 25.43-16 27-14.85 1.57-24.79 1.75-39 4-2.08.33-4.35 1.07-7 0-.28 1.28.76 3.5-1 4 12.33 1.31 29.98-3.65 42.99-3.01 13.02.64 25.8-9.67 24.01-22.99-1.79-13.32 6.23-32.02-9-38 10.51-6.12 6.84-17.03 8-27 1.16-9.97-1.84-19.77-11.75-23.25-9.92-3.47-20.74-.4-31.24.26-10.5.65-23.01-1.04-23.01 10.99m21 33c-2.71-1.87-.18-7.11 0-9v-16c7.95.77 15.12-1.44 23-1v24c-7.59.95-15.28 1.51-23 2Z"/>
  <path fill="none" fill-opacity="0" stroke="#F8F6FA" stroke-width=".3" d="M488 505c-7.03-.62-13.8-2.12-21-2v112c7.22-.14 13.7 2.55 21 2V505m-5 55c.49.08 1 0 1 0 5.03 4.87-.86 18.83 1 26 1.86 7.16-1.4 19.38 0 27-1.57-.39-4.22.94-5-1-2.26.12-3.36-.24-5-1-1.19-.42-2.78.32-4 0v-52h3c2.82-.82 6.3.55 9 1Z"/>
  <path fill="none" fill-opacity="0" stroke="#9A8D9D" stroke-width=".3" d="M381 530c3.63-2.54-.56-9.8 1-14 1.56-4.2-.92-8.37-4-11 6 6.49 1.71 16.81 3 25Z"/>
  <path fill="none" fill-opacity="0" stroke="#988C9B" stroke-width=".3" d="M318 542c-3.21-4.27-2.42-11.62-2-17 .42-5.38-1.55-12.84 0-18-3.08 6.59-3.18 29.87 2 35Z"/>
  <path fill="none" fill-opacity="0" stroke="#F6F5F8" stroke-width=".3" d="M113 518c-4.44 4.22.27 15.86-1 22-1.27 6.14.42 16.27 0 23s-.14 16.31 0 23c.14 6.69-.8 17.01 0 23 .8 5.99-2.91 18.89 2 21 6.51-.69 12.9-1.82 19-4-.05-6.55.07-17.94 0-24-.07-6.06-1.59-19.83 3.99-20.01 5.59-.18 15.66-6.2 18.01-.99 2.35 5.21-.84 18.14 0 24 .84 5.86-.37 17.31 7.93 15.93 8.29-1.39 11.9-2.73 20.07-2.93-15.74-14.23 2.78-41.84-15-54 4.87-3.09 8.01-7.05 8-12-.03-8.82 3.55-28.17-2-35-4.74-4.34-10.42-9.42-16.99-6.99-6.57 2.42-15.64 1.12-22 4-6.37 2.87-16.38.17-22.01 3.99m21 44c-2.72-.47-2.71-8.54-2-13 .71-4.46-2.15-13.03 1-16 4.46-4.21 16.94.11 22-4v30c-6.97 1.06-13.85 2.56-21 3m38 11c1.07 13.98-2.67 29.26 3 42-4.96-.47-9.23 1.6-14 2-4.18-12.03-1.01-26.1-2-39-8.71-5.85-19.79.02-30 1 1.15 10.63-1.54 19.16 0 30s-1.76 18.13-14 17c-1.62-14.78 2.16-25.85 0-41-2.16-15.15 14.98-12.06 26-15 11.02-2.94 22.17-6.51 31 3Z"/>
  <path fill="none" fill-opacity="0" stroke="#F4F1F6" stroke-width=".3" d="M526 548c-1.81-3.59-2.22-16.5 1-17 7.8 2.79 25.04-.9 22 12-3.04 12.9 13.27 9.56 21 12 1.78-12.86.61-24.66-9.25-32.75s-21.44-6.12-32.53-9.47c-11.09-3.35-22.9 2.44-23.22 14.22-.32 11.78-2.55 27.22 7.25 34.75 9.79 7.53 12.78 13.13 23.5 18.5 10.73 5.36 16.59 14.79 13.25 27.75-6.99-.22-11.96-2.38-18.97-3.03-7.02-.64-3.04-11.83-4.03-16.97-6.98-2.68-14.51-3.32-22-4 .12 10.35-2.33 22.45 5.25 29.75C516.82 621.06 521 625.84 532 626c11 .16 16.75 6.44 27.77 3.77C570.79 627.1 571.39 616.3 571 606c-.39-10.3 1.15-21.22-6.75-27.25-7.91-6.02-12.38-10.76-19-16-6.63-5.23-15.7-7.72-19.25-14.75m41 37c-2.63 11.25 6.17 33.27-6.23 38.77s-24.02-2.96-36.99-4.55C510.8 617.64 504.72 601.04 508 589c4.78.16 9.19 1.84 14 2v17c10.76.28 20.58 4.24 31 6-.49-10.32 3.4-26.43-6.75-31.25-10.14-4.82-13.55-11.98-24.25-14.75 15.27 1.23 33.05 5.27 45 17Z"/>
  <path fill="none" fill-opacity="0" stroke="#5E5264" stroke-width=".3" d="M194 559v-47c-1.42 14.69-1.43 32.24 0 47Z"/>
  <path fill="none" fill-opacity="0" stroke="#8C7E92" stroke-width=".3" d="M176 552c.94-8.17 4.78-28.8-2-35 5.55 6.83 1.97 26.18 2 35Z"/>
  <path fill="none" fill-opacity="0" stroke="#AA9AB0" stroke-width=".3" d="M114 630c-4.91-2.11-1.2-15.01-2-21s.14-16.31 0-23c-.14-6.69-.42-16.27 0-23s-1.27-16.86 0-23c1.27-6.14-3.44-17.78 1-22-4.17 17-1.33 37.33-2 56-.67 18.67.5 38.25 0 57 .92.91 2.78-1.01 3-1Z"/>
  <path fill="none" fill-opacity="0" stroke="#402C4A" stroke-width=".3" d="M215 536v9c7.72-.49 15.41-1.05 23-2v-24c-7.88-.44-15.05 1.77-23 1v16Z"/>
  <path fill="none" fill-opacity="0" stroke="#F6F4F8" stroke-width=".3" d="M598 546c6.34 3.07 1.87 14.09 3 21s-1.05 17.86 0 25c1.05 7.14-1.67 18.44 0 25 1.67 6.56-3.88 19.53 1 24 7.03.38 13.16 4.06 20 5v-94c7.08 1.44 13.7 4.5 21 5v-18c-20.37-6.04-40.92-11.6-62-15v19c5.35 1.16 12.09.63 17 3m20 42v52c-4.67.29-8.71-1.81-13-3v-52c4.58.04 8.26 3.42 13 3Z"/>
  <path fill="none" fill-opacity="0" stroke="#E7E0EF" stroke-width=".3" d="M194 559c0 5.95-.43 13.18 0 19s-1.15 13.65 0 19-2.82 13.8 0 18c1.76-.5.72-2.72 1-4 2.65 1.07 4.92.33 7 0-1.32-.15-2.68.12-4 0v-53h3c-.56-1.77-2.95-.63-4-2-.47 8.9.63 19.24 0 28-.63 8.76 2.09 19.81-2 26-.8-27.83 1.67-57.44-1-85v34Z"/>
  <path fill="none" fill-opacity="0" stroke="#F7F4F8" stroke-width=".3" d="M29 552c-2.05 9.25.34 21.58 0 31-.34 9.42-1.14 22.02 0 31s-3.86 22.69 1 30c10.62 11.38 22.83 2.96 34.98-.02C77.12 640.99 88.12 637.56 94 625c2.64-8.81-.68-20.73 0-30s.82-20.77 0-30 2.86-21.31 0-30c-7.41-14.65-24.2-5.98-35.93-3.93-11.72 2.05-24.52 8.6-29.07 20.93m44-6v75c-8.08 2.11-15.78 5.32-24 7 .46-25.3-1.04-51.09 1-76 7.86-1.23 15.32-3.99 23-6m16 79c-8.1 12.18-17.87 11.11-29.68 16.32C47.51 646.53 30.5 647.12 32 631s-6.49-32.61 13-34v36c10.85-2.26 21.36-5.87 32-9v-39c4.61.08 8.63-2.06 13-3 3.26 2.03.13 10.04 1 14 .87 3.96-.53 10.42 0 15s.32 10.51-2 14Z"/>
  <path fill="none" fill-opacity="0" stroke="#412C4A" stroke-width=".3" d="M133 533c.68 4.15-.91 11.13 0 15 .91 3.87-2.21 11.85 1 14 7.15-.44 14.03-1.94 21-3v-30c-5.06 4.11-17.54-.21-22 4Z"/>
  <path fill="none" fill-opacity="0" stroke="#918695" stroke-width=".3" d="M526 548c-.83-2.51-.99-15.69 1-17-3.22.5-2.81 13.41-1 17Z"/>
  <path fill="none" fill-opacity="0" stroke="#99909C" stroke-width=".3" d="M134 562c-3.21-2.15-.09-10.13-1-14-.91-3.87.68-10.85 0-15-3.15 2.97-.29 11.54-1 16-.71 4.46-.72 12.53 2 13Z"/>
  <path fill="none" fill-opacity="0" stroke="#928995" stroke-width=".3" d="M94 625c3.68-7.88.4-20.8 1-30s.62-21.89 0-31 2.87-21.34-1-29c2.86 8.69-.82 20.77 0 30s.68 20.73 0 30 2.64 21.19 0 30Z"/>
  <path fill="none" fill-opacity="0" stroke="#A59BAB" stroke-width=".3" d="M215 545v-9c-.18 1.89-2.71 7.13 0 9Z"/>
  <path fill="none" fill-opacity="0" stroke="#432F4C" stroke-width=".3" d="M73 546c-7.68 2.01-15.14 4.77-23 6-2.04 24.91-.54 50.7-1 76 8.22-1.68 15.92-4.89 24-7v-75Z"/>
  <path fill="none" fill-opacity="0" stroke="#8A7E8C" stroke-width=".3" d="M602 641c-4.88-4.47.67-17.44-1-24-1.67-6.56 1.05-17.86 0-25-1.05-7.14 1.13-18.09 0-25s3.34-17.93-3-21c5.51 3.78.65 16.32 2 23s-1.01 17.95 0 25c1.01 7.05-1.33 18.42 0 25 1.33 6.58-3.57 18.37 2 22Z"/>
  <path fill="none" fill-opacity="0" stroke="#636895" stroke-width=".3" d="M295 550h-13v54h13v-54Z"/>
  <path fill="none" fill-opacity="0" stroke="#646796" stroke-width=".3" d="M361 592c-3.54 2.5-9.54.34-13 0h-15v-16c-3.52 1.64-10.87-2.19-14 0 .74 7.22-2.22 15.36 3 21 6.65 11.23 18.53 4.57 28.93 7.07 10.39 2.5 18.96-.33 26.07-8.07v-22c-.24-2.49-.04-9.26-1-12-9.41-11.21-23.66-12.38-38-11 5.1 5.09 15.23 9.34 21.3 12.7 6.08 3.36 5.87 25.35 1.7 28.3Z"/>
  <path fill="none" fill-opacity="0" stroke="#857B8A" stroke-width=".3" d="M30 644c-4.86-7.31.14-21.02-1-30-1.14-8.98-.34-21.58 0-31 .34-9.42-2.05-21.75 0-31-3.1 8.4-.72 21.57-1 31s-.9 23.02 0 32-3.76 22.83 2 29Z"/>
  <path fill="none" fill-opacity="0" stroke="#646895" stroke-width=".3" d="M201 558h-3v53c1.32.12 2.68-.15 4 0 14.21-2.25 24.15-2.43 39-4 14.85-1.57 15.55-13.62 16-27 .45-13.38-.53-27.45-16.78-25.78-16.25 1.68-23.82 4.25-39.22 3.78m40 37c-3.81 1.84-9.74-.49-14.01.99s-10.45.17-14.99 1.01v-36c6.92.67 13.07-1.67 20-1 2.94-.28 7.35-1.86 11-1-1.31 11.52 2.63 26.9-2 36Z"/>
  <path fill="none" fill-opacity="0" stroke="#666C9A" stroke-width=".3" d="M431 554h-14c-.48 7.96.64 14.94 0 23s1.27 13.44 0 22 6.24 9.29 14 8v-53Z"/>
  <path fill="none" fill-opacity="0" stroke="#A8ABC5" stroke-width=".3" d="M232 560h10c-.64 11.59 1.3 23.86-1 35 4.63-9.1.69-24.48 2-36-3.65-.86-8.06.72-11 1Z"/>
  <path fill="none" fill-opacity="0" stroke="#535A75" stroke-width=".3" d="M475 611c1.13.52-1.77-2.27-3-2 1.3-16.34-2.62-35.39 2-50h-3v52c1.22.32 2.81-.42 4 0Z"/>
  <path fill="none" fill-opacity="0" stroke="#616999" stroke-width=".3" d="M475 611c1.64.76 2.74 1.12 5 1 .5-.03 1.51.08 2 0 3.72-2.87 0-11.27 1-16s-.56-12.67 0-18-.5-12.51 0-18c-2.7-.45-6.18-1.82-9-1-4.62 14.61-.7 33.66-2 50 1.23-.27 4.13 2.52 3 2Z"/>
  <path fill="none" fill-opacity="0" stroke="#EFEDF4" stroke-width=".3" d="M241 595c2.3-11.14.36-23.41 1-35h-10c-6.93-.67-13.08 1.67-20 1v36c4.54-.84 10.72.47 14.99-1.01s10.2.85 14.01-.99m-3-28c1.34 2.69 1.5 8.74 1 12s1.68 10.12-1 12c-2.61 1.83-7.7-1.45-10.67.33-2.97 1.78-7.95.05-11.33.67v-27c7.54.53 14.39-1.75 22-1v3Z"/>
  <path fill="none" fill-opacity="0" stroke="#535676" stroke-width=".3" d="M482 612c4.12-.65 1.55-11.54 2-16 .45-4.46.01-12.83 0-18s.48-12.66 0-18c0 0-.51.08-1 0-.5 5.49.56 12.67 0 18s1 13.27 0 18 2.72 13.13-1 16Z"/>
  <path fill="none" fill-opacity="0" stroke="#B9B9D0" stroke-width=".3" d="M482 612c-.49.08-1.5-.03-2 0 .78 1.94 3.43.61 5 1-1.4-7.62 1.86-19.84 0-27-1.86-7.17 4.03-21.13-1-26 .48 5.34-.01 12.83 0 18s.45 13.54 0 18c-.45 4.46 2.12 15.35-2 16Z"/>
  <path fill="none" fill-opacity="0" stroke="#7A7E93" stroke-width=".3" d="M377 574c0-3.91.7-8.82-1-12 .96 2.74.76 9.51 1 12Z"/>
  <path fill="none" fill-opacity="0" stroke="#422E4A" stroke-width=".3" d="M238 591c-1.76-7.43 2.35-16.76 0-24v-3c-7.61-.75-14.46 1.53-22 1v27c3.38-.62 8.36 1.11 11.33-.67 2.97-1.78 8.06 1.5 10.67-.33Z"/>
  <path fill="none" fill-opacity="0" stroke="#676A98" stroke-width=".3" d="M172 573c-8.83-9.51-19.98-5.94-31-3-11.02 2.94-28.16-.15-26 15s-1.62 26.22 0 41c12.24 1.13 15.54-6.16 14-17-1.54-10.84 1.15-19.37 0-30 10.21-.98 21.29-6.85 30-1 .99 12.9-2.18 26.97 2 39 4.77-.4 9.04-2.47 14-2-5.67-12.74-1.93-28.02-3-42Z"/>
  <path fill="none" fill-opacity="0" stroke="#A696A9" stroke-width=".3" d="M238 591c2.68-1.88.5-8.74 1-12s.34-9.31-1-12c2.35 7.24-1.76 16.57 0 24Z"/>
  <path fill="none" fill-opacity="0" stroke="#666A94" stroke-width=".3" d="M567 585c-11.95-11.73-29.73-15.77-45-17 10.7 2.77 14.11 9.93 24.25 14.75 10.15 4.82 6.26 20.93 6.75 31.25-10.42-1.76-20.24-5.72-31-6v-17c-4.81-.16-9.22-1.84-14-2-3.28 12.04 2.8 28.64 15.78 30.22 12.97 1.59 24.59 10.05 36.99 4.55 12.4-5.5 3.6-27.52 6.23-38.77Z"/>
  <path fill="none" fill-opacity="0" stroke="#594E5A" stroke-width=".3" d="M359 580c0-3.58.98-9.26-1-12 1.02 2.05.81 10 1 12Z"/>
  <path fill="none" fill-opacity="0" stroke="#A6A7BB" stroke-width=".3" d="M322 597c-5.22-5.64-2.26-13.78-3-21-4.76 3.33-.47 18.04 3 21Z"/>
  <path fill="none" fill-opacity="0" stroke="#656997" stroke-width=".3" d="M89 625c5.68-12.28-2.17-29.92 1-43-4.37.94-8.39 3.08-13 3v39c-10.64 3.13-21.15 6.74-32 9v-36c-19.49 1.39-11.5 17.88-13 34s15.51 15.53 27.32 10.32C71.13 636.11 80.9 637.18 89 625Z"/>
  <path fill="none" fill-opacity="0" stroke="#AEADCB" stroke-width=".3" d="M89 625c2.32-3.49 2.53-9.42 2-14-.53-4.58.87-11.04 0-15-.87-3.96 2.26-11.97-1-14-3.17 13.08 4.68 30.72-1 43Z"/>
  <path fill="none" fill-opacity="0" stroke="#626895" stroke-width=".3" d="M618 588c-4.74.42-8.42-2.96-13-3v52c4.29 1.19 8.33 3.29 13 3v-52Z"/>
  <path fill="none" fill-opacity="0" stroke="#AEAED2" stroke-width=".3" d="M361 592c-2.82 1.37-9.8 0-13 0 3.46.34 9.46 2.5 13 0Z"/>
  <path fill="none" fill-opacity="0" stroke="#94839A" stroke-width=".3" d="M349 609c-3.99-.39-9.26-1-14-1 3.99.39 9.26 1 14 1Z"/>
  <path fill="none" fill-opacity="0" stroke="#9EA1B2" stroke-width=".3" d="M394 636c-.78-1.94-3.43-.61-5-1 .33-1.7-.18-2.89-1-4 2.21 4.45-.14 4.53 6 5Z"/>
  <path fill="none" fill-opacity="0" stroke="#ACB2C4" stroke-width=".3" d="M302 635c3.42 0 7.25-.73 10-1-3.42 0-7.25.73-10 1Z"/>
  <path fill="none" fill-opacity="0" stroke="#B2B4D0" stroke-width=".3" d="M344 635c-7.26-.7-15.98-1-24-1 7.26.7 15.98 1 24 1Z"/>
  <path fill="#598DB2" stroke="None" d="M47 320c1.94 7.17 3.64 14.57 4 22 1.62-3.45.94-4.03 4-1 2.91-4.58 1.85-10.51 2-16 0-30.17-.31-66.4 7.93-94.07 8.24-27.68 16.78-50.46 30.84-74.16C109.83 133.07 122.5 117.5 142 98c20.33-20.33 42.94-36.61 68-49 42.41-20.97 89.04-32.63 138-31 48.96 1.63 87.81 17.16 130 39 .33.17.86.66 1 1 5.21 3.43 11.23 5.83 16 10 2.67 1.3 5.1-.54 8 1 .45-2.05 2.05-1.52 3-4-5.25-1.62-9.52-9.41-15.3-11.7-5.79-2.28-10.96-7.52-17-10-6.05-2.47-11.02-7.36-17.48-9.52-6.45-2.17-12.45-5.76-19.14-7.86-6.7-2.1-13.03-5.14-20.07-6.93-7.04-1.79-13.96-4.16-21.34-5.66-7.38-1.5-14.85-2.29-22.65-3.35-7.79-1.07-16.27-1.59-24.35-2.65C340.59 6.27 331 7.32 323 8s-17.27.81-24.98 2.02c-7.71 1.22-15.46 2.54-22.8 4.2-7.34 1.67-14.6 3.46-21.53 5.47-6.92 2.02-12.77 4.59-19.46 6.54-6.7 1.95-12.23 5.89-18.54 8.46-6.3 2.58-11.88 6.21-18 9-6.11 2.8-11.53 6.37-16.99 10.01-5.47 3.63-10.86 7.11-16 11-5.15 3.89-10.54 7.63-15.62 11.38-5.08 3.75-8.83 8.13-13.33 12.67-4.49 4.54-9.19 8.75-13.5 13.5-4.3 4.76-7.82 10.07-12 15s-7.74 10.23-11.5 15.5c-3.76 5.28-7.38 10.57-10.83 16.17-3.44 5.61-6.37 11.49-9.61 17.39-3.25 5.89-5.27 11.72-8 18-2.74 6.27-5.89 12.24-7.99 19.01-2.09 6.77-4.72 13.48-6.34 20.66-1.63 7.17-3.97 14.39-5 22-1.04 7.6-3.31 15.05-3.98 23.02-.67 7.97-1.38 17.69-1 26 .38 8.31-1.04 17.46 1 25Z"/>
  <path fill="#34365A" stroke="None" d="M210 49c6.37-1.38 14.56-7.02 22-6 2.5-6.08 11.36-7.53 18-7 9.78-6.22 21.7-9.17 35-11s26.04-4.86 39-6c12.96-1.14 32.32.78 45 2s25.78 6.37 38.02 7.98c12.25 1.6 22.98 8.75 34.66 12.34C453.36 44.91 463.69 50.37 472 58c1.88-.47 4.93 1.06 6-1-42.19-21.84-81.04-37.37-130-39-48.96-1.63-95.59 10.03-138 31Z"/>
  <path fill="#422E4C" stroke="None" d="M210 49c-25.06 12.39-47.67 28.67-68 49-.44 2.71 1.91 3.52 2 6-5.29-3.79-11.92 4.37-15.75 9.25-3.82 4.88-8.99 12.35-10.25 18.75-7.58-1.68-6.73 12.38-14 13 1.59 6.37-6.14 8.35-5 15-13.61 13.21-19.04 31.02-25.97 50.03S61.66 249.82 60 272c-1.66 22.18-1.28 51.44 1 74v1c-.53 7.97 3.05 16.07-3.32 22.68-6.37 6.61-6.34 12.46-10 20-3.66 7.54-4.79 17.8-4.68 26.32.11 8.52 1.38 16.9 6.31 23.7 4.92 6.79 9.86 10.05 16.92 14.07 7.06 4.02 14.21 6.11 22.78 7.22 8.57 1.12 20.17 1.64 28.99.01 5.78 12.82 19.99 21.59 26 34-8.8 1.52-19.59 2.67-28.02 4.98-8.44 2.31-23.15.35-20.98 12.02-12.34-8.71-24.71-.65-38.67 1.33s-22.67 7.11-33.08 17.92C12.84 542.06 10.72 554.03 12 570c1.28 15.97-.4 34.89 0 51s-3.46 30.8 9.75 40.25 22.9 7.08 36.48.98C71.81 656.12 85.56 660.71 95 648c5.59 5.58 17.93-.08 26.07-1.93 8.14-1.84 20.05-1.73 24.93-9.07 10.16 5.59 23.64-1.07 36.01-1.99 12.36-.92 26.56-3.45 39.01-4.99 12.46-1.53 28.2 1.1 37.98-6.02 5.05 2.73 12.56 2.07 19 2 6.44-.07 13.77-.61 20-1s15.97 2.53 18-3c13.5 7.04 30.01.25 45 4 14.99 3.75 23.57-9.06 35-15v16c7.64-.3 9.32.06 17.22.78 7.9.72 6.94.52 16.78 1.22s23.36 1.33 33.02 2.98c9.67 1.64 6.75 2.41 15.99 2.01 9.24-.39 24.33 7.34 27.99-1.99 3.64 10.69 15.34 7.14 24.01 9.99 8.66 2.85 19.2 3.06 28.06 5.94 8.86 2.87 14.98-8.55 23.93-8.93v14c19.39 3.58 37.73 10.82 57 15v-93c6.71 1.45 13.24 3.64 20 5 .78-10.78-1.05-23.4 0-34 1.05-10.6 1.14-23.04-10.22-23.78-11.36-.73-17.22-4.92-26.85-7.15-9.64-2.22-18.99-4.55-27.94-6.06-8.95-1.52-20.5-8.77-24.99-1.01-8.54-10.36-22.25-9.2-34-12 1.14-2.82 3.35-5.46 6-7 5.73-5.73 10.75-11.89 15.92-18.08 5.17-6.2 9.01-13.43 13.85-20.15 4.84-6.72 8.23-14.15 12.53-21.47 4.3-7.31 7.95-14.68 11.02-22.98 3.07-8.3 7.13-16.54 9.6-25.4 2.48-8.85 4.96-17.61 7.01-26.99 2.04-9.38 2.87-19.96 4.07-29.93 1.2-9.97 1.42-22.54 1-33-.42-10.46-.06-23.1-2-33-1.94-9.9-2.64-18.78-5.98-28.02-3.33-9.25-2.58-17.3-8-26-5.41-8.71.3-12.91 6.68-19.28 6.39-6.36 10.01-11.96 15.07-18.93 5.06-6.97 9.56-13.54 14-21 4.44-7.46 7.5-15.27 10.16-23.84 2.65-8.57 3.13-21.48.29-30.15-2.84-8.67-7.68-13.35-14.92-19.08-7.24-5.73-15.01-8.85-24.52-10.48-9.51-1.62-21.85-1.57-31.78-.22s-19.89 1.24-29.67 4.33c-9.78 3.08-17.34 1.95-27.34 6.66S504.09 73.85 495 69c-2.8.35-14.98-8.54-16-11-.14-.34-.67-.83-1-1-1.07 2.06-4.12.53-6 1-8.31-7.63-18.64-13.09-30.32-16.68s-22.41-10.74-34.66-12.34C394.78 27.37 381.68 22.22 369 21c-12.68-1.22-32.04-3.14-45-2-12.96 1.14-25.7 4.17-39 6s-25.22 4.78-35 11c-6.64-.53-15.5.92-18 7-7.44-1.02-15.63 4.62-22 6m137-13c49.99 0 97.89 19.32 138 47-5.78 1.73-11.04 4.95-17 6-10.2 4-19.37 7.38-29.69 12.31-10.33 4.92-19.79 6.1-30 13-10.22 6.89-19.61 5.43-31.31 1.69-.45-.14-1 0-1 0-6.26 4.64-18.72-2.57-27-1-8.28 1.57-19.85-1.77-28 1-8.15 2.76-17.3 2.14-25.02 4.98-7.73 2.84-13.88 7.31-21.2 9.8-7.33 2.48-13.32 6.17-19.48 10.52-6.15 4.35-12 8.32-17 14-5.01 5.67-8.85 8.83-14.05 13.95-5.19 5.12-8.07 12.55-11.44 18-3.37 5.45-11 13.16-9.81 20.75-6.53 1.74-3.99 12.78-8 18-.83-.41-1.87-.97-2-2-.28.66-.74.99-1 2 2.05 19.64-17.73 28.71-30.69 38.31-12.97 9.59-25.41 20.29-38.01 30.99-12.59 10.71-20.95 24.42-34.3 32.7-.99 1.15-2.95 1.99-4 3-2.29 2.9-4.96 5.95-8 8C49.56 189.61 176.18 37.07 327 36c6.29-.61 13.77-.6 20 0m116 251c-3.35 4.69-10.42 7.6-15 11-1.8 2.52-4.64 3.46-7 5-20.85 13.59-38.51 26.37-60.7 39.3-22.18 12.94-42.67 25.54-65.99 37.01-23.33 11.46-44.73 22.78-70 32-25.28 9.21-49.56 20.48-77.38 25.62-27.83 5.13-60.03 15.34-90 4.14C46.95 429.88 63.92 391.72 76 373c1.4-2.18 2.91-5.62 4-8 6.4-14 17.7-23.25 25-36 9.96-4.29 14.92-15.67 24.3-21.7 9.37-6.04 14.22-17.91 25.7-20.3 7.48-8.82 18.21-19.18 30-22-.56 2.52 1.19 6.3-1 8-.05.5 0 1 0 1 0 12.55-1.77 19.36-12.25 25.75-10.48 6.39-11.8 13.21-19.52 20.48-7.72 7.27-11.27 15.09-16.15 23.85-4.89 8.75-8.8 22.44-1.77 31.62 7.02 9.17 19.62 9.48 30.69 9.3 11.07-.18 24.52-2.34 35.02-4.98 10.51-2.63 20.94-5.69 31-9 10.07-3.3 19.57-7.1 29.2-10.8 9.64-3.7 18.81-7.78 28-12 9.2-4.21 17.92-8.71 26.86-13.14 8.93-4.44 17.6-8.95 26.15-13.85 8.55-4.91 16.99-9.56 25.47-14.53 8.47-4.98 17.2-10.33 25.38-15.62 8.18-5.29 16.17-10.46 24.15-15.85 7.98-5.39 15.71-10.94 23.47-16.53 7.76-5.59 14.9-11.8 22.55-17.45 7.64-5.66 14.7-11.81 22-18 7.3-6.19 14.46-11.8 21.5-18.5 7.05-6.7 13.19-13.09 19.55-20.45 6.36-7.35 12.3-14.22 17.01-23 4.7-8.77 10.97-20.12 6.37-30.98-4.6-10.85-16.5-12.86-27.68-12.32-11.18.54-23.64 2.8-34.22 5.78-10.59 2.97-20.18 5.75-30.46 9.54-10.28 3.79-19.5 9.71-29.32 3.68-1.46-.9-2.75-2.18-4-3-2.11-1.38-4.6-2.44-7-3 18.89-11.9 42.26-20.04 64.07-27.93 21.82-7.88 48.38-17.98 71-22 22.62-4.02 60.34-11.52 76.23 8.63s-5.36 48.71-17.07 65.53-29.04 33.52-44.48 48.52c-15.43 15.01-32.85 29.62-49.5 43.5C499.6 261.12 480.56 274.32 463 287m-93-2c-13.77 8.53-26.04 14.25-40.08 22.92-14.05 8.67-27.66 12.36-42.15 21.85-14.49 9.49-25.83-5.91-34.77-18.77 13.88.83 26.91-1.59 40-4 3.85-1.3 6.5-2.39 11-3 1.84-.25 3.21-.59 5-1 2.55-.91 5.09-2.26 8-3 17-4.34 33.62-11.7 49-20 6.2-3.35 12.95-6.48 19-10 .01-.04-1.1-2.04-1-2-6.98 3.45-14.99 5.53-22 9-2.64 1.31-4.91 3.16-8 4-16.27 4.41-31.39 11.13-48.22 13.78-16.83 2.64-40.53 6.05-57.45 1.89C231.4 292.52 233.44 266.3 229 253c21.58 2.12 43.65.64 64-5 36.72-8.96 72.7-27.69 100-55-1.11-.11-1.47-1.84-2-2-31.68 23.56-67.44 36.74-106 43-4.92.8-10.24 1.5-15.67 2.33-5.43.83-11.74.85-17.33 1.67-5.59.82-13.16-1.91-18.02-.98-4.86.94-13.44-3.87-16.98-2.02-5.24 14.19-8 29.42-8 45v13c0 15.75 4.66 30.37 9 45-9.62-15.42-14.44-34.26-15-53-.58-5.98-.57-13.09 0-19 0-12.91 3.72-27.6 7.92-39.08 4.21-11.47 8.39-22.16 14.85-32.15 6.46-9.99 12.52-17.5 20.98-26.02 8.47-8.52 16.2-14.31 26.5-20.5 10.29-6.2 21.34-10.26 33.42-13.58 12.08-3.32 29.02-5.15 42.33-4.67 13.31.48 26.91 4.14 39.07 7.93 12.17 3.78 20.52 9.3 31.18 15.82 10.65 6.53 16.59 12.14 25.52 21.48 8.93 9.35 11.77 16.01 20 27 8.23 10.99-1.45 18.24-11.47 25.07-10.01 6.84-16.94 13.83-26.55 20.45-9.61 6.63-18.22 12.86-27.83 19.17-9.61 6.31-19.21 12.07-28.92 18.08m114-84c-6.68-18.52-22.25-32.54-34-48 11.79-5.56 19.27-6.31 32.02-10.98 12.76-4.66 21.12-4.68 35.99-8.01 14.86-3.33 17.84 12.83 9.07 22.07-8.78 9.23-11.2 16.16-19.83 24.17-8.63 8-13.74 15.12-23.25 20.75m115 87c.58 5.98.57 13.09 0 19 0 72.8-35.61 145.01-93 190 1.22-5.63-.63-9.8-7-8-7.71-.86-15.17-2.45-23-3-7.84-.54-16.11-1.66-24-2-7.89-.34-16.18-1.93-24-2-7.82-.07-17.45-1.58-25-1-7.55.58-20.02-5.22-22 3-8.66-6.14-21.13-5.7-32.01-5.99-10.87-.29-25.02-2.93-32.99 4.99.71-8.35-11.58-4.6-18-5-6.42-.4-15.46.86-22 1-6.54.14-18.57-1.3-16 8-10.12-9-23.15-4.8-36-4-12.85.8-26.98 3.21-40 4-5.17.64-9.98 1.08-8 8-13.81-9.43-26.3-23.18-37-36 4.4-.33 8.41-2.28 13-2 15.56-2.31 32.16-7.8 48.23-12.77 16.07-4.98 32.04-9.25 47.79-16.21 15.76-6.95 27.57 7.91 44.05 11.91 16.49 4 39.28 8.54 56.93 7.07 17.65-1.47 36.75-5.72 52.22-11.78 15.47-6.05 28.06-13.68 41.03-22.97 12.97-9.3 21.67-21.02 30.75-33.25.8-1.07 2.35-2.1 3-3 5.31-7.41 7.92-15.48 12.31-23.69 4.38-8.22 7.32-16.98 9.67-26.33 2.34-9.36 6.41-20.69 6.02-30.98-.39-10.29 1.79-20.46 10.75-25.25 8.96-4.8 12.82-11.19 20.33-16.67 7.52-5.47 12.28-11.17 19.17-16.83 6.89-5.67 13.43-10.93 19.75-17.25 3.16-3.16 6.35-6.32 10-9 9.35 24.78 15.2 50.66 15 78m-175 89c-7.71 4.48-15.57 7.89-24 11-.99 1.12-4.96 3.03-6 1 2.25.14 3.71-2.16 6-2 6.7-2.47 14.13-8.95 21-10 23.05-14.87 42.5-38.84 52-64-11.4 16.47-25.44 34.32-43 45-21.2 17.41-51.84 22.8-79 21 15.93-9.46 32.43-19.37 49-28 29.57-17.56 57.49-39.56 86-59-2.09 45.93-28.63 89.6-68 114 15.77-14.56 32.02-30.32 40-50-12.92 3.95-21.61 15.83-34 21m-236-69c2.6 18.63 11.03 35.85 20 52-17.24 6.21-27.85 8.86-48 9-20.15.14-10.2-21.79-.75-31.75S175.22 314.17 188 308m111 189c2.87 4.1-1.23 12.71 0 18 1.23 5.29-.58 13.24 0 19s-.25 12 0 18-.12 12.9 0 19-.06 11.84 0 18-.05 12.79 0 19c-7.27-.73-13.86 1.14-21 1V497h4c2.67-.94 14.95-2.93 17 0m69 0c3.77 1.39 6.89 5.34 10 8 3.08 2.63 5.56 6.8 4 11-1.56 4.2 2.63 11.46-1 14-4.7 3.29-15.73-2.47-21 0v-15c-7.93.72-15.08-1.61-23-1-2.95 10.93 1.83 19.23 11.08 22.92 9.25 3.69 11.35 9.54 20.17 13.83 8.82 4.3 14.96 10.36 12.75 21.25-2.21 10.89 3.71 21.33-4.25 29.75-7.96 8.43-16.44 7.99-27.75 7.25-4.74 0-10.01-.61-14-1-9.31 0-8.77-2.47-15.75-8.25-6.98-5.77-4.67-9.48-5.25-19.75-.58-10.27 4.88-8.47 15-9 10.12-.53 8.4 8.23 8 17h22v-8c-.19-2 .02-9.95-1-12-4.24-5.88-15.65-6.86-21.08-11.92-5.42-5.07-13.5-8.71-18.92-14.08-5.18-5.13-5.08-28.41-2-35 7.05-15.07 27.5-11 41-11 3.9 0 7.8-.18 11 1m88 5v18c-7.05-.19-14.32.65-21-1v93c-7.04-2.47-22.3 3.22-22-7 .3-10.22-.14-19.08 0-29 .14-9.92-.07-19.2 0-29s-.05-19.23 0-29c-7.18.41-13.72-1.76-21-1v-19c21.47.78 42.78 2.19 64 4M194 615c-2.82-4.2 1.15-12.65 0-18s.43-13.18 0-19 0-13.05 0-19c-1.43-14.76-1.42-32.31 0-47 0-12.03 12.51-10.34 23.01-10.99 10.5-.66 21.32-3.73 31.24-.26 9.91 3.48 12.91 13.28 11.75 23.25-1.16 9.97 2.51 20.88-8 27 15.23 5.98 7.21 24.68 9 38s-10.99 23.63-24.01 22.99c-13.01-.64-30.66 4.32-42.99 3.01m294-110v112c-7.3.55-13.78-2.14-21-2V503c7.2-.12 13.97 1.38 21 2m-314 12c6.78 6.2 2.94 26.83 2 35 .01 4.95-3.13 8.91-8 12 17.78 12.16-.74 39.77 15 54-8.17.2-11.78 1.54-20.07 2.93-8.3 1.38-7.09-10.07-7.93-15.93-.84-5.86 2.35-18.79 0-24-2.35-5.21-12.42.81-18.01.99-5.58.18-4.06 13.95-3.99 20.01.07 6.06-.05 17.45 0 24-6.1 2.18-12.49 3.31-19 4-.22-.01-2.08 1.91-3 1 .5-18.75-.67-38.33 0-57s-2.17-39 2-56c5.63-3.82 15.64-1.12 22.01-3.99 6.36-2.88 15.43-1.58 22-4 6.57-2.43 12.25 2.65 16.99 6.99m353 14c-1.99 1.31-1.83 14.49-1 17 3.55 7.03 12.62 9.52 19.25 14.75 6.62 5.24 11.09 9.98 19 16 7.9 6.03 6.36 16.95 6.75 27.25.39 10.3-.21 21.1-11.23 23.77-11.02 2.67-16.77-3.61-27.77-3.77-11-.16-15.18-4.94-22.75-12.25-7.58-7.3-5.13-19.4-5.25-29.75 7.49.68 15.02 1.32 22 4 .99 5.14-2.99 16.33 4.03 16.97 7.01.65 11.98 2.81 18.97 3.03 3.34-12.96-2.52-22.39-13.25-27.75-10.72-5.37-13.71-10.97-23.5-18.5-9.8-7.53-7.57-22.97-7.25-34.75.32-11.78 12.13-17.57 23.22-14.22 11.09 3.35 22.67 1.38 32.53 9.47S571.78 542.14 570 555c-7.73-2.44-24.04.9-21-12 3.04-12.9-14.2-9.21-22-12m75 110c-5.57-3.63-.67-15.42-2-22s1.01-17.95 0-25c-1.01-7.05 1.35-18.32 0-25s3.51-19.22-2-23c-4.91-2.37-11.65-1.84-17-3v-19c21.08 3.4 41.63 8.96 62 15v18c-7.3-.5-13.92-3.56-21-5v94c-6.84-.94-12.97-4.62-20-5M94 535c3.87 7.66.38 19.89 1 29s.6 21.8 0 31 2.68 22.12-1 30c-5.88 12.56-16.88 15.99-29.02 18.98-12.15 2.98-24.36 11.4-34.98.02-5.76-6.17-1.1-20.02-2-29-.9-8.98-.28-22.57 0-32s-2.1-22.6 1-31c4.55-12.33 17.35-18.88 29.07-20.93C69.8 529.02 86.59 520.35 94 535Z"/>
  <path fill="#9E8EA2" stroke="None" d="M327 36h20c-6.23-.6-13.71-.61-20 0Z"/>
  <path fill="#F4F6F8" stroke="None" d="M85 331c8.54-10.82-.61-32.68 2.78-46.22 3.39-13.54 2.53-31.29 6.55-44.45 4.02-13.16 7.95-26.5 13.44-38.56 5.49-12.06 9.88-23.33 17-34 7.12-10.67 13.64-20.64 21.98-30.02 8.35-9.37 15.56-17.68 25-26 9.45-8.32 18.44-14.96 28.95-22.05 10.5-7.09 21.68-12.86 33.53-18.47 11.85-5.62 24.3-10.03 37.46-13.54C284.86 54.19 301.65 50 316 50c.97-.17 2.45-.93 4-1 5.54-.98 11.86-.4 18-1 6.14-.6 13.01 1.16 17 2 26.16.52 54.24 7.75 77 19 2.09 1.03 5.05 2.15 7 3 4.76 2.08 10.42 6.23 15.25 7.75 4.82 1.53 9.72 8.22 13.75 9.25 5.96-1.05 11.22-4.27 17-6-40.11-27.68-88.01-47-138-47h-20C176.18 37.07 49.56 189.61 77 339c3.04-2.05 5.71-5.1 8-8Z"/>
  <path fill="#D2EEF7" stroke="None" d="M320 49c1.66-.08 3.34 0 5 0 10.18 0 20.1.8 30 1-3.99-.84-10.86-2.6-17-2-6.14.6-12.46.02-18 1Z"/>
  <path fill="#90B7CD" stroke="None" d="M316 50c3.1 0 6.64-.77 9-1-1.66 0-3.34-.08-5 0-1.55.07-3.03.83-4 1Z"/>
  <path fill="#5190B8" stroke="None" d="M316 50c-14.35 0-31.14 4.19-44.31 7.69-13.16 3.51-25.61 7.92-37.46 13.54-11.85 5.61-23.03 11.38-33.53 18.47-10.51 7.09-19.5 13.73-28.95 22.05-9.44 8.32-16.65 16.63-25 26-8.34 9.38-14.86 19.35-21.98 30.02-7.12 10.67-11.51 21.94-17 34-5.49 12.06-9.42 25.4-13.44 38.56-4.02 13.16-3.16 30.91-6.55 44.45-3.39 13.54 5.76 35.4-2.78 46.22 1.05-1.01 3.01-1.85 4-3 .92-1.07 1.93-3.65 3-5 5.15-6.52 11.36-11.36 17-17 22.04-25.8 52.25-43.99 79-63-.3-6.1 3.25-11.14 4-17 .26-1.01.72-1.34 1-2 14.26-33.42 28.94-63.29 61.75-84.25 32.8-20.97 77.26-34.96 118.25-24.75 5.6-1.23 9.05-9.39 12.75-13.25 3.71-3.85 9.62-8.48 13-13 3.37-4.53 10.28-7.99 13.5-12.5 3.22-4.51 20.28-2.4 19.75-7.25-22.76-11.25-50.84-18.48-77-19-9.9-.2-19.82-1-30-1-2.36.23-5.9 1-9 1Z"/>
  <path fill="#BCB1C8" stroke="None" d="M576 51c6.29-.34 12.7 0 19 0-5.94-.57-12.94-.98-19 0Z"/>
  <path fill="#7D6894" stroke="None" d="M506 65c-.95 2.48-2.55 1.95-3 4-2.9-1.54-5.33.3-8-1 .25.22 0 1 0 1 9.09 4.85 13.99 7.7 23.99 2.99 10-4.71 17.56-3.58 27.34-6.66 9.78-3.09 19.74-2.98 29.67-4.33 9.93-1.35 22.27-1.4 31.78.22 9.51 1.63 17.28 4.75 24.52 10.48 7.24 5.73 12.08 10.41 14.92 19.08 2.84 8.67 2.36 21.58-.29 30.15-2.66 8.57-5.72 16.38-10.16 23.84-4.44 7.46-8.94 14.03-14 21-5.06 6.97-8.68 12.57-15.07 18.93-6.38 6.37-12.09 10.57-6.68 19.28 5.42 8.7 4.67 16.75 8 26 3.34 9.24 4.04 18.12 5.98 28.02 1.94 9.9 1.58 22.54 2 33 .42 10.46.2 23.03-1 33-1.2 9.97-2.03 20.55-4.07 29.93-2.05 9.38-4.53 18.14-7.01 26.99-2.47 8.86-6.53 17.1-9.6 25.4-3.07 8.3-6.72 15.67-11.02 22.98-4.3 7.32-7.69 14.75-12.53 21.47-4.84 6.72-8.68 13.95-13.85 20.15-5.17 6.19-10.19 12.35-15.92 18.08-.9.49 7.17-2.74 9-5 1.87 3.54 5.43 2.65 7 2 8.12-8.7 14.27-17.9 21.08-27.92 6.81-10.02 12.41-19.76 18-31 5.58-11.25 10.07-22.42 14.15-34.85s8.22-24.92 10.44-38.56c2.22-13.64 4.98-29.13 5.33-43.67.35-14.54.24-33.16-2-47-2.25-13.83-4.08-28.17-8.02-40.98-3.95-12.81-11.04-24.18-.23-33.27 10.82-9.09 13.23-17.53 21.33-27.67 8.11-10.14 11.93-20.48 16.6-32.4 4.67-11.92 5.61-29.58 1.25-41.61-4.37-12.03-11.31-19.92-22.24-26.76C622.77 53.46 608.11 51 595 51c-6.3 0-12.71-.34-19 0-11.77.64-25.26 2.48-36.33 5.67-11.06 3.19-23.31 3.82-33.67 8.33Z"/>
  <path fill="#394369" stroke="None" d="M495 69s.25-.78 0-1c-4.77-4.17-10.79-6.57-16-10 1.02 2.46 13.2 11.35 16 11Z"/>
  <path fill="#757AA5" stroke="None" d="M373 115c.89.22 1.47 1.18 3 1 0 0 .55-.14 1 0 2.08-6.45 12.68-12.38 16.3-18.7 3.62-6.31 12.52-11.8 17.78-17.22 5.27-5.41 20.62-8.62 27.92-8.08-1.95-.85-4.91-1.97-7-3 .53 4.85-16.53 2.74-19.75 7.25-3.22 4.51-10.13 7.97-13.5 12.5-3.38 4.52-9.29 9.15-13 13-3.7 3.86-7.15 12.02-12.75 13.25Z"/>
  <path fill="#946897" stroke="None" d="M377 116c11.7 3.74 21.09 5.2 31.31-1.69 10.21-6.9 19.67-8.08 30-13C448.63 96.38 457.8 93 468 89c-4.03-1.03-8.93-7.72-13.75-9.25-4.83-1.52-10.49-5.67-15.25-7.75-7.3-.54-22.65 2.67-27.92 8.08-5.26 5.42-14.16 10.91-17.78 17.22-3.62 6.32-14.22 12.25-16.3 18.7Z"/>
  <path fill="#F6F6F8" stroke="None" d="M423 134c7.74.8 14.53-6.57 22.22-7.78 7.7-1.21 15.68-5.69 23.46-7.54 7.77-1.86 16.09-6.06 24.32-6.68 2.48-2.8 8.33-2.84 12-3-3.24 2.57-8.23 2.06-12 4-22.21 6.37-46.34 14.07-66 24 9.82 6.03 19.04.11 29.32-3.68 10.28-3.79 19.87-6.57 30.46-9.54 10.58-2.98 23.04-5.24 34.22-5.78s23.08 1.47 27.68 12.32c4.6 10.86-1.67 22.21-6.37 30.98-4.71 8.78-10.65 15.65-17.01 23-6.36 7.36-12.5 13.75-19.55 20.45-7.04 6.7-14.2 12.31-21.5 18.5-7.3 6.19-14.36 12.34-22 18-7.65 5.65-14.79 11.86-22.55 17.45-7.76 5.59-15.49 11.14-23.47 16.53-7.98 5.39-15.97 10.56-24.15 15.85-8.18 5.29-16.91 10.64-25.38 15.62-8.48 4.97-16.92 9.62-25.47 14.53-8.55 4.9-17.22 9.41-26.15 13.85-8.94 4.43-17.66 8.93-26.86 13.14-9.19 4.22-18.36 8.3-28 12-9.63 3.7-19.13 7.5-29.2 10.8-10.06 3.31-20.49 6.37-31 9-10.5 2.64-23.95 4.8-35.02 4.98-11.07.18-23.67-.13-30.69-9.3-7.03-9.18-3.12-22.87 1.77-31.62 4.88-8.76 8.43-16.58 16.15-23.85 7.72-7.27 9.04-14.09 19.52-20.48C182.23 293.36 184 286.55 184 274c-14.83 7.92-28.1 20.62-40.25 32.75C131.6 318.88 117.92 332.48 110 347c-.58 1.07-1.51 3.01-2 4-8.97 18-17.15 50.5 6.25 61.75 23.4 11.26 50.8 5.3 74.75.25-.19-.02-.65-.96-1-1-21.61 4.48-44.35 5.15-65.68-1.32-21.33-6.48-21.2-32.44-12.4-48.76 8.8-16.31 19-28.78 31.08-42.92 4.88-5.71 10.57-10.93 16-16 4.46-4.16 9.02-9.11 14-12-6.76 7.92-15.1 15.73-23 23-1.19 1.39-2.89 2.73-4 4-12.7 14.57-17.03 23.46-22 43-4.97 19.54 14.69 30 33 30h10c39.02 0 80.79-17.98 116.22-29.78 35.44-11.8 67.35-29.61 100.03-45.97 32.67-16.36 61.26-35.54 91.98-54.02 30.72-18.48 54.18-41.61 82.77-63.23l20-20c1.28-1.5 2.17-3.11 4-4 2.59-2.59 4.74-6.18 8-8-.68 3.4-4.44 5.9-7 8-6.07 6.07-12.35 13.39-18 20-14.47 16.93-31.39 32.35-47.75 47.25-16.36 14.9-33.13 31.32-51.25 43.75-.47.57-.6 1.45-1 2 17.56-12.68 36.6-25.88 53.25-39.75 16.65-13.88 34.07-28.49 49.5-43.5 15.44-15 32.77-31.7 44.48-48.52 11.71-16.82 32.96-45.38 17.07-65.53s-53.61-12.65-76.23-8.63c-22.62 4.02-49.18 14.12-71 22-21.81 7.89-45.18 16.03-64.07 27.93 2.4.56 4.89 1.62 7 3Z"/>
  <path fill="#343658" stroke="None" d="M57 325c.56 5.77 1.19 15.86 4 21-2.28-22.56-2.66-51.82-1-74 1.66-22.18 6.1-42.96 13.03-61.97C79.96 191.02 85.39 173.21 99 160c-1.14-6.65 6.59-8.63 5-15 7.27-.62 6.42-14.68 14-13 1.26-6.4 6.43-13.87 10.25-18.75 3.83-4.88 10.46-13.04 15.75-9.25-.09-2.48-2.44-3.29-2-6-19.5 19.5-32.17 35.07-46.23 58.77-14.06 23.7-22.6 46.48-30.84 74.16C56.69 258.6 57 294.83 57 325Z"/>
  <path fill="#B4B6BD" stroke="None" d="M493 112c-.25.28 0 1 0 1 3.77-1.94 8.76-1.43 12-4-3.67.16-9.52.2-12 3Z"/>
  <path fill="#728595" stroke="None" d="M423 134c1.25.82 2.54 2.1 4 3 19.66-9.93 43.79-17.63 66-24 0 0-.25-.72 0-1-8.23.62-16.55 4.82-24.32 6.68-7.78 1.85-15.76 6.33-23.46 7.54-7.69 1.21-14.48 8.58-22.22 7.78Z"/>
  <path fill="#333559" stroke="None" d="M193 224c.13 1.03 1.17 1.59 2 2 4.01-5.22 1.47-16.26 8-18-1.19-7.59 6.44-15.3 9.81-20.75 3.37-5.45 6.25-12.88 11.44-18 5.2-5.12 9.04-8.28 14.05-13.95 5-5.68 10.85-9.65 17-14 6.16-4.35 12.15-8.04 19.48-10.52 7.32-2.49 13.47-6.96 21.2-9.8 7.72-2.84 16.87-2.22 25.02-4.98 8.15-2.77 19.72.57 28-1 8.28-1.57 20.74 5.64 27 1-1.53.18-2.11-.78-3-1-40.99-10.21-85.45 3.78-118.25 24.75-32.81 20.96-47.49 50.83-61.75 84.25Z"/>
  <path fill="#F9F8F9" stroke="None" d="M203 266v19c.56 18.74 5.38 37.58 15 53-4.34-14.63-9-29.25-9-45-.4-4.09-.39-8.98 0-13 0-15.58 2.76-30.81 8-45 5.53-14.99 12.62-29.13 22-42 1.77-2.42 4.07-5.4 6-8 7.44-10.01 17.24-19.33 28-25-4.57 8.89-5.59 18.9-6 29 27.68 3.95 55.32-4.3 80-15-22.74 15.47-50.74 23.61-79 24 .57 6.09 2.37 15.57 5.32 20.68 2.95 5.1 5.54 14.09 11.68 15.32 38.56-6.26 74.32-19.44 106-43 8.71-6.48 15.77-16.33 23-24-5.27 9.44-12.63 18.61-21 26-27.3 27.31-63.28 46.04-100 55 18.66 16.12 44.53 17.83 66 28 .43.2 2.46.96 3 1 7.01-3.47 15.02-5.55 22-9 7.84-3.88 16.35-8.64 24-13 1.52-.86 3.07-2.49 5-3-.15 2.84-4.27 3.05-6 5-7.29 4.51-14.61 8.7-22 13-6.05 3.52-12.8 6.65-19 10 .09 1.96 4.22 3.08 4 5 9.71-6.01 19.31-11.77 28.92-18.08 9.61-6.31 18.22-12.54 27.83-19.17 9.61-6.62 16.54-13.61 26.55-20.45 10.02-6.83 19.7-14.08 11.47-25.07-8.23-10.99-11.07-17.65-20-27-8.93-9.34-14.87-14.95-25.52-21.48-10.66-6.52-19.01-12.04-31.18-15.82-12.16-3.79-25.76-7.45-39.07-7.93-13.31-.48-30.25 1.35-42.33 4.67-12.08 3.32-23.13 7.38-33.42 13.58-10.3 6.19-18.03 11.98-26.5 20.5-8.46 8.52-14.52 16.03-20.98 26.02-6.46 9.99-10.64 20.68-14.85 32.15-4.2 11.48-7.92 26.17-7.92 39.08Z"/>
  <path fill="#A66994" stroke="None" d="M484 201c9.51-5.63 14.62-12.75 23.25-20.75 8.63-8.01 11.05-14.94 19.83-24.17 8.77-9.24 5.79-25.4-9.07-22.07-14.87 3.33-23.23 3.35-35.99 8.01-12.75 4.67-20.23 5.42-32.02 10.98 11.75 15.46 27.32 29.48 34 48Z"/>
  <path fill="#5B8BAF" stroke="None" d="M245 185c3.61-1.72 17.12 3.3 22 4 .41-10.1 1.43-20.11 6-29-10.76 5.67-20.56 14.99-28 25Z"/>
  <path fill="#B0AFB2" stroke="None" d="M580 174c.4-.2 1 0 1 0 2.56-2.1 6.32-4.6 7-8-3.26 1.82-5.41 5.41-8 8Z"/>
  <path fill="#423B46" stroke="None" d="M391 191c.53.16.89 1.89 2 2 8.37-7.39 15.73-16.56 21-26-7.23 7.67-14.29 17.52-23 24Z"/>
  <path fill="#3F314D" stroke="None" d="M267 189c-4.88-.7-18.39-5.72-22-4-1.93 2.6-4.23 5.58-6 8 3.62-.8 9.6 3.04 14 3 4.4-.05 10.06 2 15 2 28.26-.39 56.26-8.53 79-24-24.68 10.7-52.32 18.95-80 15Z"/>
  <path fill="#686676" stroke="None" d="M576 178c-5.18 6.06-11.19 12.67-17 18 .23-.13 2.8-.89 4-2 5.65-6.61 11.93-13.93 18-20 0 0-.6-.2-1 0-1.83.89-2.72 2.5-4 4Z"/>
  <path fill="#B7B4C5" stroke="None" d="M556 198c.89-.67 2.23-1.29 3-2 5.81-5.33 11.82-11.94 17-18l-20 20Z"/>
  <path fill="#548EB5" stroke="None" d="M217 235c3.54-1.85 12.12 2.96 16.98 2.02 4.86-.93 12.43 1.8 18.02.98 5.59-.82 11.9-.84 17.33-1.67 5.43-.83 10.75-1.53 15.67-2.33-6.14-1.23-8.73-10.22-11.68-15.32-2.95-5.11-4.75-14.59-5.32-20.68-4.94 0-10.6-2.05-15-2-4.4.04-10.38-3.8-14-3-9.38 12.87-16.47 27.01-22 42Z"/>
  <path fill="#656895" stroke="None" d="M559 196c-.77.71-2.11 1.33-3 2-28.59 21.62-52.05 44.75-82.77 63.23-30.72 18.48-59.31 37.66-91.98 54.02-32.68 16.36-64.59 34.17-100.03 45.97C245.79 373.02 204.02 391 165 391c-3.14.3-6.92.3-10 0-18.31 0-37.97-10.46-33-30 4.97-19.54 9.3-28.43 22-43-.88.42-2.1.35-3 1-12.08 14.14-22.28 26.61-31.08 42.92-8.8 16.32-8.93 42.28 12.4 48.76 21.33 6.47 44.07 5.8 65.68 1.32 3.32-.69 9.01-3.27 12-2-3.52 1.52-7.34 1.89-11 3-23.95 5.05-51.35 11.01-74.75-.25C90.85 401.5 99.03 369 108 351c-1.52 1.8-2.6 3.49-4 1-6.41 9.01-19.04 13.12-25 23-1.25-.3-1.71-1.83-3-2-12.08 18.72-29.05 56.88.93 68.07 29.97 11.2 62.17.99 90-4.14 27.82-5.14 52.1-16.41 77.38-25.62 25.27-9.22 46.67-20.54 70-32 23.32-11.47 43.81-24.07 65.99-37.01 22.19-12.93 39.85-25.71 60.7-39.3 2.68-2.5 4.94-4.9 8-7 5.13-3.52 9.9-7.5 15-11 18.12-12.43 34.89-28.85 51.25-43.75 16.36-14.9 33.28-30.32 47.75-47.25-1.2 1.11-3.77 1.87-4 2M392 319c-33.95 17.35-61.42 34.08-97.23 48.77C258.96 382.46 217.6 393.17 178 397c-1.88 1.94-8.09 1.43-10 0 3.61.71 6.49-1.23 10-1 75.69-11.06 146.11-44.43 214-78 3.51-3.92 10.44-5.89 15-8-4.35 3.92-9.84 6.15-15 9Z"/>
  <path fill="#F7F5F8" stroke="None" d="M574 219c10.17 14.41 9.74 33.24 12 51 2.44-2.4 2.14 6.26 2.93 11.07.78 4.82-.87 11.44-.93 16.93-.05 5.49-.77 13.23-1 19-.23 5.77-.05 13.45-1 19-.95 5.55-4.5 10.58-5 16-5.98 18.17-10.63 35.89-19 53-.59 1.21-1.46 2.92-2 4-14.82 29.76-36.42 56.86-61 80 6.37-1.8 8.22 2.37 7 8 57.39-44.99 93-117.2 93-190v-19c.2-27.34-5.65-53.22-15-78-3.65 2.68-6.84 5.84-10 9Z"/>
  <path fill="#A96B96" stroke="None" d="M476 376c4.88-.73 8.84 7.53 14.08 9.92 5.23 2.39 14.03 4.7 20.92 4.08 6.89-.62 13.34-5.5 19.23 2.77 5.89 8.27 23.28 21.03 31.77 12.23 8.37-17.11 13.02-34.83 19-53 9.16-43.48 6.15-91.46-7-133-6.32 6.32-12.86 11.58-19.75 17.25-6.89 5.66-11.65 11.36-19.17 16.83-7.51 5.48-11.37 11.87-20.33 16.67-8.96 4.79-11.14 14.96-10.75 25.25.39 10.29-3.68 21.62-6.02 30.98-2.35 9.35-5.29 18.11-9.67 26.33-4.39 8.21-7 16.28-12.31 23.69Z"/>
  <path fill="#F6E4F3" stroke="None" d="M581 352c.5-5.42 4.05-10.45 5-16 .95-5.55.77-13.23 1-19 .23-5.77.95-13.51 1-19 .06-5.49 1.71-12.11.93-16.93-.79-4.81-.49-13.47-2.93-11.07-2.26-17.76-1.83-36.59-12-51 13.15 41.54 16.16 89.52 7 133Z"/>
  <path fill="#313558" stroke="None" d="M109 306c-5.18 6.06-11.68 11.24-17 17-1.07 1.35-2.08 3.93-3 5 13.35-8.28 21.71-21.99 34.3-32.7 12.6-10.7 25.04-21.4 38.01-30.99 12.96-9.6 32.74-18.67 30.69-38.31-.75 5.86-4.3 10.9-4 17-26.75 19.01-56.96 37.2-79 63Z"/>
  <path fill="#597CA7" stroke="None" d="M354 281c1.14-.44 6.5-5.34 5-5-21.47-10.17-47.34-11.88-66-28-20.35 5.64-42.42 7.12-64 5 4.44 13.3 2.4 39.52 19.33 43.67 16.92 4.16 40.62.75 57.45-1.89 16.83-2.65 31.95-9.37 48.22-13.78Z"/>
  <path fill="#8A898A" stroke="None" d="M408 255c-.37.45-.64 1.67-1 2 1.73-1.95 5.85-2.16 6-5-1.93.51-3.48 2.14-5 3Z"/>
  <path fill="#3C373F" stroke="None" d="M384 268c-.1-.04 1.01 1.96 1 2 7.39-4.3 14.71-8.49 22-13 .36-.33.63-1.55 1-2-7.65 4.36-16.16 9.12-24 13Z"/>
  <path fill="#313457" stroke="None" d="M80 365c1.7-2.34 4.25-4.74 6-7 4.65-6.01 9.05-12.21 14-18 8-9.36 16.54-18.91 26-27 18.95-16.19 36.79-33.41 57-47 1.96 1.45.56 4.8 1 7 2.19-1.7.44-5.48 1-8-11.79 2.82-22.52 13.18-30 22-11.48 2.39-16.33 14.26-25.7 20.3-9.38 6.03-14.34 17.41-24.3 21.7-7.3 12.75-18.6 22-25 36Z"/>
  <path fill="#598EB3" stroke="None" d="M126 313c-8.88 8.88-17.21 18.21-26 27-4.95 5.79-9.35 11.99-14 18-.48 1.31-1.44 2.41-1 4 3.89-1.17 9.66-1.73 10-8 3.96 3.68 10.47-8.23 15-7 7.92-14.52 21.6-28.12 33.75-40.25C155.9 294.62 169.17 281.92 184 274c0 0-.05-.5 0-1-.44-2.2.96-5.55-1-7-20.21 13.59-38.05 30.81-57 47Z"/>
  <path fill="#A497AA" stroke="None" d="M203 285v-19c-.57 5.91-.58 13.02 0 19Z"/>
  <path fill="#5A597F" stroke="None" d="M354 281c3.09-.84 5.36-2.69 8-4-.54-.04-2.57-.8-3-1 1.5-.34-3.86 4.56-5 5Z"/>
  <path fill="#A296A3" stroke="None" d="M209 293v-13c-.39 4.02-.4 8.91 0 13Z"/>
  <path fill="#597CA5" stroke="None" d="M317 300c-2.64 1-4.91 2.29-8 3-1.79.41-3.16.75-5 1-3.44 1.05-7.08 2.28-11 3-13.09 2.41-26.12 4.83-40 4 8.94 12.86 20.28 28.26 34.77 18.77 14.49-9.49 28.1-13.18 42.15-21.85 14.04-8.67 26.31-14.39 40.08-22.92.22-1.92-3.91-3.04-4-5-15.38 8.3-32 15.66-49 20Z"/>
  <path fill="#BBB4D4" stroke="None" d="M449 296c-.5.54-.61 1.45-1 2 4.58-3.4 11.65-6.31 15-11 .4-.55.53-1.43 1-2-5.1 3.5-9.87 7.48-15 11Z"/>
  <path fill="#A094A8" stroke="None" d="M599 307c.57-5.91.58-13.02 0-19v19Z"/>
  <path fill="#B4B2B3" stroke="None" d="M157 303c-1.74 2.47-6.09 7.59-9 11 7.9-7.27 16.24-15.08 23-23-4.98 2.89-9.54 7.84-14 12Z"/>
  <path fill="#F2EFF4" stroke="None" d="M400 351c4.33.52 7.36 6.01 13 5 5.64-1.01 10.92 3.35 17 2 17.56-10.68 31.6-28.53 43-45-9.5 25.16-28.95 49.13-52 64 .27-.04 1.87.36 3 0 12.39-5.17 21.08-17.05 34-21-7.98 19.68-24.23 35.44-40 50 39.37-24.4 65.91-68.07 68-114-28.51 19.44-56.43 41.44-86 59Z"/>
  <path fill="#8980A7" stroke="None" d="M441 303c2.36-1.54 5.2-2.48 7-5 .39-.55.5-1.46 1-2-3.06 2.1-5.32 4.5-8 7Z"/>
  <path fill="#414C70" stroke="None" d="M309 303c3.09-.71 5.36-2 8-3-2.91.74-5.45 2.09-8 3Z"/>
  <path fill="#827F89" stroke="None" d="M141 319c.9-.65 2.12-.58 3-1 1.11-1.27 2.81-2.61 4-4 2.91-3.41 7.26-8.53 9-11-5.43 5.07-11.12 10.29-16 16Z"/>
  <path fill="#374367" stroke="None" d="M293 307c3.92-.72 7.56-1.95 11-3-4.5.61-7.15 1.7-11 3Z"/>
  <path fill="#4A5D7F" stroke="None" d="M92 323c5.32-5.76 11.82-10.94 17-17-5.64 5.64-11.85 10.48-17 17Z"/>
  <path fill="#7C6494" stroke="None" d="M188 308c-12.78 6.17-19.3 19.29-28.75 29.25s-19.4 31.89.75 31.75c20.15-.14 30.76-2.79 48-9-8.97-16.15-17.4-33.37-20-52Z"/>
  <path fill="#9196C3" stroke="None" d="M392 318c-.25.28 0 1 0 1 5.16-2.85 10.65-5.08 15-9-4.56 2.11-11.49 4.08-15 8Z"/>
  <path fill="#475E80" stroke="None" d="M100 340c8.79-8.79 17.12-18.12 26-27-9.46 8.09-18 17.64-26 27Z"/>
  <path fill="#E2E4F2" stroke="None" d="M178 396c-.06.01 0 1 0 1 39.6-3.83 80.96-14.54 116.77-29.23 35.81-14.69 63.28-31.42 97.23-48.77 0 0-.25-.72 0-1-67.89 33.57-138.31 66.94-214 78Z"/>
  <path fill="#6578A2" stroke="None" d="M52 356c1.78-4.88 3.61-.11 4 3-.88-5.35 3.93-7.72 5-12v-1c-2.81-5.14-3.44-15.23-4-21-.15 5.49.91 11.42-2 16-3.06-3.03-2.38-2.45-4 1-.36-7.43-2.06-14.83-4-22 1.19 12.34 3.23 24 5 36Z"/>
  <path fill="#6080A8" stroke="None" d="M86 358c-1.75 2.26-4.3 4.66-6 7-1.09 2.38-2.6 5.82-4 8 1.29.17 1.75 1.7 3 2 5.96-9.88 18.59-13.99 25-23 1.4 2.49 2.48.8 4-1 .49-.99 1.42-2.93 2-4-4.53-1.23-11.04 10.68-15 7-.34 6.27-6.11 6.83-10 8-.44-1.59.52-2.69 1-4Z"/>
  <path fill="#656794" stroke="None" d="M52 356c-1.57 11.55-10.84 21.07-14.68 33.32s-5.88 30.76-1.65 43.01c4.23 12.24 9.51 21.7 21.1 27.9 11.59 6.2 24.4 12.18 38.23 11.77 13.83-.41 25.87 2.91 32 17-13.71 2.41-26.3 6.27-39.99 9.01-13.7 2.73-25.34 7.05-39.33 9.67-14 2.62-20.94 7.47-30.43 18.57C7.75 537.35.47 544.67 3 561c2.53 16.33-1.32 32.67 0 49s-.99 32.67 0 49c9.1 6.38 19.11 12.76 27 21 87.35-26.84 177.65-45 272-45 2.75-.27 6.58-1 10-1h8c8.02 0 16.74.3 24 1 14.75-2.03 33.13 5.49 44-7 .38.72-.48 2.36 0 3 .82 1.11 1.33 2.3 1 4 1.57.39 4.22-.94 5 1 21.24.35 44.39 3.17 65 5s40.73 5.28 59.93 8.07c19.19 2.79 38.33 12.67 56.07 4.93-.73 10.78 13.85 8.43 21.78 11.22 7.92 2.8 16.97 5.13 25.21 7.79 8.24 2.66 17.61 4.71 26.01 6.99v-93c7.04.29 13.56 2.58 20 5 .19-13.53-.26-29.74 0-43 .26-13.26 3.44-30.28-10.33-32.67-13.77-2.39-21.13-6.57-33.65-9.35-12.51-2.78-22.6-5.78-34.8-8.2-12.2-2.43-22.95-5.95-35.22-7.78 1.17-1.62 2.6-3.5 4-5-1.57.65-5.13 1.54-7-2-1.83 2.26-9.9 5.49-9 5-2.65 1.54-4.86 4.18-6 7 11.75 2.8 25.46 1.64 34 12 4.49-7.76 16.04-.51 24.99 1.01 8.95 1.51 18.3 3.84 27.94 6.06 9.63 2.23 15.49 6.42 26.85 7.15 11.36.74 11.27 13.18 10.22 23.78-1.05 10.6.78 23.22 0 34-6.76-1.36-13.29-3.55-20-5v93c-19.27-4.18-37.61-11.42-57-15v-14c-8.95.38-15.07 11.8-23.93 8.93-8.86-2.88-19.4-3.09-28.06-5.94-8.67-2.85-20.37.7-24.01-9.99-3.66 9.33-18.75 1.6-27.99 1.99-9.24.4-6.32-.37-15.99-2.01-9.66-1.65-23.18-2.28-33.02-2.98-9.84-.7-8.88-.5-16.78-1.22s-9.58-1.08-17.22-.78v-16c-11.43 5.94-20.01 18.75-35 15-14.99-3.75-31.5 3.04-45-4-2.03 5.53-11.77 2.61-18 3-6.23.39-13.56.93-20 1-6.44.07-13.95.73-19-2-9.78 7.12-25.52 4.49-37.98 6.02-12.45 1.54-26.65 4.07-39.01 4.99-12.37.92-25.85 7.58-36.01 1.99-4.88 7.34-16.79 7.23-24.93 9.07-8.14 1.85-20.48 7.51-26.07 1.93-9.44 12.71-23.19 8.12-36.77 14.23-13.58 6.1-23.27 8.47-36.48-.98C8.54 651.8 12.4 637.11 12 621c-.4-16.11 1.28-35.03 0-51-1.28-15.97.84-27.94 11.25-38.75 10.41-10.81 19.12-15.94 33.08-17.92C70.29 511.35 82.66 503.29 95 512c-2.17-11.67 12.54-9.71 20.98-12.02 8.43-2.31 19.22-3.46 28.02-4.98-6.01-12.41-20.22-21.18-26-34-8.82 1.63-20.42 1.11-28.99-.01-8.57-1.11-15.72-3.2-22.78-7.22-7.06-4.02-12-7.28-16.92-14.07-4.93-6.8-6.2-15.18-6.31-23.7-.11-8.52 1.02-18.78 4.68-26.32 3.66-7.54 3.63-13.39 10-20 6.37-6.61 2.79-14.71 3.32-22.68-1.07 4.28-5.88 6.65-5 12-.39-3.11-2.22-7.88-4-3Z"/>
  <path fill="#636996" stroke="None" d="M430 358c-6.08 1.35-11.36-3.01-17-2-5.64 1.01-8.67-4.48-13-5-16.57 8.63-33.07 18.54-49 28 27.16 1.8 57.8-3.59 79-21Z"/>
  <path fill="#7C6695" stroke="None" d="M473 379c4.17-2.19 9.72 6.27 13.78 7.57 4.05 1.29 12.91 7.27 19.22 5.43 6.31-1.84 15.66-3.58 22 0 .87 3.62-4.5 1.85-4 5 6.72-3.48 10.07 4.39 16.08 7.92 6.02 3.52 13.78 4.09 19.92 4.08.54-1.08 1.41-2.79 2-4-8.49 8.8-25.88-3.96-31.77-12.23-5.89-8.27-12.34-3.39-19.23-2.77-6.89.62-15.69-1.69-20.92-4.08-5.24-2.39-9.2-10.65-14.08-9.92-.65.9-2.2 1.93-3 3Z"/>
  <path fill="#C9B7D0" stroke="None" d="M400 387c-.22.13 0 1 0 1 8.43-3.11 16.29-6.52 24-11-1.13.36-2.73-.04-3 0-6.87 1.05-14.3 7.53-21 10Z"/>
  <path fill="#656898" stroke="None" d="M473 379c-9.08 12.23-17.78 23.95-30.75 33.25-12.97 9.29-25.56 16.92-41.03 22.97-15.47 6.06-34.57 10.31-52.22 11.78-17.65 1.47-40.44-3.07-56.93-7.07-16.48-4-28.29-18.86-44.05-11.91-15.75 6.96-31.72 11.23-47.79 16.21-16.07 4.97-32.67 10.46-48.23 12.77 6.56 1.11 10.74 11 16.25 14.75S180.42 481.82 184 487c13.02-.79 27.15-3.2 40-4 12.85-.8 25.88-5 36 4-2.57-9.3 9.46-7.86 16-8 6.54-.14 15.58-1.4 22-1 6.42.4 18.71-3.35 18 5 7.97-7.92 22.12-5.28 32.99-4.99 10.88.29 23.35-.15 32.01 5.99 1.98-8.22 14.45-2.42 22-3 7.55-.58 17.18.93 25 1 7.82.07 16.11 1.66 24 2 7.89.34 16.16 1.46 24 2 7.83.55 15.29 2.14 23 3 24.58-23.14 46.18-50.24 61-80-6.14.01-13.9-.56-19.92-4.08-6.01-3.53-9.36-11.4-16.08-7.92-.5-3.15 4.87-1.38 4-5-6.34-3.58-15.69-1.84-22 0-6.31 1.84-15.17-4.14-19.22-5.43-4.06-1.3-9.61-9.76-13.78-7.57Z"/>
  <path fill="#715B78" stroke="None" d="M400 388s-.22-.87 0-1c-2.29-.16-3.75 2.14-6 2 1.04 2.03 5.01.12 6-1Z"/>
  <path fill="#A1A6B7" stroke="None" d="M165 391h-10c3.08.3 6.86.3 10 0Z"/>
  <path fill="#AEB2DA" stroke="None" d="M178 397s-.06-.99 0-1c-3.51-.23-6.39 1.71-10 1 1.91 1.43 8.12 1.94 10 0Z"/>
  <path fill="#878BB9" stroke="None" d="M188 412c.35.04.81.98 1 1 3.66-1.11 7.48-1.48 11-3-2.99-1.27-8.68 1.31-12 2Z"/>
  <path fill="#F5F4F7" stroke="None" d="M184 487c-3.58-5.18-10.24-11.5-15.75-15.25S158.56 458.11 152 457c-4.59-.28-8.6 1.67-13 2 10.7 12.82 23.19 26.57 37 36-1.98-6.92 2.83-7.36 8-8Z"/>
  <path fill="#A09AA3" stroke="None" d="M282 497c5.43-1.13 11.51.84 17 0-2.05-2.93-14.33-.94-17 0Z"/>
  <path fill="#F4F2F6" stroke="None" d="M316 507c-1.55 5.16.42 12.62 0 18-.42 5.38-1.21 12.73 2 17 5.42 5.37 13.5 9.01 18.92 14.08 5.43 5.06 16.84 6.04 21.08 11.92 1.98 2.74 1 8.42 1 12v8h-22c.4-8.77 2.12-17.53-8-17-10.12.53-15.58-1.27-15 9 .58 10.27-1.73 13.98 5.25 19.75 6.98 5.78 6.44 8.25 15.75 8.25 4.74 0 10.01.61 14 1 11.31.74 19.79 1.18 27.75-7.25 7.96-8.42 2.04-18.86 4.25-29.75s-3.93-16.95-12.75-21.25c-8.82-4.29-10.92-10.14-20.17-13.83-9.25-3.69-14.03-11.99-11.08-22.92 7.92-.61 15.07 1.72 23 1v15c5.27-2.47 16.3 3.29 21 0-1.29-8.19 3-18.51-3-25-3.11-2.66-6.23-6.61-10-8-3.05-.68-8.45-.75-11-1-13.5 0-33.95-4.07-41 11m60 55c1.7 3.18 1 8.09 1 12v22c-7.11 7.74-15.68 10.57-26.07 8.07-10.4-2.5-22.28 4.16-28.93-7.07-3.47-2.96-7.76-17.67-3-21 3.13-2.19 10.48 1.64 14 0v16h15c3.2 0 10.18 1.37 13 0 4.17-2.95 4.38-24.94-1.7-28.3-6.07-3.36-16.2-7.61-21.3-12.7 14.34-1.38 28.59-.21 38 11Z"/>
  <path fill="#817B86" stroke="None" d="M368 497c-3.2-1.18-7.1-1-11-1 2.55.25 7.95.32 11 1Z"/>
  <path fill="#F7F5F9" stroke="None" d="M299 497c-5.49.84-11.57-1.13-17 0h-4v112c7.14.14 13.73-1.73 21-1-.05-6.21.06-12.84 0-19s.12-11.9 0-18 .25-13 0-19 .58-12.24 0-18 1.23-13.71 0-19c-1.23-5.29 2.87-13.9 0-18m-4 53v54h-13v-54h13Z"/>
  <path fill="#F5F3F7" stroke="None" d="M456 502c-21.22-1.81-42.53-3.22-64-4v19c7.28-.76 13.82 1.41 21 1-.05 9.77.07 19.2 0 29s.14 19.08 0 29c-.14 9.92.3 18.78 0 29-.3 10.22 14.96 4.53 22 7v-93c6.68 1.65 13.95.81 21 1v-18m-25 52v53c-7.76 1.29-15.27.56-14-8 1.27-8.56-.64-13.94 0-22s-.48-15.04 0-23h14Z"/>
  <path fill="#F6F4F8" stroke="None" d="M194 512v13c2.67 27.56.2 57.17 1 85 4.09-6.19 1.37-17.24 2-26 .63-8.76-.47-19.1 0-28 1.05 1.37 3.44.23 4 2 15.4.47 22.97-2.1 39.22-3.78 16.25-1.67 17.23 12.4 16.78 25.78-.45 13.38-1.15 25.43-16 27-14.85 1.57-24.79 1.75-39 4-2.08.33-4.35 1.07-7 0-.28 1.28.76 3.5-1 4 12.33 1.31 29.98-3.65 42.99-3.01 13.02.64 25.8-9.67 24.01-22.99-1.79-13.32 6.23-32.02-9-38 10.51-6.12 6.84-17.03 8-27 1.16-9.97-1.84-19.77-11.75-23.25-9.92-3.47-20.74-.4-31.24.26-10.5.65-23.01-1.04-23.01 10.99m21 33c-2.71-1.87-.18-7.11 0-9v-16c7.95.77 15.12-1.44 23-1v24c-7.59.95-15.28 1.51-23 2Z"/>
  <path fill="#F8F6FA" stroke="None" d="M488 505c-7.03-.62-13.8-2.12-21-2v112c7.22-.14 13.7 2.55 21 2V505m-5 55c.49.08 1 0 1 0 5.03 4.87-.86 18.83 1 26 1.86 7.16-1.4 19.38 0 27-1.57-.39-4.22.94-5-1-2.26.12-3.36-.24-5-1-1.19-.42-2.78.32-4 0v-52h3c2.82-.82 6.3.55 9 1Z"/>
  <path fill="#9A8D9D" stroke="None" d="M381 530c3.63-2.54-.56-9.8 1-14 1.56-4.2-.92-8.37-4-11 6 6.49 1.71 16.81 3 25Z"/>
  <path fill="#988C9B" stroke="None" d="M318 542c-3.21-4.27-2.42-11.62-2-17 .42-5.38-1.55-12.84 0-18-3.08 6.59-3.18 29.87 2 35Z"/>
  <path fill="#F6F5F8" stroke="None" d="M113 518c-4.44 4.22.27 15.86-1 22-1.27 6.14.42 16.27 0 23s-.14 16.31 0 23c.14 6.69-.8 17.01 0 23 .8 5.99-2.91 18.89 2 21 6.51-.69 12.9-1.82 19-4-.05-6.55.07-17.94 0-24-.07-6.06-1.59-19.83 3.99-20.01 5.59-.18 15.66-6.2 18.01-.99 2.35 5.21-.84 18.14 0 24 .84 5.86-.37 17.31 7.93 15.93 8.29-1.39 11.9-2.73 20.07-2.93-15.74-14.23 2.78-41.84-15-54 4.87-3.09 8.01-7.05 8-12-.03-8.82 3.55-28.17-2-35-4.74-4.34-10.42-9.42-16.99-6.99-6.57 2.42-15.64 1.12-22 4-6.37 2.87-16.38.17-22.01 3.99m21 44c-2.72-.47-2.71-8.54-2-13 .71-4.46-2.15-13.03 1-16 4.46-4.21 16.94.11 22-4v30c-6.97 1.06-13.85 2.56-21 3m38 11c1.07 13.98-2.67 29.26 3 42-4.96-.47-9.23 1.6-14 2-4.18-12.03-1.01-26.1-2-39-8.71-5.85-19.79.02-30 1 1.15 10.63-1.54 19.16 0 30s-1.76 18.13-14 17c-1.62-14.78 2.16-25.85 0-41-2.16-15.15 14.98-12.06 26-15 11.02-2.94 22.17-6.51 31 3Z"/>
  <path fill="#F4F1F6" stroke="None" d="M526 548c-1.81-3.59-2.22-16.5 1-17 7.8 2.79 25.04-.9 22 12-3.04 12.9 13.27 9.56 21 12 1.78-12.86.61-24.66-9.25-32.75s-21.44-6.12-32.53-9.47c-11.09-3.35-22.9 2.44-23.22 14.22-.32 11.78-2.55 27.22 7.25 34.75 9.79 7.53 12.78 13.13 23.5 18.5 10.73 5.36 16.59 14.79 13.25 27.75-6.99-.22-11.96-2.38-18.97-3.03-7.02-.64-3.04-11.83-4.03-16.97-6.98-2.68-14.51-3.32-22-4 .12 10.35-2.33 22.45 5.25 29.75C516.82 621.06 521 625.84 532 626c11 .16 16.75 6.44 27.77 3.77C570.79 627.1 571.39 616.3 571 606c-.39-10.3 1.15-21.22-6.75-27.25-7.91-6.02-12.38-10.76-19-16-6.63-5.23-15.7-7.72-19.25-14.75m41 37c-2.63 11.25 6.17 33.27-6.23 38.77s-24.02-2.96-36.99-4.55C510.8 617.64 504.72 601.04 508 589c4.78.16 9.19 1.84 14 2v17c10.76.28 20.58 4.24 31 6-.49-10.32 3.4-26.43-6.75-31.25-10.14-4.82-13.55-11.98-24.25-14.75 15.27 1.23 33.05 5.27 45 17Z"/>
  <path fill="#5E5264" stroke="None" d="M194 559v-47c-1.42 14.69-1.43 32.24 0 47Z"/>
  <path fill="#8C7E92" stroke="None" d="M176 552c.94-8.17 4.78-28.8-2-35 5.55 6.83 1.97 26.18 2 35Z"/>
  <path fill="#AA9AB0" stroke="None" d="M114 630c-4.91-2.11-1.2-15.01-2-21s.14-16.31 0-23c-.14-6.69-.42-16.27 0-23s-1.27-16.86 0-23c1.27-6.14-3.44-17.78 1-22-4.17 17-1.33 37.33-2 56-.67 18.67.5 38.25 0 57 .92.91 2.78-1.01 3-1Z"/>
  <path fill="#402C4A" stroke="None" d="M215 536v9c7.72-.49 15.41-1.05 23-2v-24c-7.88-.44-15.05 1.77-23 1v16Z"/>
  <path fill="#F6F4F8" stroke="None" d="M598 546c6.34 3.07 1.87 14.09 3 21s-1.05 17.86 0 25c1.05 7.14-1.67 18.44 0 25 1.67 6.56-3.88 19.53 1 24 7.03.38 13.16 4.06 20 5v-94c7.08 1.44 13.7 4.5 21 5v-18c-20.37-6.04-40.92-11.6-62-15v19c5.35 1.16 12.09.63 17 3m20 42v52c-4.67.29-8.71-1.81-13-3v-52c4.58.04 8.26 3.42 13 3Z"/>
  <path fill="#E7E0EF" stroke="None" d="M194 559c0 5.95-.43 13.18 0 19s-1.15 13.65 0 19-2.82 13.8 0 18c1.76-.5.72-2.72 1-4 2.65 1.07 4.92.33 7 0-1.32-.15-2.68.12-4 0v-53h3c-.56-1.77-2.95-.63-4-2-.47 8.9.63 19.24 0 28-.63 8.76 2.09 19.81-2 26-.8-27.83 1.67-57.44-1-85v34Z"/>
  <path fill="#F7F4F8" stroke="None" d="M29 552c-2.05 9.25.34 21.58 0 31-.34 9.42-1.14 22.02 0 31s-3.86 22.69 1 30c10.62 11.38 22.83 2.96 34.98-.02C77.12 640.99 88.12 637.56 94 625c2.64-8.81-.68-20.73 0-30s.82-20.77 0-30 2.86-21.31 0-30c-7.41-14.65-24.2-5.98-35.93-3.93-11.72 2.05-24.52 8.6-29.07 20.93m44-6v75c-8.08 2.11-15.78 5.32-24 7 .46-25.3-1.04-51.09 1-76 7.86-1.23 15.32-3.99 23-6m16 79c-8.1 12.18-17.87 11.11-29.68 16.32C47.51 646.53 30.5 647.12 32 631s-6.49-32.61 13-34v36c10.85-2.26 21.36-5.87 32-9v-39c4.61.08 8.63-2.06 13-3 3.26 2.03.13 10.04 1 14 .87 3.96-.53 10.42 0 15s.32 10.51-2 14Z"/>
  <path fill="#412C4A" stroke="None" d="M133 533c.68 4.15-.91 11.13 0 15 .91 3.87-2.21 11.85 1 14 7.15-.44 14.03-1.94 21-3v-30c-5.06 4.11-17.54-.21-22 4Z"/>
  <path fill="#918695" stroke="None" d="M526 548c-.83-2.51-.99-15.69 1-17-3.22.5-2.81 13.41-1 17Z"/>
  <path fill="#99909C" stroke="None" d="M134 562c-3.21-2.15-.09-10.13-1-14-.91-3.87.68-10.85 0-15-3.15 2.97-.29 11.54-1 16-.71 4.46-.72 12.53 2 13Z"/>
  <path fill="#928995" stroke="None" d="M94 625c3.68-7.88.4-20.8 1-30s.62-21.89 0-31 2.87-21.34-1-29c2.86 8.69-.82 20.77 0 30s.68 20.73 0 30 2.64 21.19 0 30Z"/>
  <path fill="#A59BAB" stroke="None" d="M215 545v-9c-.18 1.89-2.71 7.13 0 9Z"/>
  <path fill="#432F4C" stroke="None" d="M73 546c-7.68 2.01-15.14 4.77-23 6-2.04 24.91-.54 50.7-1 76 8.22-1.68 15.92-4.89 24-7v-75Z"/>
  <path fill="#8A7E8C" stroke="None" d="M602 641c-4.88-4.47.67-17.44-1-24-1.67-6.56 1.05-17.86 0-25-1.05-7.14 1.13-18.09 0-25s3.34-17.93-3-21c5.51 3.78.65 16.32 2 23s-1.01 17.95 0 25c1.01 7.05-1.33 18.42 0 25 1.33 6.58-3.57 18.37 2 22Z"/>
  <path fill="#636895" stroke="None" d="M295 550h-13v54h13v-54Z"/>
  <path fill="#646796" stroke="None" d="M361 592c-3.54 2.5-9.54.34-13 0h-15v-16c-3.52 1.64-10.87-2.19-14 0 .74 7.22-2.22 15.36 3 21 6.65 11.23 18.53 4.57 28.93 7.07 10.39 2.5 18.96-.33 26.07-8.07v-22c-.24-2.49-.04-9.26-1-12-9.41-11.21-23.66-12.38-38-11 5.1 5.09 15.23 9.34 21.3 12.7 6.08 3.36 5.87 25.35 1.7 28.3Z"/>
  <path fill="#857B8A" stroke="None" d="M30 644c-4.86-7.31.14-21.02-1-30-1.14-8.98-.34-21.58 0-31 .34-9.42-2.05-21.75 0-31-3.1 8.4-.72 21.57-1 31s-.9 23.02 0 32-3.76 22.83 2 29Z"/>
  <path fill="#646895" stroke="None" d="M201 558h-3v53c1.32.12 2.68-.15 4 0 14.21-2.25 24.15-2.43 39-4 14.85-1.57 15.55-13.62 16-27 .45-13.38-.53-27.45-16.78-25.78-16.25 1.68-23.82 4.25-39.22 3.78m40 37c-3.81 1.84-9.74-.49-14.01.99s-10.45.17-14.99 1.01v-36c6.92.67 13.07-1.67 20-1 2.94-.28 7.35-1.86 11-1-1.31 11.52 2.63 26.9-2 36Z"/>
  <path fill="#666C9A" stroke="None" d="M431 554h-14c-.48 7.96.64 14.94 0 23s1.27 13.44 0 22 6.24 9.29 14 8v-53Z"/>
  <path fill="#A8ABC5" stroke="None" d="M232 560h10c-.64 11.59 1.3 23.86-1 35 4.63-9.1.69-24.48 2-36-3.65-.86-8.06.72-11 1Z"/>
  <path fill="#535A75" stroke="None" d="M475 611c1.13.52-1.77-2.27-3-2 1.3-16.34-2.62-35.39 2-50h-3v52c1.22.32 2.81-.42 4 0Z"/>
  <path fill="#616999" stroke="None" d="M475 611c1.64.76 2.74 1.12 5 1 .5-.03 1.51.08 2 0 3.72-2.87 0-11.27 1-16s-.56-12.67 0-18-.5-12.51 0-18c-2.7-.45-6.18-1.82-9-1-4.62 14.61-.7 33.66-2 50 1.23-.27 4.13 2.52 3 2Z"/>
  <path fill="#EFEDF4" stroke="None" d="M241 595c2.3-11.14.36-23.41 1-35h-10c-6.93-.67-13.08 1.67-20 1v36c4.54-.84 10.72.47 14.99-1.01s10.2.85 14.01-.99m-3-28c1.34 2.69 1.5 8.74 1 12s1.68 10.12-1 12c-2.61 1.83-7.7-1.45-10.67.33-2.97 1.78-7.95.05-11.33.67v-27c7.54.53 14.39-1.75 22-1v3Z"/>
  <path fill="#535676" stroke="None" d="M482 612c4.12-.65 1.55-11.54 2-16 .45-4.46.01-12.83 0-18s.48-12.66 0-18c0 0-.51.08-1 0-.5 5.49.56 12.67 0 18s1 13.27 0 18 2.72 13.13-1 16Z"/>
  <path fill="#B9B9D0" stroke="None" d="M482 612c-.49.08-1.5-.03-2 0 .78 1.94 3.43.61 5 1-1.4-7.62 1.86-19.84 0-27-1.86-7.17 4.03-21.13-1-26 .48 5.34-.01 12.83 0 18s.45 13.54 0 18c-.45 4.46 2.12 15.35-2 16Z"/>
  <path fill="#7A7E93" stroke="None" d="M377 574c0-3.91.7-8.82-1-12 .96 2.74.76 9.51 1 12Z"/>
  <path fill="#422E4A" stroke="None" d="M238 591c-1.76-7.43 2.35-16.76 0-24v-3c-7.61-.75-14.46 1.53-22 1v27c3.38-.62 8.36 1.11 11.33-.67 2.97-1.78 8.06 1.5 10.67-.33Z"/>
  <path fill="#676A98" stroke="None" d="M172 573c-8.83-9.51-19.98-5.94-31-3-11.02 2.94-28.16-.15-26 15s-1.62 26.22 0 41c12.24 1.13 15.54-6.16 14-17-1.54-10.84 1.15-19.37 0-30 10.21-.98 21.29-6.85 30-1 .99 12.9-2.18 26.97 2 39 4.77-.4 9.04-2.47 14-2-5.67-12.74-1.93-28.02-3-42Z"/>
  <path fill="#A696A9" stroke="None" d="M238 591c2.68-1.88.5-8.74 1-12s.34-9.31-1-12c2.35 7.24-1.76 16.57 0 24Z"/>
  <path fill="#666A94" stroke="None" d="M567 585c-11.95-11.73-29.73-15.77-45-17 10.7 2.77 14.11 9.93 24.25 14.75 10.15 4.82 6.26 20.93 6.75 31.25-10.42-1.76-20.24-5.72-31-6v-17c-4.81-.16-9.22-1.84-14-2-3.28 12.04 2.8 28.64 15.78 30.22 12.97 1.59 24.59 10.05 36.99 4.55 12.4-5.5 3.6-27.52 6.23-38.77Z"/>
  <path fill="#594E5A" stroke="None" d="M359 580c0-3.58.98-9.26-1-12 1.02 2.05.81 10 1 12Z"/>
  <path fill="#A6A7BB" stroke="None" d="M322 597c-5.22-5.64-2.26-13.78-3-21-4.76 3.33-.47 18.04 3 21Z"/>
  <path fill="#656997" stroke="None" d="M89 625c5.68-12.28-2.17-29.92 1-43-4.37.94-8.39 3.08-13 3v39c-10.64 3.13-21.15 6.74-32 9v-36c-19.49 1.39-11.5 17.88-13 34s15.51 15.53 27.32 10.32C71.13 636.11 80.9 637.18 89 625Z"/>
  <path fill="#AEADCB" stroke="None" d="M89 625c2.32-3.49 2.53-9.42 2-14-.53-4.58.87-11.04 0-15-.87-3.96 2.26-11.97-1-14-3.17 13.08 4.68 30.72-1 43Z"/>
  <path fill="#626895" stroke="None" d="M618 588c-4.74.42-8.42-2.96-13-3v52c4.29 1.19 8.33 3.29 13 3v-52Z"/>
  <path fill="#AEAED2" stroke="None" d="M361 592c-2.82 1.37-9.8 0-13 0 3.46.34 9.46 2.5 13 0Z"/>
  <path fill="#94839A" stroke="None" d="M349 609c-3.99-.39-9.26-1-14-1 3.99.39 9.26 1 14 1Z"/>
  <path fill="#9EA1B2" stroke="None" d="M394 636c-.78-1.94-3.43-.61-5-1 .33-1.7-.18-2.89-1-4 2.21 4.45-.14 4.53 6 5Z"/>
  <path fill="#ACB2C4" stroke="None" d="M302 635c3.42 0 7.25-.73 10-1-3.42 0-7.25.73-10 1Z"/>
  <path fill="#B2B4D0" stroke="None" d="M344 635c-7.26-.7-15.98-1-24-1 7.26.7 15.98 1 24 1Z"/>
</svg>