<svg xmlns="http://www.w3.org/2000/svg" width="1365.333" height="1365.333" version="1.0" viewBox="0 0 1024 1024">
  <path d="M481.5 85.6c-12.3 1.5-21.9 5.4-29.7 12.3-9.2 8.1-14.3 19.4-15.7 34.4l-.6 7.2-5.1.5c-8.9.9-11.4 4.8-12.2 19.2l-.5 9.9-3.9 2c-4.9 2.5-7.5 6.8-8.4 13.5-.7 5.8 1.4 13.7 4.9 18.7 2.3 3.4 3.7 1.6-12 15.1-5.6 4.8-10.7 8.5-11.3 8.1-.6-.4 2.5-4.4 7.4-9.6 9.9-10.4 10.9-13 8.2-21.6-2.3-7.4-9.5-14.8-15.1-15.7-3.3-.6-5.4-2.2-12.5-9.5-10-10.3-14.1-12.5-22.5-12.4-5 .1-6.4-.3-8.9-2.4-5.9-4.9-14.7-1.5-31 11.9-16.1 13.3-14.2 12.3-22 12.3-9.4-.1-18.7-4.1-21-9-.9-1.8-1.6-3.8-1.6-4.3 0-1.8-6-6.1-9.5-6.8-10.2-1.9-35.9 14.4-59.4 37.6-14.2 14.1-18.4 22-16.7 31.5.5 2.2 3.6 7.4 8.4 13.8 13.5 17.9 15.8 22.5 14.9 30.3-.7 6.3-2.5 8.4-15.2 18-6.3 4.8-12.4 10.1-13.5 11.9-2.5 4.1-2.5 9.2 0 13 1.5 2.2 2 4.7 2 9.5 0 8.7 1.6 13.8 5.4 17.6 3.5 3.5 10.4 5.9 14.7 5 2.4-.5 2.8-.1 4.4 4.1 4.6 12.1 16.4 17.7 25.4 12.2 1.9-1.2 8.8-7.3 15.3-13.7 8.8-8.6 12.1-11.3 13-10.4.8.8-.1 2.4-3.6 6.3-4.6 5.2-10.4 15.8-12.6 23.4-1.1 3.7-1.6 4.1-7.1 5.9-12.2 3.8-23.1 13.2-29.1 25-6.8 13.5-8.9 23.1-9.7 46.1l-.6 18-7.3.3-7.4.3.7 12.3c.4 6.7 1 18.7 1.4 26.7l.6 14.4 12.2.3 12.3.3.2 3.2c.1 1.8.1 4.1 0 5.2 0 1.1.5 5.1 1.3 9 .8 3.8 2.1 11.5 3 17 2 12.9 3.7 18.4 9.7 33 21.8 52.4 47.5 86.9 88.3 118.6 6.1 4.7 13.3 10 16 11.9 2.8 1.8 8.3 5.8 12.3 8.8 7.1 5.2 7.4 5.6 7 9l-.4 3.5 13 6.3c22.1 10.5 38.9 15.3 59.3 16.8l7.2.5 1.9-3.2c2.2-3.6 3.7-16.8 4.8-40.2.6-12.4.5-14.3-1-15.8-1.7-1.6-10.5-4.7-13.5-4.7-.9 0-3.5-2.5-5.9-5.6-5.7-7.3-12.4-10.6-22-10.6-4 0-8.3.6-10.6 1.6-2.2.9-4 1.5-4.2 1.4-.1-.2 1.1-5.4 2.7-11.6 1.6-6.3 2.6-11.8 2.3-12.3-.3-.5-5.9-4.5-12.4-8.9-24.9-16.7-40.3-30.8-54.9-50-18.1-24-31.4-50.4-37.8-75-.5-2.1-1.7-3.9-3.1-4.5-1.2-.5-2.2-1.8-2.2-2.7 0-1.4.8-1.8 3.5-1.8 2.4 0 3.7-.6 4.5-1.9.6-1.2 1-11 1-24.8 0-24.2 1-39 3.6-56.6 1.7-10.8 3-13.7 6.3-13.7 2.6 0 6.1-4.2 6.1-7.2 0-1.8-1.1-3.6-3.4-5.5-2.7-2.3-3.4-3.7-3.9-7.8-1.6-13.9-10.8-23.5-26.2-27.1-2.7-.6-4.9-1.5-4.8-2 .2-.5 2.4-6.7 5-13.7 4.2-11.6 4.9-12.8 6.7-12.2 4.4 1.3 15.3 1.7 19.2.6 8.8-2.4 16.2-10.1 18.6-19.7 1.2-4.8 2.7-6.3 27.7-30.5l26.4-25.4 6.2-.7c11.4-1.1 19.5-7.5 24.1-18.8 2-4.9 2.5-7.6 2.2-11.2-.6-5.3-2.5-3 19-21.5 8.4-7.2 8.4-7.2 11.3-5.7 2.9 1.4 20.4 4.3 26.8 4.4 2.3 0 4.4 1 6.7 3 6.9 6 11 7.4 21.4 7.5 8.5 0 10.1-.3 14.7-2.8 6.3-3.3 8.2-3.3 43.6-1.2l25.2 1.6 7.4 3.7c6.7 3.4 8.2 3.7 15.5 3.7 6.6 0 9.5-.5 15.6-2.9 8.2-3.2 11.8-6 14.5-11.1l1.8-3.3 5.6 4.2c3.1 2.2 8.6 5.8 12.1 7.9 3.6 2.1 8.5 5.5 10.9 7.7l4.4 3.8-3.2 4.6c-4.5 6.4-6.1 10.8-6.1 16.1 0 9.7 4 14.3 18.5 21.1 7.7 3.6 9.6 5 13.6 10.1 2.5 3.2 5.5 7.4 6.7 9.4 3.7 6 10.6 9.5 16.9 8.3 1.9-.4 5.6-2.8 9.1-6 3.3-3 6.2-5.4 6.5-5.4.3 0 1.9 2.3 3.7 5 3.6 5.7 7.4 8.7 12.5 10.1 3.4 1 3.5 1.2 3.5 5.8 0 10.7 6.8 22.4 15.3 26.4 2.9 1.4 3.5 2.3 4.3 7.1.6 3 .8 5.4.5 5.4-.9-.2-11.3 1.3-13.5 1.9-1.6.4-1.8 1.2-1.3 5.9.6 6 1.2 5.5-8.5 7.4-7.7 1.5-11.8 5.3-11.8 10.7 0 3.4 5.6 30 13 62 2.8 12 5.1 14.3 14.4 14.3h6.2l1.2 6.2c.7 3.8.8 6.6.2 7.3-1.6 1.9-2.2 9-1.1 13 .6 2.2 2.3 5.3 3.7 6.9 2.6 2.7 2.6 3 1.5 8.1-.9 4.2-2 5.9-4.6 8-4.8 3.6-7.1 7.8-18.3 34.5-5.5 12.9-12.3 28.2-15.2 34-9.3 18.5-26.6 44-44.6 65.5-6 7.2-11.5 13.8-12.2 14.7-1.1 1.4-.5 2.5 4.9 8.5 6 6.7 19 24.1 23.9 32.3 4.5 7.4 15 12.5 21.1 10.2 5-2 12.6-9.9 32-33.7 27.2-33.5 55.2-80.1 70.6-117.7 3.9-9.7 2.9-18.4-3-25.4l-2.6-3.1 3-11.9c1.6-6.5 3.2-16.1 3.6-21.2.6-8.7.8-9.4 3.2-10.7 5.7-2.9 10.1-9.6 10.1-15.1 0-4.2-3.5-9.8-7.8-12.1-3.3-1.9-4-2.9-4.6-6.4-.8-4.9-.5-5.5 3.5-6.3 4.7-.9 8.7-4.3 9.8-8.1.7-2.6.4-6.5-1.1-15.1-2.2-12.5-2.1-13.4 2.9-13.4 3 0 4.6 3.1 3.3 6.6-2.3 6.1 2.7 12.4 9.9 12.4 9.1 0 15.2-8.2 10.7-14.5-1.4-2-1.9-6.5-3.5-29.5-.5-6.9-1.4-14.2-2-16.2-1.7-5.4-6.2-8.8-11.8-8.8-3.8 0-5 .5-8 3.5-3.5 3.5-3.5 3.5-3.1 11.2l.3 7.7-3.2.7-3.2.6-2.2-9.6c-1.2-5.3-2.8-10.8-3.7-12.3-2-3.5-6-5.1-11.6-4.6-4.3.3-4.6.1-5.2-2.5-.3-1.5-2.1-4.8-4-7.2-2.2-3-3.4-5.6-3.4-7.8 0-3.8-3-9.1-6.1-10.7-1.2-.7-3.6-1-5.4-.7l-3.3.5 1.1-3.4c1.9-6.2-2.1-14.7-8.6-18.1-2-1-5.5-1.6-9.4-1.6-6.1 0-6.2 0-6.9-3.1-.4-1.7-.8-5.8-.9-9.1-.1-5.5-.9-7.5-8.4-21.7-4.5-8.7-9.2-16.4-10.3-17.2-1.5-1.1-1.8-1.9-1.1-2.8 21.5-27.6 28.4-33.8 38-33.8 4 0 7.4 1.8 29.3 15.2 5.8 3.5 13.6 7.4 17.3 8.6 26.1 8.6 43.2-9.4 31.8-33.4-3.1-6.5-8-11.6-21.2-22.1-4.7-3.7-12.6-10.2-17.6-14.3l-9-7.4 4.3-8.4c5.2-10.1 6.9-17.2 5.5-23.2-1.2-5.4-6.2-10.7-11.6-12.1-7.8-2.1-22.2 1.9-31.2 8.8l-4.4 3.4-6.7-5.8c-3.7-3.2-12.5-10.9-19.7-17.2-14.4-12.6-18.6-15.1-26-15.1-17.1 0-26.8 18.4-18.6 35.5 2.9 6.2 13 19.9 21.8 29.5 6.3 7 7.3 8.9 7.3 14.3 0 3.9-.9 5.7-7.4 14.8-12.9 17.9-16.6 22.2-22.5 25.1-6.6 3.4-8.1 3.4-24.6.6l-13-2.2 2.7-2.9c3.4-3.5 6.8-14.1 6.8-20.9 0-4.5-.4-5.4-3.5-8.4-2.3-2.1-3.5-4.2-3.5-5.9 0-1.4-.5-4.7-1.2-7.3-3.3-13.5-14.3-21.1-34.1-23.8-6.2-.8-12.2-1.9-13.4-2.4-1.4-.6-3.9-4.6-7.2-11.5-11.3-23.5-20.5-32.4-39.6-38.5-5.4-1.7-11-2.4-24.5-3-17.1-.9-44.5-1-50.5-.4zm71.7 7.2c19.2 5.2 27.6 13.3 39.2 37.4 3 6.4 6.4 12.2 7.4 12.7s5.9 1.5 10.8 2.1c4.9.6 10.7 1.6 12.9 2.2l4 1-3.8 2c-7.2 3.6-8.6 13.1-3.1 20.3 3.4 4.5 7.2 6.5 12.4 6.5 7.2 0 10.5-6.4 6.9-13.6-.7-1.3-.7-3.3-.2-5.4l.9-3.4 2.3 3.7c2.8 4.6 5.1 12.8 5.1 18.4 0 3.7.3 4.3 2.5 4.9 4.7 1.2 4.7 12.1 0 16.1-2.9 2.6-7.3 2.8-29.2 1.7-12-.7-12.1-.7-12.6-3.3-.9-4.3-6.3-11.8-10.8-15.1-4.6-3.3-12.4-6-17.4-6-11.7 0-23.7 8.9-27.4 20.2l-1.3 3.8h-15.7c-8.7 0-19.1-.3-23.2-.6l-7.5-.7-1.7-5.9c-2-6.8-8.5-14.6-15.2-18.1-5.4-2.9-19.3-3.1-24.4-.4-8.6 4.7-16 14.4-16.1 21v2.9l-15.7-.8c-19.8-.9-20.6-1.1-21.7-5.6-2-7.8 2.2-15.8 8.4-15.8h3l.1-7.8c.1-18.6 2-22.3 11.7-23l5.9-.4.6-8.7c1.4-19.7 8.3-31.6 22.7-39.5 9.7-5.3 12.6-5.6 49-5.2 30.4.2 34.2.5 41.2 2.4zm160.3 6.1c2.2 1 7.2 4.7 11 8.1 3.9 3.5 12.3 11 18.8 16.8l11.9 10.4-13.9 14.2c-7.7 7.7-15.1 15.6-16.5 17.5l-2.6 3.4-.6-3.1c-.4-1.8-3.9-6.5-8.6-11.7-9.2-10-16.9-20-20.5-26.6-6.3-11.7-3.3-24.4 6.9-29 5.2-2.4 9-2.3 14.1 0zm81.8 25.4c5 2.1 6.2 4.3 6.1 10.6-.1 6.8-3.4 15.1-10 25.7-10.5 16.8-29 38.7-40 47.4-12.3 9.6-27.1 25.6-31 33.2-4.1 8.1-3.4 10.9 4.4 15.3 2.8 1.6 4.8 4.6 10.8 16.5 8.4 16.4 9.3 20.9 5.1 27.1-6.7 10-15.5 9.5-22.5-1.2-3.7-5.6-3.9-6.7-1.2-11.9s2.5-6.9-.9-11c-1.5-1.9-3.2-5.1-3.6-7-1.2-5.5-2.1-6.6-9.8-12.4-7.4-5.6-21.5-13.1-30.1-16-2.7-.9-6.5-3.1-8.4-4.8-3.2-2.7-4-3-8.6-2.5-4.8.4-5.3.2-9.9-3.7-4.8-4-8.7-9.9-8.7-13.1 0-2.1 8-2 22.5.5 26.5 4.5 32.2 2.1 49.2-20.5 3.3-4.4 7.7-10.6 9.7-13.8 8.6-13.3 38.3-44.5 49.8-52.2 10.1-6.7 20.3-9 27.1-6.2zm-161.9 30.1c-.3.8.2 4.4 1.1 8.1 1.6 6 1.6 6.9.2 8.3-3.4 3.3-11.7-3.4-11.7-9.5 0-3.6 3.5-7.7 6.1-7 1.1.3 1.9.1 1.9-.4s.7-.9 1.5-.9 1.2.6.9 1.4zM340 158.5c0 .3-2.7 1.8-6 3.5-5.9 3-20.1 15.3-18.9 16.4.3.3 4.9-2.3 10.2-5.8 5.4-3.4 11.5-7.1 13.7-8.1 3.6-1.6 4.3-1.7 5.6-.4 1.1 1.1 1.2 2.2.6 4-1.8 4.7 3.9 10.9 10.1 10.9 3.2 0 8.8-2 8.2-3-.2-.4-2.4-1-4.7-1.4-5.8-.9-8.8-3.1-8.8-6.2 0-5.8 3.4-7.7 9.5-5.4 1.5.6 7.4 5.8 13.1 11.6 9 9.1 10.9 10.5 13 10.1 5.3-1 13.4 9.3 13.4 17 0 3.5-.7 4.5-8.2 11.5-8.2 7.6-8.3 7.7-10.3 5.8-2.6-2.4-9.9-5.5-15-6.3-5.4-.9-14.6 1.4-19.6 4.9-8.5 5.8-13.9 18-12.5 27.7.4 2.5 1.8 6.7 3.2 9.4l2.5 4.8-4.9 4.5c-2.7 2.5-12 11.2-20.6 19.4l-15.7 14.9-2.7-2.5c-4.3-4-9.1-6-15.9-6.6-12.5-1-22.3 4.5-28.1 15.8-3.1 6-3.4 7.1-3 14 .2 5.1 1 8.9 2.4 11.7l2.1 4.3-12.7 12.4c-14.4 14-17.6 15.8-23.5 13-4.1-1.9-6.8-5.4-8.9-11.4-1-3.1-1.2-4.8-.5-5.6.7-.9.7-1.9-.1-3.3-1.4-2.6-1.6-2.6-5.2.4-1.7 1.4-3.3 2.4-3.5 2.1-.8-.8.8-2.7 4-4.6l3-1.9-2.7-1.2c-3.3-1.5-5.2-.6-8.1 3.9-1.1 1.7-2.3 3.1-2.7 3.2-.4 0-2.2-1.2-3.8-2.8l-3.1-2.7h4.5c3.9 0 5.1-.5 8.3-3.8 4.2-4.1 3.3-4.7-3.8-2.2-2.4.9-5.4 1.3-6.6 1.1-2.5-.7-4.2-5.1-3.3-8.6.4-1.4.5-3.6.2-4.8-.9-4.3 14.1-17.5 25.5-22.3 6.3-2.6 7.3-4.2 7.3-10.8 0-3.3.8-7.3 1.9-9.6 1.7-3.6 11.8-14.2 16.6-17.3 1.8-1.1 1.6-1.2-1.5-.6-4.6.8-7.6 2.5-12.7 6.8-5.5 4.8-8.3 10.8-9 19.6-.5 5.4-1 7.3-2.2 7.7-6.7 2-14.2 6.6-20.1 12.3-3.7 3.6-7 7.1-7.2 7.9-.8 2.6-2.8.1-2.8-3.4 0-3.7 1.1-4.6 20.3-19.2 6.8-5.1 8.4-7.5 9.9-14.4.9-4.5.8-6.4-.5-11-1.8-5.9-10.1-19.1-17.3-27.3-9.7-11.2-7.9-17.8 9.7-35.6 14.3-14.4 38.8-32.8 47.8-35.8 7.8-2.7 12.5-1.1 14.3 4.9.6 2.3 2.4 5.4 3.9 6.9 3.5 3.5 17.1 8 24.1 8 6.3 0 8.7-1.3 20.2-10.9 9.3-7.7 16.2-12.6 20.9-14.6 3.2-1.4 6.7-1.9 6.7-1zm470.6 21.6c21.8 18 26 22.3 28.4 28.7 1.1 2.9 2 6.4 2 7.8 0 5.9-5.5 11.4-12.7 12.7-8.3 1.6-21.7-3.7-39.8-15.7-13.5-9-14.6-9.5-19.6-10.4l-4-.7 8.1-9c4.4-5 10.8-12.9 14.2-17.7 3.5-4.8 6.6-8.7 6.9-8.7.4-.1 7.8 5.8 16.5 13zm-327.8-2.6c6.5 2 10.6 5.4 14 11.9 8.5 16.5-3.9 35.2-22.2 33.3-13.2-1.3-21.6-10.4-21.6-23.4 0-10.3 6.2-18.7 16-21.8 5.9-1.8 7.6-1.8 13.8 0zm108 5.4c4.8 2.5 9.7 7.7 11.6 12.3 2 4.7 2 13.5.2 18-1.8 4.1-8.5 10.4-13.2 12.4-4.7 2-14.1 1.7-18.9-.5-5-2.2-10.9-8.6-12.5-13.6-3.5-10.6 2.7-24.5 13-28.9 5.1-2.2 15.2-2 19.8.3zm-50.8 21c11 .6 11.5.7 11.8 2.9l.3 2.2-20.8-.5c-25.9-.7-27.3-.9-26.6-3.5.5-1.9 1.4-2 12.2-1.9 6.4.1 16.8.4 23.1.8zm108.4 1.8c-3.1 2.3-12 3.4-25.5 3.1-13.2-.3-13.4-.3-13.7-2.6l-.4-2.3 20.6.3c16.4.2 20.3.5 19 1.5zm123.8 3.2c1.3.5 6 3.5 10.3 6.6 18.3 13.1 30.4 18.5 41.6 18.5 6.8 0 12.1-1.9 16.3-5.8l2.9-2.7-1.9 3.4c-4.6 8.1-15 11-26.4 7.1-7.3-2.4-10.3-4-28-15-6.9-4.3-14.4-8.3-16.7-8.9-5.1-1.4-11.7-.1-17.1 3.3-4.7 2.9-17 15.9-24.2 25.3-3 4-5.6 7-5.8 6.8-2.5-2.4 25.6-33.2 33.9-37.3 4.6-2.3 11.1-2.8 15.1-1.3zm-402.1 10.6c9.1 3.2 15.2 12.1 15.2 22 0 7.3-2.4 12.6-8.2 17.8-12.1 10.9-32.4 5.3-37.6-10.3-6.1-18.4 12.1-36 30.6-29.5zm291.2 21.4c1.4 2.7 1.3 3.1-.4 4.7-4 3.6-7.9 10.7-7.9 14.3 0 5.2 4.9 12.2 12.5 17.9 2.6 1.9 1.9 1.7-4.5-.9-8.4-3.5-15.5-8-17-10.9-2.8-5.1.6-15.6 7.5-23.8 4.5-5.1 7.7-5.6 9.8-1.3zm22.1 10.6c12.1 5.9 22.6 13.6 24 17.6 1.6 4.8-.2 10-5.1 14.6-2.4 2.3-6 4.7-7.9 5.3-3.2 1.1-3.8.9-7.2-1.6-9-6.9-26.3-21.6-27.2-23.4-.5-1-1-3.5-1-5.5 0-2.9.8-4.4 4.6-8 2.5-2.5 5.5-4.5 6.7-4.5 1.1 0 7 2.5 13.1 5.5zm-338.7 13.2c.4 1-.2 2.3-1.8 3.6-1.3 1-10.6 9.6-20.7 19.1-10.1 9.4-18.8 17.1-19.4 17.1-.6 0-1.3-.5-1.5-1.1-.4-1.2 40-40.4 41.7-40.4.6 0 1.3.7 1.7 1.7zm367.6 19.7c-1.1 1.9-11.4 12.6-15.3 16-4.7 3.9-10 3.6-13.4-.7-9.9-12.2-12.7-15.9-12.3-16.3.2-.2 2.6 1.1 5.3 3.1 9.8 7.1 13.8 9.5 15.9 9.5 3.1 0 10.8-5.4 15.8-11 2.5-2.8 4.3-4.2 4.5-3.4.2.7 0 2-.5 2.8zm-429 10.7c2.1.6 5.6 2.7 7.8 4.6 8.2 7.4 10.7 17.5 6.9 27.5-3.4 9.2-10.9 14.1-21.2 14-13.1 0-23.8-10.6-23.8-23.5 0-5.3 3.1-12.5 7.1-16.5 6.2-6.3 14.6-8.5 23.2-6.1zm523.1 66.4c1.8 1.9 1.9 2.2 5.1 17 5 22.9 9.5 48 9.5 52.6 0 5-1.4 7-6.4 8.9-3.6 1.3-53.5 11.6-66.4 13.6-8.2 1.3-9.5 1.3-12.2-.1-1.8-.9-3.2-2.6-3.6-4.3-.3-1.5-.7-3.2-.9-3.9-.2-.7.5-1.5 1.6-1.8 4.7-1.5 5.7-9.8 2.9-24.6-2.4-12.5-3.8-16.7-7.6-21.6-1.8-2.4-3.3-3.3-5.3-3.3-2.6 0-2.9-.4-4.1-6-2.1-9.8-2.2-9.7 32-17.1 10.7-2.3 26-5.6 34-7.4 16.7-3.8 19.3-4.1 21.4-2zm31.1 1.1c.9.4 2.5 2.5 3.7 4.8 1.8 3.4 2.2 6.4 2.6 17.6.4 12.7.3 13.6-1.6 15.4-2.1 1.8-5 1.7-7.9-.1-1.5-1.1-6.3-24-6.3-30.3 0-3.9.4-5.2 2.2-6.4 2.4-1.7 4.6-2 7.3-1zm-600.8 18.8c-.3.7-3 2.7-5.9 4.4-11.6 6.5-20.6 20.9-25.2 40.2-2.7 11.2-4.6 25.1-4.6 33.8 0 3.9-.4 5.2-1.2 4.9-1.8-.6-1.3-27.1.7-38.9 1.7-9.6 6-22.1 9.5-27.3 4.2-6.4 12.6-13.7 19.5-17 6.6-3.2 8.4-3.2 7.2-.1zm40.3 25.5c0 1.6-.7 3.4-1.5 4.1-2.2 1.9-1.9 7.6.6 10.1l2.2 2.2-2.3 17.6c-1.6 12.9-2.4 25.1-2.8 45.3l-.5 27.8h-5.4l-.6-13.7c-1.6-32.9-.5-63.5 2.9-76.8 4.3-17.2 7.4-24.2 7.4-16.6zM785.8 458c.7 3.6.7 7.1.2 9-1.1 3.9.2 11.4 2.4 13.9.9 1 3.4 2.6 5.5 3.6 3.8 1.7 3.9 1.8 3.4 5.9-.3 2.2-.6 4.2-.7 4.2-.2.3-15-2.9-15.5-3.3-.2-.1.2-.9.9-1.7 4-4.9 4-14.8.1-20.4-1.9-2.7-3.8-14.3-2.6-16.2.3-.6 1.7-1 3-1 2 0 2.4.7 3.3 6zm-10.9 3.8c.1 2.8-.2 3.2-1.7 2.8-1-.4-5.6.1-10.2 1-4.5.8-8.6 1.2-9.1.7-.4-.4-.9-2.3-1.1-4.2l-.3-3.5 10.5-2.1 10.5-2 .7 2c.3 1.1.6 3.5.7 5.3zm41-.3c3.4 1.7 4.1 3.3 4.1 8.6 0 5.4-4.9 10.8-10.8 11.9-12.8 2.3-22.7-6.5-17.9-16 2.4-4.7 18.5-7.7 24.6-4.5zM195.3 477c.4 4.7 1.4 15 2.2 22.9.8 7.9 1.2 14.8.9 15.3-.3.4-3.1.8-6.4.8h-5.8l-.6-6.8c-.3-3.7-.8-14.5-1.2-24l-.6-17.3 5.3.3 5.4.3.8 8.5zm581.6-5.4c4.1 3.4 4.9 8.2 2.4 13.1-2.8 5.3-7.5 7.8-14.3 7.7-6.8-.1-10.1-2-12.5-7.3-1.4-3.3-1.5-4.5-.5-7.5 1.2-3.8 3-5.2 9.5-7.2 6.8-2.1 11.9-1.7 15.4 1.2zm9.7 26.4c6 1.1 12.9 2.6 15.4 3.4l4.5 1.4-5 .3-5 .4-1.9 8.7c-1.1 4.9-2.3 8.8-2.6 8.8-.4 0-4.5-2.3-9.1-5.2-13.6-8.4-21.1-12-24-11.6-1.6.3-2.6 0-2.4-.6.2-.6.6-2.4 1-4 .6-2.8.7-2.8 5.3-2.2 2.6.3 6.1.2 7.7-.3 4.2-1.3 4-1.3 16.1.9zM766 514.1c4 2.3 8 8.2 8 11.9 0 3.6-3.1 9-6.1 10.5-5.9 3.1-15.1.8-17.9-4.6-.7-1.3-1-4.6-.8-8.1.5-6.9 2.7-9.7 8.5-10.8 2.1-.4 4-.8 4.2-.9.2 0 2 .9 4.1 2zm-20.6 10.5c-4.1 14.4-23.6 55-37.8 78.9-5.3 8.8-9.6 15.6-9.6 15 0-.5-1.2.8-2.6 3-1.5 2.2-4.9 6.6-7.6 9.7-2.9 3.4-4.6 6.3-4.2 6.9.4.7.3.9-.3.6-1-.6-11.2 9.4-11.4 11.1-.3 2.5-.9 4.5-1.5 5-.4.4-.4-.2-.1-1.3.5-1.2-.4-.7-2.2 1.5-2.8 3.3-2.9 3.6-1.3 5.5 1.7 2 1.7 2-.8 0-1.4-1.1-2.6-2.1-2.8-2.1-.2-.1 6-8 13.8-17.5 26.7-32.8 41.2-57.2 58.5-98.9 8.6-20.5 10.4-24.4 11.1-23.7.3.3-.2 3.1-1.2 6.3zm-479 7.9c.9.9 1.6 2.8 1.6 4.3 0 5-1.3 13.2-2 13.2-.4 0-1.2-1.9-1.8-4.3-1.1-4.2-3.7-7.4-7.8-9.5-3.2-1.7-13.7.3-21.2 3.9-3.4 1.7-8.4 5.3-11.1 8l-4.8 4.9-1.9-2.1c-1.9-2.1-1.9-2.2 2.2-5.8 5.1-4.4 17.1-10.6 24.2-12.4 8.2-2.1 20.6-2.1 22.6-.2zM246 542.9c0 1.7-4.2 6.1-5.8 6.1-2.2 0-8 3.5-10.4 6.3-6 7-7.2 14.4-3.9 23.8 2.5 7.2 12.8 28.9 14.7 31 1 1.1 1.2 1.9.5 2.3-1.4.9-3.1-1.9-8.9-14.4-10.2-21.9-12.4-29.9-10.2-38.1 2-7.5 8.1-13.6 16.5-16.7 3.7-1.3 7.5-1.5 7.5-.3zm512 7.6c4.1 2.1 6.3 6.8 5.7 12.1-.9 8.6-8 13.8-15.6 11.5-5.7-1.7-8.4-5.1-8.9-11.6-.4-5.3-.3-5.6 3.6-9.5 3.4-3.4 4.6-4 8.1-4 2.3 0 5.5.7 7.1 1.5zm32.6 13.6c9 8.4 1.3 24.4-10.7 22.4-4.7-.8-9.4-5.1-10.2-9.3-1.3-6.5 4-15.5 9.6-16.4 3.7-.6 8.8.9 11.3 3.3zm-50.5 18.5c4 2 7.3 9.2 6.3 13.7-1 4.7-3 7.2-7.4 9.2-4.9 2.2-9.8 1.4-13.3-2.3-5.9-6.2-5.8-13.1.4-18.7 4.4-4 8.9-4.6 14-1.9zm-447.6 5.6c2.5 3 2.7 3.7 2.2 10.1-.6 7.6-1.3 9.2-2.2 5.4-.4-1.4-2-3.8-3.6-5.3-6.9-6.7-15.8-2.7-33.6 15.1-6.8 6.7-10.3 9.6-10.3 8.4 0-1 .5-2.1 1.1-2.4.6-.4.8-1.4.4-2.3-.3-.9-.3-1.3.1-.9s5.9-4.4 12.3-10.6c12.2-11.9 18-16.3 24.6-19 5.5-2.2 6-2.1 9 1.5zm455.9 33.2c6.7 2.8 9.1 9.9 5.7 17-3.9 7.9-14.1 10.1-20 4.2-2.2-2.3-2.6-3.5-2.6-8.6 0-5.2.4-6.3 3-9 4.8-5.1 8.2-6 13.9-3.6zm-420.7 11.4c2 1.3 4.5 8.3 3.9 10.8-.7 2.8-1.8 3-3.6.9-1.8-2.2-8.9-1.9-13 .6-7.5 4.5-12 10-20.6 25.7-2.9 5.1-5.4 8.9-5.7 8.5-.7-1.1 9.1-20.6 13.5-27.1 4.4-6.4 14.6-16.4 18.8-18.4 3.9-2 5-2.1 6.7-1zM695 644.6c5.9 3.5 7.8 11.9 4 18.1-6.2 10.2-21.4 7-22.7-4.9-.6-5.5 1.8-11.2 5.6-13.3 3.5-1.9 9.7-1.9 13.1.1zm36 7.3c1.4 1 3.1 2.9 3.7 4.2 3 5.7.4 15.2-4.8 18-5.5 2.9-15.3-.3-17.8-5.9-5.5-11.9 8.5-24 18.9-16.3zm-359.7 10.7c-.3.8-1.5 1.4-2.7 1.4-3.5 0-12 5.5-16.9 11-4 4.5-19.4 26.8-22.6 32.8-1.1 2-1 2.6.6 3.8 1.5 1.3 1.3 1.3-1.2 0-6.2-3.2-6.5-2.2 5-19.7 8.1-12.3 13.2-18.9 20.5-26.2l9.7-9.8 4 2.7c2.6 1.6 3.9 3.2 3.6 4zm-5 15c-1.7 4.3-2.2 4.9-5.4 5.5-5 .8-11.1 6.1-17.9 15.4-3.2 4.4-6.6 8.9-7.5 10-1.6 1.9-1.6 1.9-.4-.5.7-1.4 4.5-7.7 8.5-14.1 7.5-11.9 15-20 20.7-22.4 4.1-1.7 4.4-.6 2 6.1zm32.2 10.4c2.2.9 5.3 3.1 6.9 4.8l2.9 3.1-5.4-2.1c-7.3-2.8-23.7-3-28.8-.4-7.7 4.1-11.1 10.2-12.1 22.1l-.7 8-.1-7.1c-.1-4.2.4-8.9 1.4-11.7 1.8-5.2 9.1-14 13.6-16.3 6.8-3.5 14.8-3.7 22.3-.4zm-1.7 7.5c4.4 1.9 8.9 6.8 9.8 10.8 1.7 7.9-4.2 16.7-13.1 19.3-6.4 1.8-10.8 1-16.1-3.1-8.2-6.3-8.6-16.3-.9-23.5 5.4-5 13.3-6.4 20.3-3.5z" fill="#efa637"/>
  <path d="M504.6 98.1c-24.5 2.8-40 10.9-46.2 24.2-3.1 6.8-3.2 11.5-.1 12.1 1.2.3 15.5 1.2 31.7 2.1 16.2.9 43.6 2.5 60.9 3.6 22.7 1.4 31.7 1.7 32.5.9 2.2-2.2 1.1-11.2-2.1-18.3-6.1-13-17.9-21.4-34-24.2-8.4-1.5-31.3-1.8-42.7-.4zm49.5 6.6c3.1 1.2 6.9 2.8 8.5 3.6 5 2.6 11.5 9.9 14.5 16.2 3 6.3 3.8 12.5 1.7 12.5-.7 0-15-.9-31.8-2-36.4-2.3-67.5-3.9-78.6-4.1l-8.2-.1.8-2.7c3.8-13.3 17.7-22.1 39.5-25 3.9-.5 16.2-.8 27.5-.7 17.8.2 21.2.6 26.1 2.3zM766.8 139c-2 1.1-5 3.6-6.5 5.7-2.3 3-2.8 4.6-2.8 9.4 0 5.2.3 6.1 3.4 9.3 5.7 5.9 13.3 6 19.8.3 6.4-5.6 7.7-11.9 4.3-19.5-3.1-6.9-10.8-9.1-18.2-5.2zm13.2 6.2c2.5 4.2 2.5 8.5.1 12.2-3.8 5.7-10.7 7.3-15.5 3.5-2.1-1.7-2.6-2.9-2.6-6.6 0-3.9.5-5 3.9-8.4 3.2-3.3 4.5-3.9 8-3.9 3.6 0 4.4.4 6.1 3.2zM243.1 176c-7.1 3.9-14.4 9.5-26.1 19.8-18.2 16.1-21.9 21.4-22 31.1 0 4.4.7 6.8 4.3 13.3 5.1 9.7 10 15.6 14.4 17.4 1.8.8 3.5 1.4 3.9 1.4.3 0 6.3-5.5 13.3-12.3 13.1-12.7 36.2-33.5 48.9-44.1 6.4-5.4 7.2-6.5 7-9.1-.3-2.7-1-3.3-7.6-5.9-4.3-1.7-9.2-4.6-12-7.1-9.4-8.4-15.1-9.4-24.1-4.5zm19.9 7.3c3.5 3.3 8.2 6.3 12.5 8.1l6.8 2.9-2.4 2c-10.9 8.7-36.2 31.1-48.7 43.2l-15.4 14.7-3-2.8c-1.6-1.6-5.2-6.3-7.9-10.4-4.5-6.8-4.9-7.9-4.9-13.5 0-8 2.8-12.4 14.6-23.1 23.1-20.9 34.1-28.2 40.3-26.8 1.4.3 5 2.9 8.1 5.7zM272.5 221.9c-9.9 2.4-21.5 13.8-20.1 19.7.4 1.4 1.1 2.4 1.6 2.2 1.8-.6 24.1-22.8 22.8-22.7-.7.1-2.6.4-4.3.8zM470 186.7c-7.9 4.1-10.7 15-5.4 21.3 7.3 8.6 18.5 7.6 23.6-2.3 6.1-12-6.5-25.1-18.2-19zm11.4 6.4c2 1.6 2.6 2.9 2.6 6 0 9.4-11.5 12.4-15.8 4.2-1.9-3.5-1.4-6.3 1.7-9.4 3.5-3.5 7.7-3.8 11.5-.8zM574.4 191c-3.2 1.3-7.2 6.7-8 10.5-.9 4.9.1 8 3.9 12.2 2.8 3 4.2 3.6 8.3 4 6.6.6 11.1-2 14.2-8 3.2-6.1 2.4-11.7-2.3-16.4-2.9-2.9-3.9-3.3-8.6-3.2-3 0-6.3.4-7.5.9zm12.1 6.5c6.6 6.5-.3 17.4-9.2 14.4-6.1-2-7.3-9-2.4-14 3.8-3.7 8.2-3.9 11.6-.4zM354.3 230c-8.7 5.2-8.3 19.8.6 24.5 11.4 5.8 23.9-5.1 20.2-17.6-2.4-7.9-13.3-11.5-20.8-6.9zm13.2 5.5c3.6 3.5 3.4 8.8-.4 12.6-3.9 3.8-7.4 3.8-11.3-.1-2.6-2.7-3-3.6-2.5-6.8 1.2-7.4 9.3-10.7 14.2-5.7zM270 305.9c-5.2 2.8-7.4 6.3-7.4 12 0 9.4 7.3 16.2 16 14.8 10.1-1.7 15.6-13.5 10.1-21.8-4.3-6.4-12.1-8.6-18.7-5zm13.2 7.1c2.6 2.6 2.9 3.6 2.4 6.3-1.6 7.8-10.5 10.9-15.2 5.3-7.8-9 4.3-20 12.8-11.6zM787 371.6c-4.7 2-7.4 4.7-9.5 9.5-1.6 3.4-1.6 4.5-.6 8 1.6 5.3 7.8 11.4 12.4 12.3 10.9 2 20.9-5.5 20.9-15.9 0-11.3-12.3-18.6-23.2-13.9zM750.7 378.5c-6.8 2.4-11.7 8.5-11.7 14.5 0 4.5 4.5 12.7 8 14.5 3.6 1.9 13 2 17.3.1 11.6-4.8 12.6-20.9 1.8-27.7-5-3.2-9.3-3.6-15.4-1.4zM796 411.5c-5.9 1.1-16 2.9-39 7-4.6.9-9.1 2.1-9.8 2.9-1.2 1.1-1.1 2.7.3 10 2 10.8 3.2 13.5 6.4 14.3 2.6.6 41.8-5.8 50.2-8.3 6.7-2 6.9-3.5 3.3-21.7-.6-2.7-2.9-5.8-4.2-5.6-.4.1-3.6.7-7.2 1.4zM821.6 117.7c-.5 3.6-.1 5.6 1.5 9 2.4 4.9 3.9 5.5 4 1.5 0-1.5.4-3.6.9-4.7.6-1.5.9-.8.9 2.7.1 2.6.5 4.9 1 5.3.6.3.8-1 .5-3.2-.5-3.7-.5-3.8 1.2-1.6 1.8 2.5 4.4 3.1 4.4 1 0-.7.6-2.2 1.4-3.3 1.3-1.7 1.4-1.5.9 2.5-.9 6.7 1.8 4.8 3.4-2.4.7-3.2 1.8-6.4 2.4-7.1 1.3-1.5.4-3.4-1.6-3.4-1.8 0-6.9 5.5-7.6 8.2-.6 2.2-.7 2.2-1.3.3-1.8-5.2-3.3-7-5.6-7-2.2 0-2.6.5-3.1 5-.7 4.9-.7 4.9-.5-1.3.1-7.4-1.8-8.5-2.8-1.5zM827.3 142.7c-7.4 4.2-10.5 13.9-6.7 21.8 2.7 5.8 6.6 7.7 14.6 7.3 6.1-.3 7.1-.7 10.3-3.8 4.1-3.9 5.9-8.8 5.1-13.3-2-10.7-14.2-17-23.3-12zM841 146c5.1 2.6 7.3 10 4.7 16.1-2.5 6-11.3 8.7-17.6 5.4-2.9-1.4-6.1-6.9-6.1-10.2.1-2.4 3.5-9.9 5.1-10.8 3.5-2.2 10-2.4 13.9-.5z" fill="#4a779b" />
  <path d="M829 156.5c0 6.9.3 8.5 1.5 8.5 1 0 1.5-1 1.5-3 0-2.3.4-3 2-3 1.2 0 2.5 1 3.2 2.4 1.1 2.6 3.4 4.1 4.2 2.7.3-.4-.2-2-1-3.6-1.3-2.5-1.3-3 .1-4.5 3.6-4 .2-8-6.8-8H829v8.5zM410 309.1c-12 5.6-21.7 19.5-26.2 37.5-2 7.8-2.3 11.4-2.3 28.9.1 17 .4 21.4 2.3 29.5 4.3 18.5 14.2 33.5 25.7 39 7.5 3.5 19.1 3.9 27 .9 12.3-4.6 22-18.1 27.2-37.7 2.1-8.1 2.6-12.7 3-27.2.4-15.1.2-18.9-1.6-27.6-6.2-30.1-20.6-46.4-41.1-46.4-6.3 0-8.5.5-14 3.1zm26.8 4c10.7 5.3 18.8 17.3 23.3 34.4 2.7 10.3 3.7 33.8 1.9 46.9-4.1 30.3-18.2 48.6-37.5 48.6-16.9 0-29.9-13.2-36.2-36.7-2.4-9-2.7-11.5-2.7-29.8-.1-22.8 1.1-30.2 6.8-42 4.4-9.3 8.7-14.9 14.2-18.8 6.2-4.4 9.8-5.5 17.5-5.6 5.4-.1 7.6.4 12.7 3z" fill="#efa637"/>
  <path d="M404.4 337.6c-7 3.4-10.6 10.3-9 16.8.9 3.6 6.5 9.6 10.3 11.2 7.9 3.4 17.3.8 21.3-5.8 3.2-5.3 3.5-9.1 1-14.3-4-8.3-15.2-12.1-23.6-7.9zM439.9 393.7l-4.4 6.8-4.4-.3c-10.1-.8-19 4.8-24 15.1-3.7 7.6-1 15.2 6.5 18.3 4.8 2 6.4 1.7 2.8-.5-3.2-1.9-5.4-6.4-5.4-10.8 0-3.5 2.4-7.5 6.5-11.1 6.1-5.4 9.1-6.5 15.7-5.8l5.8.7 3.2-5c1.7-2.8 3.2-5.1 3.3-5.1.2 0 2.8 1.2 5.9 2.6 3.1 1.4 6 2.3 6.5 2 .5-.3 1.1-1.9 1.3-3.6.4-2.8 0-3.2-5.9-6.5-3.5-1.9-7-3.5-7.7-3.5-.7 0-3.3 3-5.7 6.7zM572.2 308.4c-20.8 9.9-32.6 41.6-29.2 78.6 2.5 27.5 12.6 48.5 27.1 56.5 4.9 2.7 6.2 3 14.9 3 8.8 0 10.1-.3 16.2-3.3 8.4-4.1 13.9-10.1 18.9-20.7 7.5-15.9 10.8-37 8.9-57.7-2.4-27.6-12.8-47.6-28.7-55.5-4.7-2.3-7.4-2.9-14.3-3.1-7.4-.2-9.2.1-13.8 2.2zm26.7 4.8c11.4 5.5 20.3 19.8 24.1 38.8 3.9 18.6 1.7 52.4-4 63-1.9 3.6-3 1.1-1.4-3.3 4-11.4 4.9-18 4.9-36.7 0-15.9-.4-19.7-2.3-26.8-4.5-17.2-13.7-29.5-24.3-32.6-6.7-2-10.8-2-18.1 0-10.5 3-19.3 13.6-23.9 28.7-6.2 20.6-4.2 58.5 4.1 75.4 5.7 11.5 15.9 18.3 27.7 18.3 9 0 17.2-3.8 23.8-11.2 2.5-2.8 4.8-4.8 5.1-4.5 1.1 1.1-4.5 9.5-8.8 13.1-12.7 10.9-31.1 9.7-42.4-2.6-14.2-15.4-20.7-50.6-14.9-80.1 6.7-34.3 27.5-50.6 50.4-39.5zM354.2 509.5c-12.1 2.7-20.2 9.3-26.1 21.5-3.5 7.2-3.6 7.9-3.6 18.5 0 10.2.2 11.4 2.9 16.8 3 5.9 7.8 10.9 12.3 13 2.2 1 2.8.8 4.5-1.3 1.8-2.2 2-3.5 1.5-10.8-.3-4.5-.4-8.9 0-9.7.6-1.8 2.3-2 2.3-.4 0 2.4 10.6 18.3 17.7 26.7 28.3 33.2 66.4 54.6 107.8 60.6 57.6 8.3 113.9-6.6 158.9-42.2 10.8-8.5 26.7-25.3 33.8-35.5l6.3-9.2.7 4c.4 2.2.7 6.5.7 9.6.1 7 1.6 8.7 6.1 6.9 6.8-2.8 13.8-14.7 14.7-24.9 1.4-15.4-7.8-32.6-21.4-39.8-10.5-5.6-25.1-6.7-36.3-2.8-11.1 3.8-20.1 14.7-20.4 24.7-.1 4.7.2 5.3 2.6 6.7 2.7 1.5 3.1 1.4 10.8-2.7 4.4-2.4 8.5-4.2 9.1-4 1.8.6-12.8 13.5-22.6 19.9C584 576.6 550.4 586 506.4 586c-40.4 0-76.3-10.3-105.9-30.4-8.8-5.9-23.3-19.1-22.2-20.2.3-.3 3.7 1.1 7.7 3.1 8.3 4.2 12.6 4.7 14.7 1.9 1.7-2.3 1.1-5.9-2.1-12.8-7.1-15.4-24.3-22.4-44.4-18.1zm26.2 5.8c2.8 1.3 6.5 3.6 8.3 5.1 5.2 4.4 10.7 17.6 7.3 17.6-.5 0-1-1-1-2.3 0-5.1-7.3-14-14-16.9-4.6-2-14.6-2.7-18.8-1.4-2.2.7-2.2.8 1 3 1.8 1.3 3.1 2.9 2.9 3.7-1.5 5-.6 6.4 11.3 17.7 13.8 13.1 25.3 21.1 42 29.2 20.4 9.9 40.9 15.5 66.1 18 6 .6 11.1 1.3 11.4 1.6.2.2-.5 2.3-1.6 4.7-2.8 5.5-5.5 15-9.3 32.2-1.8 7.7-3.3 14.1-3.4 14.2-.2.2-5.4-.6-11.7-1.7-32-5.7-58.7-18.5-84.1-40.4-18.2-15.6-39.7-45.1-36.8-50.6 1.5-2.9 1.2-4.3-1.9-9l-2.9-4.4 2.1-1.1c2.8-1.3 3.5-6 1.1-6.9-1-.4-2.2-.2-2.8.4-.5.5-1.7 1-2.5 1-1.1 0-1-.5.5-2.3 1-1.2.4-.9-1.4.8-1.8 1.6-4.8 6.1-6.7 9.9-2.9 5.6-3.5 8-3.5 13.1 0 7.3 2.1 14.8 5.5 19.9 3.2 4.7 1.6 4.7-2.5-.1-8.6-9.7-9.8-24.2-3.1-37.8 5.2-10.4 13.7-17.3 24.2-19.5 6.9-1.4 18.5-.3 24.3 2.3zm287.4-.1c17.5 6.6 27.8 30.4 20.4 47.1-1.9 4.3-6.8 10.7-8.1 10.7-.4 0 .6-2.8 2.3-6.2 2.8-5.7 3.1-7.1 3.1-16.3 0-8.9-.3-10.5-2.7-15-6.5-12.2-16.5-17.7-32.3-17.8-9.6-.1-13.6 1-20.6 5.9-3.8 2.6-9.5 11.7-8.4 13.4.3.5.1 1-.6 1-2.6 0 1.9-11.9 6.4-16.8 7.8-8.5 26.5-11.3 40.5-6zm-25.4 26.5c-17.5 20.5-55.4 40.8-90.2 48.3-16.5 3.6-51.4 6.5-53.4 4.4-.3-.3-.4-1.4-.1-2.5.5-1.7 1.5-1.9 10.7-1.9 13.5 0 30.8-1.7 43.1-4.1 32.4-6.5 66.8-24 86.5-44.1 8.4-8.6 10.8-8.7 3.4-.1zm24.1 18c-7.9 12.2-26.1 31.6-39 41.4-16.1 12.2-30.3 20.4-47.5 27.2-25.2 10-45.1 13.9-72.7 14.1-10 0-18.4-.2-18.7-.5-.4-.3-.3-1.4 0-2.4.7-1.6 1.8-1.7 11.8-1.2 16.3.9 44.3-1.3 43-3.4-.3-.5.1-.6.9-.4 1.9.8 24.6-5.9 34.7-10.2 30.5-13 70-42.6 84.7-63.3 3.2-4.5 5.5-5.5 2.8-1.3z" fill="#da3843"/>
  <path d="M377.5 562.5c-3.4 3.3-3.3 7.7.2 10.5 5.1 4 12.3.3 12.3-6.1 0-6.4-7.8-9.2-12.5-4.4zM418.8 581.7c-3.6 4-12.8 17.4-12.8 18.8 0 1.6 3.3 4.5 5.2 4.5.8 0 2.8-1.9 4.3-4.3 1.5-2.3 5-7.3 7.8-11 4.8-6.6 4.9-6.8 3.2-8.7-2.5-2.7-4.7-2.5-7.7.7zM431.7 597.4c-3.7 5.1-6.9 10-7.2 10.8-.7 1.7 4.1 6.1 5.6 5.2 1.9-1.1 14.9-20.8 14.9-22.5 0-1.8-1.9-2.9-4.9-2.9-1.1 0-4.3 3.6-8.4 9.4zM632.1 642.3c-3.7 1.9-6.2 5.9-6.4 10.5-.1 3.3.4 4.7 2.8 7.2 1.6 1.6 3.6 3 4.6 3 1.1 0 1.8 1.1 2.2 3.2.6 4 .2 4.8-2.4 4.8-2.8 0-7.9 2.7-11.5 6.1l-3.1 3-1.6-4.2c-1.6-3.9-1.5-4.2.6-7.1 5.3-7.1.7-16.5-8.5-17.5-8.3-1-14.8 4.9-14.8 13.3 0 3.5.6 4.7 3.5 7.3 2 1.7 4.6 3.1 5.8 3.1 1.8 0 2.9 1.4 5.4 6.3l3.1 6.3-2.4 2.7c-1.3 1.5-2.8 4.4-3.3 6.5-1.6 5.4-1.3 15.9.4 22.2.9 3 3.1 11.8 5.1 19.5 1.9 7.6 4 14.5 4.6 15.2.6.7 2.5 1.3 4.4 1.3 3.9 0 24.3-3.4 30.5-5 21.1-5.7 34.7-26.2 31-46.5-3.2-17.1-16.7-31.1-32.2-33.1-4.3-.6-4.7-.9-5.5-4.2-.8-3.1-.6-3.9 1.3-5.8 4.6-4.6 4.2-10.7-1.2-16.1-3.6-3.6-7.9-4.3-12.4-2zM477 678.9c-4.1.3-8.1 1-8.7 1.4-.9.6-1.3 4-1.3 11.2v10.3l-2.7.6c-1.6.2-7.7.8-13.8 1.1-16.3.9-17.3 1.2-18 4.7-.4 1.6-.4 15 0 29.8l.8 26.8 11.1 3.6c21.4 6.9 38 9.5 64.6 10.3 30.3.9 57.9-2.7 81.5-10.5l11-3.7.3-29.6.2-29.7-6.2-.6c-3.5-.3-10.9-.8-16.5-1.2l-10.3-.7v-11.4c0-11.3 0-11.4-2.6-12.3-2.7-1.1-76.2-1.1-89.4-.1zm87.5 4.1c.4.7-10.1 1-30.7 1-17.2 0-34.2.5-37.8 1-4.1.6-9.6 2.6-14.7 5.2-7.8 3.9-8.3 4.4-8.3 7.4 0 1.8-.4 3.6-1 3.9-.6.4-1-2.8-1-8.9v-9.5l6.3-.4c15.6-.8 86.6-.6 87.2.3zm4.6 24c23.7 1.1 28.9 1.7 28.9 3.2 0 .8-3.1.9-10.2.5-54.7-3.4-106.9-2.9-135.6 1.3-7.4 1.1-13.6 2-13.8 2-.2 0-.4 10.9-.4 24.2 0 16.4-.3 23.9-1 23.2-.7-.7-.9-10.4-.8-27l.3-25.9 17.5-1.1c22.9-1.4 89.2-1.7 115.1-.4zm-23.6 13.7c-.4 1.6-.8 2.9-.9 3-.1.1-13 .3-28.6.4l-28.5.1-.3-3.1-.3-3.1h59.3l-.7 2.7zm-77.4.6c9.3 6.2 5.8 20.3-5.3 21.4-10.1 1-16.3-8.9-11.2-17.6 3.5-6 10.8-7.7 16.5-3.8zm111.2-.3c5.6 4.4 5.9 13.5.6 18.6-2.5 2.4-3.9 2.9-7.9 2.9s-5.4-.5-7.9-2.9c-3.6-3.5-4.7-8.1-3.1-13 1.7-5.1 5.3-7.6 11-7.6 3.2 0 5.5.6 7.3 2zM544 732.5v3.5h-27.5c-21.3 0-27.5-.3-27.5-1.3 0-.6-.3-2.2-.6-3.5l-.6-2.2H544v3.5zm-1 11v3.5h-52.8l-.4-3c-.3-1.7-.2-3.2 0-3.5.3-.3 12.4-.5 26.9-.5H543v3.5zm-1 11.5v4l-25.2-.2-25.3-.3-.3-2.9c-.2-1.6.2-3.2 1-3.7.7-.5 12.2-.9 25.6-.9H542v4zM799.4 837.1c-11.5 1.4-20.5 7.4-25.1 16.7-3.9 7.9-4 18.3-.3 25.7 4 8.1 11.3 11.9 30.7 16.1 17.1 3.7 20.2 5.7 20.3 13.2 0 3.6-.5 4.9-3 7.2-3.2 3-6.7 4-14.2 4-9.6 0-15.3-4.5-16.4-13.1l-.7-4.9h-21l.6 7.1c1.1 13.5 7.8 22.2 20.2 26.5 6.4 2.2 22.5 3 29.8 1.4 10.6-2.2 19.8-8.6 23.9-16.5 2.7-5.1 3.5-15.9 1.8-22-3.2-11.4-11-16.6-32.8-21.5-18.3-4.1-20.2-5.3-20.2-12.1 0-6.3 4.8-9.9 13.2-9.9 9.7 0 15.1 3.4 16.6 10.5l.8 4 10.8.3 10.9.3-.6-4.3c-1.1-7.2-2.6-11.3-5.8-15.7-7.2-10.1-22.5-15.1-39.5-13zM298.1 838.6c-16.9 4.5-30.2 17.8-34.6 34.5-2 7.3-1.9 22.2.1 29 3.8 13 13.3 25.1 23.7 30.2 25.3 12.4 55.6 4.2 68.6-18.6 5.8-10.3 7.9-27.5 4.6-39.6-3.4-13-12.9-25.4-24.1-31.3-10.5-5.7-26.5-7.4-38.3-4.2zm25.5 20.4c5 2.1 10.7 7.7 13.6 13.3 3.3 6.5 3.7 20.2.8 28.1-4.5 11.9-14.8 18.3-27.8 17.4-8.3-.6-13.7-3.2-19.1-9.4-9.6-11-9.6-30.8 0-41.8 8.5-9.6 21-12.5 32.5-7.6zM613.3 838.5c-16.1 4.4-28.8 16.4-34.4 32.6-3 8.8-3 23.6 0 33 6.7 21.2 25 34 48.1 33.8 24.3-.1 43.8-15.3 48.6-37.8 6-28.6-10.1-55.9-36.6-62-6.3-1.5-19.5-1.2-25.7.4zm25.2 20.9c6.5 3 11.7 8.8 14.5 16.2 1.8 4.9 2.1 7.3 1.7 13.9-1 16.7-10.6 27.2-25.8 28.3-12 .8-20.9-3.8-26.4-13.9-2.3-4.3-3-6.9-3.3-13.5-.6-12.1 1.4-18.2 8.6-25.4 6.4-6.3 9.9-7.8 19.2-7.9 4.9-.1 7.8.5 11.5 2.3zM226 874.9v36.9l-2.6 3.1c-2.3 2.8-3.2 3.1-8.1 3.1-3 0-6.3-.5-7.5-1.1-2.9-1.6-4.8-7-4.8-13.9v-6h-21.2l.4 9.9c.5 12.7 3.7 19.8 11.2 24.8 6.8 4.6 11.6 5.8 23.6 5.8 9.5 0 11-.3 16.3-2.8 6.3-3.1 10.7-8.4 12.6-15.2.7-2.6 1.1-17.5 1.1-42.8V838h-21v36.9zM362 839c0 .8 10.9 19.5 31.6 54.2l3.4 5.6V936h21v-36.3l4.9-8.1c6.2-10.3 30.5-51.7 30.9-52.7.2-.4-5.3-.8-12.2-.8l-12.4-.2-10.4 19.5c-5.7 10.8-10.6 19.6-11 19.6-.3 0-4.4-7.1-8.9-15.8-4.5-8.6-9.3-17.4-10.6-19.5L386 838h-12c-7.3 0-12 .4-12 1zM489 838.3c-.3.3-.4 4.6-.2 9.6l.3 9 14.7.3 14.7.3.3 39.2.2 39.3h22v-79h31.1l-.3-9.2-.3-9.2-41-.4c-22.5-.2-41.2-.2-41.5.1zM676 838.4c0 .2 6.1 10.6 13.5 23 16.5 27.8 21.7 37.2 22 39.9.1 1.2.3 9.5.4 18.4l.1 16.3h21v-36.2l11.6-19.7c17.2-28.9 24.4-41.3 24.4-41.7 0-.2-5.6-.4-12.4-.4h-12.4l-10.3 19.2c-5.7 10.5-10.8 19-11.4 18.9-.5-.1-5.5-8.7-11-19.1l-10-19h-12.7c-7.1 0-12.8.2-12.8.4z" fill="#da3843"/>
</svg>